# Exported from MakeClothes (TM)
# author punkduck
# license CC BY 3.0
# homepage http://www.makehuman.org/
v 1.5650 0.5471 0.0143
v 1.5480 0.5423 0.0209
v 1.5087 0.5480 -0.0762
v 1.5257 0.5528 -0.0828
v 1.5423 0.6485 0.0295
v 1.5253 0.6437 0.0361
v 1.4860 0.6494 -0.0611
v 1.5030 0.6542 -0.0677
v 1.5645 0.5494 0.0147
v 1.5428 0.6464 0.0292
v 1.5258 0.6416 0.0358
v 1.5475 0.5446 0.0213
v 1.4864 0.6473 -0.0614
v 1.5082 0.5503 -0.0759
v 1.5035 0.6521 -0.0680
v 1.5252 0.5551 -0.0825
v 1.5247 0.6438 0.0347
v 1.4866 0.6493 -0.0596
v 1.5093 0.5479 -0.0747
v 1.5475 0.5424 0.0196
v 1.5036 0.6541 -0.0662
v 1.5418 0.6486 0.0281
v 1.5645 0.5472 0.0130
v 1.5264 0.5527 -0.0813
v 1.5669 0.5476 0.0136
v 1.5276 0.5533 -0.0835
v 1.5441 0.6490 0.0288
v 1.5048 0.6547 -0.0684
v 1.5663 0.5499 0.0140
v 1.5446 0.6469 0.0285
v 1.5053 0.6526 -0.0687
v 1.5270 0.5556 -0.0832
v 1.5054 0.6546 -0.0669
v 1.5436 0.6491 0.0274
v 1.5663 0.5477 0.0123
v 1.5282 0.5532 -0.0820
v 1.5851 0.6117 -0.0435
v 1.5829 0.6120 -0.0489
v 1.5838 0.6172 -0.0427
v 1.5817 0.6176 -0.0481
v 1.5851 0.6118 -0.0435
v 1.5839 0.6171 -0.0427
v 1.5817 0.6174 -0.0481
v 1.5829 0.6121 -0.0489
v 1.5817 0.6175 -0.0479
v 1.5838 0.6173 -0.0428
v 1.5850 0.6117 -0.0437
v 1.5830 0.6120 -0.0488
v 1.5838 0.6171 -0.0428
v 1.5818 0.6174 -0.0480
v 1.5850 0.6118 -0.0436
v 1.5830 0.6121 -0.0487
v 0.0000 0.7050 -0.7566
v 0.0000 0.4641 -0.8703
v 0.0000 -0.2484 -0.7666
v 0.0000 -0.7217 -0.2557
v 0.0000 -0.0201 -0.8995
v 0.0000 -0.6035 -0.4427
v 0.0000 -0.4469 -0.6138
v 0.0000 0.2192 -0.9322
v 0.0000 0.3199 1.2664
v 0.0000 0.0806 1.2438
v 0.0000 -0.1264 1.1836
v 0.0000 -0.3235 1.0734
v 0.0000 -0.5755 0.9872
v 0.0000 -0.7640 0.7592
v 0.0000 -0.7943 0.6172
v 0.0000 -0.7972 0.0996
v -0.0000 -0.7656 -0.1119
v 0.0000 -0.7979 0.3507
v 0.8841 0.6971 -0.6966
v 0.6882 0.7042 -0.7454
v 0.5289 0.7108 -0.7595
v 0.3810 0.7119 -0.7618
v 0.2322 0.7051 -0.7665
v 0.0896 0.7016 -0.7613
v 1.2119 0.6834 -0.5082
v 1.0471 0.6992 -0.6209
v 0.9141 0.4406 -0.8120
v 0.7090 0.4340 -0.8744
v 0.5208 0.4469 -0.8810
v 0.3500 0.4561 -0.8848
v 0.1983 0.4561 -0.8826
v 0.0742 0.4596 -0.8727
v 1.1958 0.4669 -0.5966
v 0.9618 0.2298 -0.8332
v 0.7047 0.1513 -0.9137
v 0.4879 0.1711 -0.9431
v 0.3062 0.1897 -0.9490
v 0.1625 0.2046 -0.9445
v 0.0577 0.2164 -0.9338
v 1.0604 0.5103 -0.7271
v 0.8317 -0.0144 -0.8967
v 0.6169 -0.0875 -0.9409
v 0.4484 -0.0992 -0.9153
v 0.2791 -0.0764 -0.9128
v 0.1470 -0.0473 -0.9052
v 0.0552 -0.0227 -0.9009
v 1.3320 0.6721 -0.3892
v 0.7822 -0.2034 -0.8732
v 0.6871 -0.3806 -0.8561
v 0.4407 -0.3808 -0.8127
v 0.2738 -0.3321 -0.7903
v 0.1594 -0.2850 -0.7746
v 0.0695 -0.2523 -0.7687
v 0.5799 -0.5582 -0.7505
v 0.4413 -0.6713 -0.6445
v 0.2609 -0.5623 -0.6433
v 0.1581 -0.4921 -0.6249
v 0.0719 -0.4511 -0.6161
v 0.2960 -0.7607 -0.4254
v 0.2243 -0.6826 -0.5018
v 0.1559 -0.6471 -0.4591
v 0.0721 -0.6077 -0.4448
v 1.3431 0.5104 -0.4478
v 0.1815 -0.7900 -0.2646
v 0.0695 -0.7256 -0.2576
v 1.2609 0.4431 1.0592
v 0.4090 0.3442 1.2519
v 0.6028 0.3529 1.2196
v 1.0308 0.3993 1.1452
v 0.8029 0.3686 1.1820
v 1.2906 0.2892 1.0423
v 0.4178 0.1167 1.2317
v 0.6352 0.1162 1.2087
v 1.0382 0.2156 1.1493
v 0.8142 0.2190 1.1721
v 0.3934 -0.0895 1.1714
v 0.5586 -0.0737 1.1735
v 0.3623 -0.2753 1.0983
v 0.4962 -0.2131 1.1341
v 0.2985 -0.5523 0.9369
v 0.2136 0.3340 1.2726
v 0.2158 0.1028 1.2417
v 0.2017 -0.1108 1.1712
v 0.1729 -0.3019 1.0806
v 0.1496 -0.5527 0.9663
v 0.1217 -0.7124 0.7481
v 0.0958 -0.7678 0.6046
v 0.0219 -0.8049 0.0993
v 0.0639 -0.7614 -0.1032
v 0.2278 -0.6820 0.8036
v 0.1702 -0.7450 0.6092
v 0.0880 -0.8689 0.1330
v 0.1442 -0.8169 -0.0932
v 0.1241 -0.8152 0.3928
v 0.0513 -0.7965 0.3563
v 0.8423 0.0670 1.1967
v 0.7069 -0.0852 1.1788
v 0.0000 -0.4495 1.0303
v 0.5670 -0.2656 1.1408
v 0.4233 -0.4208 1.0562
v 0.1695 -0.4350 1.0402
v 0.0000 0.3462 1.1620
v 1.2236 0.4612 0.9928
v 0.4062 0.3691 1.1484
v 0.5998 0.3841 1.1130
v 1.0182 0.4227 1.0595
v 0.7978 0.3975 1.0794
v 0.2182 0.3603 1.1728
v 1.1958 0.4559 -0.5514
v 0.9618 0.2298 -0.7757
v 0.8317 -0.0144 -0.8461
v 0.7822 -0.2034 -0.8158
v 0.6871 -0.3806 -0.7884
v 0.5799 -0.5582 -0.6833
v 0.4552 -0.6377 -0.5822
v 0.3119 -0.7077 -0.3631
v 1.3017 0.4960 -0.4170
v 0.2074 -0.7407 -0.2342
v 1.2637 0.2655 0.9893
v 1.0382 0.2156 1.0911
v 0.2985 -0.5523 0.8909
v 0.2493 -0.6476 0.7652
v 0.1984 -0.7105 0.5819
v 0.1294 -0.7828 0.1329
v 0.1442 -0.7495 -0.0841
v 0.1523 -0.7606 0.3778
v 0.8423 0.0670 1.1358
v 0.7069 -0.0852 1.1189
v 0.5670 -0.2656 1.0830
v 0.4233 -0.4208 1.0033
v 0.0000 0.7106 -0.7155
v 0.8567 0.7137 -0.6066
v 0.6728 0.7189 -0.6548
v 0.5229 0.7163 -0.7101
v 0.3726 0.7174 -0.7195
v 0.2237 0.7111 -0.7240
v 0.0812 0.7081 -0.7185
v 1.1724 0.6988 -0.4702
v 1.0030 0.7103 -0.5446
v 1.2734 0.6884 -0.3453
v 1.2899 0.4374 1.0773
v 1.3163 0.2928 1.0592
v 1.4211 0.4847 0.9769
v 1.4345 0.3344 0.9648
v 1.4999 0.3858 0.7960
v 1.4096 0.3260 0.9447
v 1.3575 0.3032 0.8946
v 1.3961 0.4847 0.9463
v 1.3322 0.4847 0.8909
v 1.4478 0.3682 0.7549
v 1.4770 0.5435 0.8138
v 1.4088 0.5491 0.7697
v 1.5678 0.4439 0.6422
v 1.5157 0.4243 0.6092
v 1.5482 0.6023 0.6520
v 1.4766 0.6057 0.6149
v 1.4226 0.6739 -0.2685
v 1.4357 0.5079 -0.2993
v 1.3850 0.5017 -0.2777
v 1.3626 0.6845 -0.2266
v 1.4773 0.6779 -0.0947
v 1.5155 0.5164 -0.1364
v 1.4561 0.5045 -0.1212
v 1.4045 0.6934 -0.0639
v 1.3609 0.6687 -0.4140
v 1.3720 0.5236 -0.4681
v 1.4515 0.6687 -0.2934
v 1.4646 0.5247 -0.3360
v 1.5518 0.6785 0.0835
v 1.5761 0.5167 0.0406
v 1.5264 0.5087 0.0475
v 1.4748 0.6825 0.1048
v 1.6132 0.4917 0.4308
v 1.5612 0.4721 0.4194
v 1.5936 0.6501 0.4407
v 1.5221 0.6535 0.4227
v 1.6074 0.5109 0.2218
v 1.5424 0.4913 0.2275
v 1.5845 0.6693 0.2358
v 1.5065 0.6727 0.2432
v 1.3040 0.4303 1.0701
v 1.3270 0.3052 1.0546
v 1.4192 0.4718 0.9822
v 1.4306 0.3417 0.9715
v 1.3724 0.6585 -0.4092
v 1.3823 0.5334 -0.4562
v 1.4514 0.6590 -0.3046
v 1.4624 0.5342 -0.3413
v -0.8841 0.6971 -0.6966
v -0.6882 0.7042 -0.7454
v -0.5289 0.7108 -0.7595
v -0.3810 0.7119 -0.7618
v -0.2322 0.7051 -0.7665
v -0.0896 0.7016 -0.7613
v -1.2119 0.6834 -0.5082
v -1.0471 0.6992 -0.6209
v -0.9141 0.4406 -0.8120
v -0.7090 0.4340 -0.8744
v -0.5208 0.4469 -0.8810
v -0.3500 0.4561 -0.8848
v -0.1983 0.4561 -0.8826
v -0.0742 0.4596 -0.8727
v -1.1958 0.4669 -0.5966
v -0.9618 0.2298 -0.8281
v -0.7047 0.1513 -0.9137
v -0.4879 0.1711 -0.9431
v -0.3062 0.1897 -0.9490
v -0.1625 0.2046 -0.9445
v -0.0577 0.2164 -0.9338
v -1.0604 0.5103 -0.7271
v -0.8317 -0.0144 -0.9053
v -0.6169 -0.0875 -0.9409
v -0.4484 -0.0992 -0.9153
v -0.2791 -0.0764 -0.9128
v -0.1470 -0.0473 -0.9052
v -0.0552 -0.0227 -0.9009
v -1.3320 0.6721 -0.3892
v -0.7822 -0.2034 -0.8732
v -0.6871 -0.3806 -0.8561
v -0.4407 -0.3808 -0.8127
v -0.2738 -0.3321 -0.7903
v -0.1594 -0.2850 -0.7747
v -0.0695 -0.2523 -0.7687
v -0.5799 -0.5582 -0.7505
v -0.4413 -0.6713 -0.6445
v -0.2609 -0.5623 -0.6433
v -0.1581 -0.4921 -0.6249
v -0.0719 -0.4511 -0.6162
v -0.2960 -0.7607 -0.4254
v -0.2243 -0.6826 -0.5018
v -0.1559 -0.6471 -0.4593
v -0.0721 -0.6077 -0.4450
v -1.3431 0.5104 -0.4478
v -0.1815 -0.7900 -0.2646
v -0.0695 -0.7256 -0.2581
v -1.2609 0.4431 1.0592
v -0.4090 0.3442 1.2519
v -0.6028 0.3529 1.2196
v -1.0308 0.3993 1.1452
v -0.8029 0.3686 1.1820
v -1.2906 0.2892 1.0423
v -0.4178 0.1167 1.2317
v -0.6352 0.1162 1.2087
v -1.0382 0.2156 1.1493
v -0.8142 0.2190 1.1721
v -0.3934 -0.0895 1.1714
v -0.5586 -0.0737 1.1735
v -0.3623 -0.2753 1.0983
v -0.4962 -0.2131 1.1341
v -0.2985 -0.5523 0.9369
v -0.2136 0.3340 1.2726
v -0.2158 0.1028 1.2417
v -0.2017 -0.1108 1.1712
v -0.1729 -0.3019 1.0806
v -0.1496 -0.5527 0.9663
v -0.1217 -0.7124 0.7481
v -0.0958 -0.7678 0.6046
v -0.0219 -0.8049 0.0993
v -0.0639 -0.7614 -0.1032
v -0.2278 -0.6820 0.8036
v -0.1702 -0.7450 0.6092
v -0.0880 -0.8689 0.1330
v -0.1442 -0.8169 -0.0932
v -0.1241 -0.8152 0.3928
v -0.0513 -0.7965 0.3563
v -0.8423 0.0670 1.1967
v -0.7069 -0.0852 1.1788
v -0.5670 -0.2656 1.1408
v -0.4233 -0.4208 1.0562
v -0.1695 -0.4350 1.0402
v -1.2236 0.4612 0.9928
v -0.4062 0.3691 1.1484
v -0.5998 0.3841 1.1130
v -1.0182 0.4227 1.0595
v -0.7978 0.3975 1.0794
v -0.2182 0.3603 1.1728
v -1.1958 0.4559 -0.5514
v -0.9618 0.2298 -0.7757
v -0.8317 -0.0144 -0.8461
v -0.7822 -0.2034 -0.8158
v -0.6871 -0.3806 -0.7884
v -0.5799 -0.5582 -0.6833
v -0.4552 -0.6377 -0.5822
v -0.3119 -0.7077 -0.3631
v -1.3017 0.4960 -0.4170
v -0.2074 -0.7407 -0.2342
v -1.2637 0.2655 0.9893
v -1.0382 0.2156 1.0911
v -0.2985 -0.5523 0.8909
v -0.2493 -0.6476 0.7652
v -0.1984 -0.7105 0.5819
v -0.1294 -0.7828 0.1329
v -0.1442 -0.7495 -0.0841
v -0.1523 -0.7606 0.3778
v -0.8423 0.0670 1.1358
v -0.7069 -0.0852 1.1189
v -0.5670 -0.2656 1.0830
v -0.4233 -0.4208 1.0033
v -0.8567 0.7137 -0.6066
v -0.6728 0.7189 -0.6548
v -0.5229 0.7163 -0.7101
v -0.3726 0.7174 -0.7195
v -0.2237 0.7111 -0.7240
v -0.0812 0.7081 -0.7185
v -1.1724 0.6988 -0.4702
v -1.0030 0.7103 -0.5446
v -1.2734 0.6884 -0.3453
v -1.2899 0.4374 1.0773
v -1.3163 0.2928 1.0592
v -1.4211 0.4847 0.9769
v -1.4345 0.3344 0.9648
v -1.4999 0.3858 0.7960
v -1.4096 0.3260 0.9447
v -1.3575 0.3032 0.8946
v -1.3961 0.4847 0.9463
v -1.3322 0.4847 0.8909
v -1.4478 0.3682 0.7549
v -1.4770 0.5435 0.8138
v -1.4088 0.5491 0.7697
v -1.5678 0.4439 0.6422
v -1.5157 0.4243 0.6092
v -1.5482 0.6023 0.6520
v -1.4766 0.6057 0.6149
v -1.4226 0.6739 -0.2685
v -1.4357 0.5079 -0.2993
v -1.3850 0.5017 -0.2777
v -1.3626 0.6845 -0.2266
v -1.4773 0.6779 -0.0947
v -1.5155 0.5164 -0.1364
v -1.4561 0.5045 -0.1212
v -1.4045 0.6934 -0.0639
v -1.3609 0.6687 -0.4140
v -1.3720 0.5236 -0.4681
v -1.4515 0.6687 -0.2934
v -1.4646 0.5247 -0.3360
v -1.5518 0.6785 0.0835
v -1.5761 0.5167 0.0406
v -1.5264 0.5087 0.0475
v -1.4748 0.6825 0.1048
v -1.6132 0.4917 0.4308
v -1.5612 0.4721 0.4194
v -1.5936 0.6501 0.4407
v -1.5221 0.6535 0.4227
v -1.6074 0.5109 0.2218
v -1.5424 0.4913 0.2275
v -1.5845 0.6693 0.2358
v -1.5065 0.6727 0.2432
v -1.3040 0.4303 1.0701
v -1.3270 0.3052 1.0546
v -1.4192 0.4718 0.9822
v -1.4306 0.3417 0.9715
v -1.3724 0.6585 -0.4092
v -1.3823 0.5334 -0.4562
v -1.4514 0.6590 -0.3046
v -1.4624 0.5342 -0.3413
v -1.5383 0.5457 -0.0791
v -1.5215 0.5410 -0.0721
v -1.5621 0.5385 0.0246
v -1.5789 0.5433 0.0177
v -1.5147 0.6472 -0.0666
v -1.4978 0.6424 -0.0596
v -1.5384 0.6400 0.0372
v -1.5553 0.6448 0.0302
v -1.5378 0.5480 -0.0788
v -1.5152 0.6452 -0.0668
v -1.4983 0.6404 -0.0599
v -1.5209 0.5432 -0.0719
v -1.5389 0.6379 0.0369
v -1.5615 0.5408 0.0249
v -1.5557 0.6427 0.0299
v -1.5784 0.5455 0.0180
v -1.4984 0.6424 -0.0583
v -1.5378 0.6400 0.0357
v -1.5614 0.5385 0.0231
v -1.5220 0.5409 -0.0708
v -1.5546 0.6448 0.0287
v -1.5152 0.6472 -0.0652
v -1.5389 0.5457 -0.0778
v -1.5783 0.5433 0.0162
v -1.5401 0.5463 -0.0798
v -1.5807 0.5438 0.0169
v -1.5165 0.6478 -0.0673
v -1.5571 0.6453 0.0295
v -1.5396 0.5485 -0.0796
v -1.5170 0.6457 -0.0676
v -1.5575 0.6432 0.0292
v -1.5802 0.5461 0.0172
v -1.5564 0.6453 0.0280
v -1.5170 0.6477 -0.0660
v -1.5407 0.5462 -0.0785
v -1.5801 0.5438 0.0154
v -1.5953 0.6065 -0.0477
v -1.5975 0.6063 -0.0423
v -1.5940 0.6121 -0.0470
v -1.5962 0.6119 -0.0416
v -1.5953 0.6066 -0.0476
v -1.5940 0.6119 -0.0470
v -1.5962 0.6118 -0.0417
v -1.5975 0.6065 -0.0423
v -1.5962 0.6119 -0.0418
v -1.5940 0.6120 -0.0469
v -1.5953 0.6065 -0.0475
v -1.5975 0.6063 -0.0425
v -1.5941 0.6119 -0.0469
v -1.5962 0.6118 -0.0418
v -1.5953 0.6066 -0.0475
v -1.5974 0.6065 -0.0424
v 1.6170 0.5278 0.3778
v 1.5983 0.5258 0.3785
v 1.5933 0.5387 0.2744
v 1.6121 0.5406 0.2738
v 1.6066 0.6314 0.3911
v 1.5879 0.6294 0.3918
v 1.5829 0.6423 0.2877
v 1.6017 0.6442 0.2871
v 1.6168 0.5301 0.3781
v 1.6068 0.6293 0.3909
v 1.5881 0.6273 0.3915
v 1.5980 0.5281 0.3788
v 1.5831 0.6402 0.2874
v 1.5931 0.5410 0.2747
v 1.6019 0.6421 0.2868
v 1.6118 0.5430 0.2741
v 1.5878 0.6296 0.3903
v 1.5830 0.6421 0.2893
v 1.5934 0.5385 0.2760
v 1.5982 0.5260 0.3771
v 1.6017 0.6440 0.2887
v 1.6066 0.6316 0.3897
v 1.6170 0.5280 0.3764
v 1.6122 0.5404 0.2754
v 1.6190 0.5280 0.3778
v 1.6141 0.5408 0.2737
v 1.6086 0.6316 0.3911
v 1.6037 0.6444 0.2870
v 1.6188 0.5303 0.3781
v 1.6088 0.6295 0.3908
v 1.6039 0.6423 0.2867
v 1.6138 0.5432 0.2740
v 1.6037 0.6443 0.2886
v 1.6086 0.6318 0.3896
v 1.6190 0.5282 0.3763
v 1.6142 0.5406 0.2753
v 1.6642 0.5886 0.3331
v 1.6639 0.5893 0.3274
v 1.6636 0.5943 0.3338
v 1.6633 0.5950 0.3281
v 1.6642 0.5887 0.3331
v 1.6636 0.5941 0.3338
v 1.6634 0.5948 0.3281
v 1.6639 0.5894 0.3274
v 1.6634 0.5949 0.3282
v 1.6636 0.5943 0.3337
v 1.6642 0.5886 0.3330
v 1.6639 0.5893 0.3275
v 1.6636 0.5942 0.3337
v 1.6634 0.5948 0.3282
v 1.6642 0.5887 0.3330
v 1.6639 0.5894 0.3275
v 1.5241 0.4330 0.7565
v 1.5070 0.4314 0.7487
v 1.5464 0.4599 0.6557
v 1.5635 0.4615 0.6634
v 1.5043 0.5337 0.7789
v 1.4871 0.5320 0.7711
v 1.5265 0.5605 0.6781
v 1.5436 0.5621 0.6858
v 1.5237 0.4353 0.7570
v 1.5047 0.5316 0.7784
v 1.4875 0.5299 0.7706
v 1.5066 0.4336 0.7492
v 1.5269 0.5584 0.6776
v 1.5459 0.4621 0.6562
v 1.5440 0.5601 0.6854
v 1.5630 0.4638 0.6639
v 1.4877 0.5324 0.7698
v 1.5259 0.5600 0.6795
v 1.5458 0.4594 0.6571
v 1.5075 0.4318 0.7474
v 1.5430 0.5617 0.6872
v 1.5048 0.5340 0.7776
v 1.5247 0.4334 0.7552
v 1.5629 0.4611 0.6649
v 1.5260 0.4332 0.7573
v 1.5653 0.4617 0.6643
v 1.5061 0.5338 0.7797
v 1.5455 0.5623 0.6866
v 1.5255 0.4355 0.7578
v 1.5065 0.5318 0.7792
v 1.5459 0.5603 0.6862
v 1.5649 0.4640 0.6648
v 1.5448 0.5619 0.6881
v 1.5066 0.5342 0.7784
v 1.5265 0.4336 0.7560
v 1.5647 0.4612 0.6657
v 1.5830 0.4989 0.7456
v 1.5852 0.5004 0.7405
v 1.5819 0.5044 0.7468
v 1.5841 0.5060 0.7417
v 1.5830 0.4990 0.7456
v 1.5819 0.5043 0.7468
v 1.5841 0.5058 0.7417
v 1.5852 0.5006 0.7405
v 1.5840 0.5059 0.7418
v 1.5820 0.5044 0.7467
v 1.5831 0.4989 0.7455
v 1.5851 0.5004 0.7406
v 1.5820 0.5043 0.7467
v 1.5841 0.5058 0.7418
v 1.5830 0.4990 0.7455
v 1.5851 0.5005 0.7406
v -1.6094 0.5346 0.2794
v -1.5908 0.5321 0.2803
v -1.5966 0.5271 0.3850
v -1.6153 0.5295 0.3841
v -1.5961 0.6385 0.2851
v -1.5774 0.6361 0.2861
v -1.5832 0.6310 0.3907
v -1.6019 0.6335 0.3898
v -1.6091 0.5369 0.2795
v -1.5963 0.6364 0.2850
v -1.5777 0.6340 0.2859
v -1.5905 0.5345 0.2804
v -1.5835 0.6289 0.3906
v -1.5963 0.5294 0.3851
v -1.6022 0.6314 0.3897
v -1.6150 0.5319 0.3842
v -1.5775 0.6360 0.2875
v -1.5831 0.6311 0.3891
v -1.5965 0.5272 0.3834
v -1.5908 0.5321 0.2817
v -1.6018 0.6336 0.3882
v -1.5962 0.6385 0.2866
v -1.6095 0.5345 0.2808
v -1.6152 0.5296 0.3825
v -1.6114 0.5348 0.2793
v -1.6173 0.5298 0.3840
v -1.5981 0.6388 0.2850
v -1.6039 0.6338 0.3897
v -1.6111 0.5372 0.2794
v -1.5983 0.6367 0.2849
v -1.6042 0.6316 0.3896
v -1.6170 0.5321 0.3841
v -1.6038 0.6338 0.3881
v -1.5981 0.6387 0.2865
v -1.6115 0.5348 0.2807
v -1.6172 0.5299 0.3824
v -1.6601 0.5885 0.3289
v -1.6604 0.5882 0.3346
v -1.6594 0.5942 0.3292
v -1.6597 0.5939 0.3349
v -1.6601 0.5886 0.3289
v -1.6594 0.5941 0.3292
v -1.6597 0.5938 0.3349
v -1.6604 0.5883 0.3346
v -1.6597 0.5939 0.3348
v -1.6594 0.5942 0.3293
v -1.6601 0.5885 0.3290
v -1.6604 0.5882 0.3345
v -1.6594 0.5941 0.3293
v -1.6597 0.5938 0.3348
v -1.6601 0.5886 0.3290
v -1.6604 0.5883 0.3345
v -1.5634 0.4654 0.6754
v -1.5468 0.4629 0.6667
v -1.5036 0.4337 0.7578
v -1.5202 0.4361 0.7665
v -1.5383 0.5653 0.6956
v -1.5217 0.5629 0.6869
v -1.4786 0.5336 0.7780
v -1.4952 0.5360 0.7867
v -1.5628 0.4676 0.6758
v -1.5388 0.5632 0.6951
v -1.5222 0.5608 0.6865
v -1.5462 0.4652 0.6672
v -1.4791 0.5316 0.7776
v -1.5031 0.4359 0.7583
v -1.4957 0.5340 0.7863
v -1.5197 0.4384 0.7669
v -1.5211 0.5625 0.6882
v -1.4792 0.5341 0.7766
v -1.5043 0.4342 0.7564
v -1.5462 0.4625 0.6680
v -1.4958 0.5365 0.7853
v -1.5377 0.5649 0.6968
v -1.5628 0.4650 0.6766
v -1.5209 0.4366 0.7651
v -1.5652 0.4656 0.6763
v -1.5220 0.4364 0.7674
v -1.5401 0.5655 0.6965
v -1.4969 0.5363 0.7876
v -1.5646 0.4679 0.6768
v -1.5406 0.5635 0.6961
v -1.4974 0.5343 0.7872
v -1.5214 0.4386 0.7679
v -1.4976 0.5367 0.7862
v -1.5395 0.5651 0.6977
v -1.5646 0.4652 0.6775
v -1.5227 0.4368 0.7660
v -1.5793 0.5058 0.7530
v -1.5770 0.5042 0.7580
v -1.5779 0.5113 0.7541
v -1.5756 0.5097 0.7591
v -1.5793 0.5060 0.7530
v -1.5780 0.5112 0.7541
v -1.5756 0.5096 0.7591
v -1.5769 0.5043 0.7581
v -1.5756 0.5097 0.7590
v -1.5779 0.5113 0.7542
v -1.5793 0.5058 0.7531
v -1.5770 0.5043 0.7579
v -1.5779 0.5112 0.7542
v -1.5757 0.5096 0.7590
v -1.5792 0.5059 0.7532
v -1.5770 0.5044 0.7579
vt 0.9004 0.3220
vt 0.8990 0.3021
vt 0.9017 0.3020
vt 0.9022 0.3216
vt 0.9773 0.3733
vt 0.9572 0.3730
vt 0.9574 0.3709
vt 0.9772 0.3705
vt 0.9571 0.3695
vt 0.9772 0.3687
vt 0.8548 0.3769
vt 0.8360 0.3776
vt 0.8360 0.3761
vt 0.8546 0.3757
vt 0.8359 0.3738
vt 0.8547 0.3739
vt 0.9054 0.4451
vt 0.9054 0.4256
vt 0.9071 0.4253
vt 0.9079 0.4451
vt 0.9033 0.3019
vt 0.9036 0.3217
vt 0.9036 0.4451
vt 0.9039 0.4255
vt 0.9557 0.3702
vt 0.9031 0.3232
vt 0.9023 0.3229
vt 0.8562 0.3763
vt 0.9044 0.4240
vt 0.9053 0.4243
vt 0.9064 0.4239
vt 0.9557 0.3723
vt 0.9011 0.3233
vt 0.8562 0.3745
vt 0.9561 0.3711
vt 0.8558 0.3755
vt 0.9065 0.3730
vt 0.9037 0.3703
vt 0.9036 0.3703
vt 0.9008 0.3734
vt 0.9038 0.3761
vt 0.9038 0.3762
vt 0.9039 0.3761
vt 0.9065 0.3732
vt 0.9035 0.3703
vt 0.9008 0.3733
vt 0.9065 0.3731
vt 0.9007 0.3733
vt 0.9008 0.3733
vt 0.9038 0.3760
vt 0.9064 0.3731
vt 0.9036 0.3704
vt 0.6257 0.1223
vt 0.6063 0.1222
vt 0.6063 0.0535
vt 0.6306 0.0533
vt 0.6691 0.0503
vt 0.6581 0.1200
vt 0.7885 0.1283
vt 0.8420 0.1243
vt 0.8549 0.1788
vt 0.7860 0.1998
vt 0.7411 0.1236
vt 0.7308 0.1948
vt 0.6974 0.1201
vt 0.6849 0.1899
vt 0.6581 0.1200
vt 0.6483 0.1879
vt 0.6213 0.1880
vt 0.5869 0.1223
vt 0.5819 0.0533
vt 0.8185 0.2424
vt 0.7631 0.2593
vt 0.7214 0.2630
vt 0.6786 0.2583
vt 0.6446 0.2540
vt 0.6208 0.2507
vt 0.6064 0.2507
vt 0.6064 0.1880
vt 0.6247 0.3195
vt 0.6065 0.3195
vt 0.8046 0.2898
vt 0.7808 0.3306
vt 0.7215 0.3366
vt 0.6787 0.3303
vt 0.6483 0.3239
vt 0.6066 0.3859
vt 0.5874 0.3858
vt 0.5883 0.3195
vt 0.6065 0.3195
vt 0.7581 0.3786
vt 0.7274 0.4165
vt 0.6793 0.3993
vt 0.6495 0.3907
vt 0.6258 0.3858
vt 0.6917 0.4734
vt 0.6724 0.4466
vt 0.6506 0.4511
vt 0.6265 0.4489
vt 0.6067 0.4491
vt 0.6066 0.3859
vt 0.8827 0.1033
vt 0.9348 0.1047
vt 0.6620 0.5173
vt 0.6271 0.5124
vt 0.6068 0.5124
vt 0.4491 0.8780
vt 0.4501 0.9423
vt 0.3888 0.9418
vt 0.3888 0.8726
vt 0.5059 0.8805
vt 0.5043 0.9446
vt 0.5678 0.8781
vt 0.5601 0.9464
vt 0.6216 0.9057
vt 0.6195 0.9494
vt 0.6883 0.9009
vt 0.6866 0.9547
vt 0.7681 0.9262
vt 0.7563 0.9710
vt 0.9385 0.0434
vt 0.8871 0.0508
vt 0.3888 0.8126
vt 0.4449 0.8153
vt 0.4983 0.8207
vt 0.5443 0.8241
vt 0.3888 0.7500
vt 0.4370 0.7564
vt 0.4894 0.7657
vt 0.5260 0.7850
vt 0.4363 0.7174
vt 0.3888 0.7128
vt 0.3888 0.6766
vt 0.4301 0.6784
vt 0.8411 0.0553
vt 0.5071 0.7242
vt 0.4737 0.6723
vt 0.4236 0.6042
vt 0.3888 0.6002
vt 0.3888 0.5621
vt 0.4173 0.5601
vt 0.4397 0.5639
vt 0.4516 0.6221
vt 0.7889 0.0547
vt 0.7473 0.0517
vt 0.7085 0.0493
vt 0.9820 0.0306
vt 0.9864 0.0767
vt 0.3888 0.4843
vt 0.4043 0.4861
vt 0.4269 0.4968
vt 0.6133 0.6173
vt 0.6250 0.5582
vt 0.6501 0.5655
vt 0.6357 0.6300
vt 0.6070 0.6170
vt 0.6069 0.5555
vt 0.3957 0.4087
vt 0.3888 0.4088
vt 0.4228 0.4171
vt 0.5861 0.8192
vt 0.6262 0.8612
vt 0.5451 0.7718
vt 0.5068 0.9747
vt 0.4522 0.9715
vt 0.7488 0.9923
vt 0.6866 0.9804
vt 0.5637 0.9782
vt 0.6221 0.9807
vt 0.3888 0.9732
vt 0.5136 0.7111
vt 0.5539 0.7588
vt 0.5971 0.8061
vt 0.6379 0.8483
vt 0.7386 0.4303
vt 0.7045 0.4902
vt 0.4655 0.6154
vt 0.4792 0.6600
vt 0.4508 0.4225
vt 0.4457 0.4958
vt 0.6997 0.8880
vt 0.7925 0.3422
vt 0.7660 0.3932
vt 0.6780 0.5271
vt 0.8693 0.1823
vt 0.8310 0.2469
vt 0.7710 0.9077
vt 0.6705 0.5703
vt 0.6612 0.6289
vt 0.9466 0.1093
vt 0.4539 0.5586
vt 0.8174 0.2972
vt 0.9910 0.0905
vt 0.6062 0.0422
vt 0.6281 0.0418
vt 0.9334 0.0291
vt 0.9733 0.0121
vt 0.8839 0.0279
vt 0.7067 0.0379
vt 0.7473 0.0383
vt 0.8411 0.0301
vt 0.6668 0.0390
vt 0.7898 0.0300
vt 0.9021 0.9468
vt 0.8579 0.9467
vt 0.8639 0.9382
vt 0.8948 0.9393
vt 0.8916 0.9358
vt 0.8663 0.9354
vt 0.8683 0.9107
vt 0.8893 0.9091
vt 0.8911 0.9075
vt 0.8668 0.9096
vt 0.8586 0.9053
vt 0.9011 0.8948
vt 0.8400 0.9446
vt 0.8376 0.9056
vt 0.9254 0.8962
vt 0.9230 0.9420
vt 0.9036 0.8499
vt 0.9272 0.8481
vt 0.8600 0.8556
vt 0.8406 0.8531
vt 0.9050 0.7998
vt 0.9272 0.7959
vt 0.8626 0.8071
vt 0.8448 0.8039
vt 0.8967 0.5027
vt 0.9180 0.5054
vt 0.9126 0.5476
vt 0.8919 0.5446
vt 0.8302 0.4933
vt 0.8467 0.4918
vt 0.8464 0.5446
vt 0.8304 0.5439
vt 0.8578 0.5048
vt 0.8571 0.5323
vt 0.9217 0.5956
vt 0.8988 0.5962
vt 0.8516 0.5938
vt 0.8351 0.5932
vt 0.8839 0.5374
vt 0.8849 0.5089
vt 0.8597 0.5078
vt 0.8824 0.5112
vt 0.8818 0.5353
vt 0.8588 0.5312
vt 0.9220 0.6472
vt 0.9004 0.6487
vt 0.8563 0.6428
vt 0.8426 0.6424
vt 0.9044 0.7425
vt 0.9240 0.7384
vt 0.8629 0.7476
vt 0.8473 0.7470
vt 0.9025 0.6892
vt 0.9239 0.6872
vt 0.8597 0.6915
vt 0.8410 0.6927
vt 0.5545 0.1201
vt 0.5434 0.0504
vt 0.4240 0.1286
vt 0.4268 0.2002
vt 0.3567 0.1793
vt 0.3704 0.1246
vt 0.4715 0.1238
vt 0.4819 0.1950
vt 0.5152 0.1203
vt 0.5278 0.1901
vt 0.5545 0.1201
vt 0.5644 0.1880
vt 0.5914 0.1881
vt 0.4497 0.2595
vt 0.3954 0.2426
vt 0.4915 0.2633
vt 0.5343 0.2584
vt 0.5683 0.2541
vt 0.5921 0.2507
vt 0.4321 0.3310
vt 0.4081 0.2902
vt 0.4915 0.3369
vt 0.5343 0.3305
vt 0.5647 0.3240
vt 0.4859 0.4168
vt 0.4549 0.3790
vt 0.5339 0.3995
vt 0.5637 0.3908
vt 0.5409 0.4468
vt 0.5217 0.4737
vt 0.5628 0.4513
vt 0.5868 0.4490
vt 0.2778 0.1046
vt 0.3298 0.1034
vt 0.5864 0.5123
vt 0.5516 0.5176
vt 0.3285 0.8780
vt 0.3275 0.9423
vt 0.2732 0.9446
vt 0.2717 0.8805
vt 0.2175 0.9464
vt 0.2098 0.8781
vt 0.1581 0.9494
vt 0.1560 0.9057
vt 0.0910 0.9547
vt 0.0893 0.9009
vt 0.0213 0.9710
vt 0.0094 0.9262
vt 0.2741 0.0435
vt 0.3255 0.0510
vt 0.3327 0.8153
vt 0.2333 0.8241
vt 0.2793 0.8207
vt 0.3406 0.7564
vt 0.2515 0.7850
vt 0.2882 0.7657
vt 0.3413 0.7174
vt 0.3475 0.6784
vt 0.3715 0.0556
vt 0.2704 0.7242
vt 0.3038 0.6723
vt 0.3540 0.6042
vt 0.3603 0.5601
vt 0.3259 0.6221
vt 0.3379 0.5639
vt 0.4237 0.0550
vt 0.4652 0.0520
vt 0.5041 0.0495
vt 0.2262 0.0767
vt 0.2307 0.0306
vt 0.3733 0.4861
vt 0.3506 0.4968
vt 0.6007 0.6173
vt 0.5783 0.6302
vt 0.5637 0.5657
vt 0.5887 0.5583
vt 0.3819 0.4087
vt 0.3548 0.4171
vt 0.1514 0.8612
vt 0.1915 0.8192
vt 0.2325 0.7718
vt 0.3254 0.9715
vt 0.2708 0.9747
vt 0.0910 0.9804
vt 0.0288 0.9923
vt 0.2139 0.9782
vt 0.1555 0.9807
vt 0.2237 0.7588
vt 0.2639 0.7112
vt 0.1397 0.8483
vt 0.1804 0.8061
vt 0.5089 0.4906
vt 0.4747 0.4307
vt 0.2984 0.6600
vt 0.3121 0.6154
vt 0.3319 0.4958
vt 0.3268 0.4225
vt 0.0779 0.8880
vt 0.4472 0.3936
vt 0.4205 0.3427
vt 0.5356 0.5273
vt 0.3809 0.2479
vt 0.3435 0.1825
vt 0.0065 0.9077
vt 0.5529 0.6291
vt 0.5433 0.5706
vt 0.2660 0.1093
vt 0.3236 0.5586
vt 0.3953 0.2977
vt 0.2217 0.0905
vt 0.2394 0.0122
vt 0.2793 0.0292
vt 0.3287 0.0281
vt 0.4652 0.0385
vt 0.5058 0.0380
vt 0.3714 0.0303
vt 0.5457 0.0391
vt 0.4227 0.0303
vt 0.5844 0.0419
vt 0.1179 0.6608
vt 0.1247 0.6530
vt 0.1551 0.6503
vt 0.1614 0.6584
vt 0.1277 0.6494
vt 0.1286 0.6230
vt 0.1493 0.6234
vt 0.1526 0.6477
vt 0.1266 0.6215
vt 0.1161 0.6094
vt 0.1586 0.6176
vt 0.1507 0.6223
vt 0.1793 0.6168
vt 0.1790 0.6553
vt 0.0970 0.6571
vt 0.0923 0.6121
vt 0.0879 0.5648
vt 0.1114 0.5653
vt 0.1546 0.5686
vt 0.1736 0.5652
vt 0.0852 0.5133
vt 0.1074 0.5160
vt 0.1495 0.5210
vt 0.1669 0.5168
vt 0.1000 0.2226
vt 0.1069 0.2637
vt 0.0866 0.2677
vt 0.0791 0.2263
vt 0.1651 0.2098
vt 0.1675 0.2597
vt 0.1517 0.2612
vt 0.1487 0.2092
vt 0.1406 0.2497
vt 0.1384 0.2226
vt 0.1028 0.3149
vt 0.0802 0.3155
vt 0.1654 0.3086
vt 0.1492 0.3101
vt 0.1119 0.2280
vt 0.1144 0.2561
vt 0.1367 0.2256
vt 0.1388 0.2487
vt 0.1164 0.2539
vt 0.1145 0.2302
vt 0.1040 0.3668
vt 0.0826 0.3664
vt 0.1606 0.3575
vt 0.1471 0.3586
vt 0.0853 0.4565
vt 0.1049 0.4594
vt 0.1461 0.4623
vt 0.1615 0.4609
vt 0.0828 0.4059
vt 0.1040 0.4068
vt 0.1463 0.4068
vt 0.1648 0.4070
vt 0.9004 0.3220
vt 0.8990 0.3021
vt 0.9017 0.3020
vt 0.9022 0.3216
vt 0.9773 0.3733
vt 0.9572 0.3730
vt 0.9574 0.3709
vt 0.9772 0.3705
vt 0.9571 0.3695
vt 0.9772 0.3687
vt 0.8548 0.3769
vt 0.8360 0.3776
vt 0.8360 0.3761
vt 0.8546 0.3757
vt 0.8359 0.3738
vt 0.8547 0.3739
vt 0.9054 0.4451
vt 0.9054 0.4256
vt 0.9071 0.4253
vt 0.9079 0.4451
vt 0.9033 0.3019
vt 0.9036 0.3217
vt 0.9036 0.4451
vt 0.9039 0.4255
vt 0.9557 0.3702
vt 0.9031 0.3232
vt 0.9023 0.3229
vt 0.8562 0.3763
vt 0.9044 0.4240
vt 0.9053 0.4243
vt 0.9064 0.4239
vt 0.9557 0.3723
vt 0.9011 0.3233
vt 0.8562 0.3745
vt 0.9561 0.3711
vt 0.8558 0.3755
vt 0.9065 0.3730
vt 0.9037 0.3703
vt 0.9036 0.3703
vt 0.9008 0.3734
vt 0.9038 0.3761
vt 0.9038 0.3762
vt 0.9039 0.3761
vt 0.9065 0.3732
vt 0.9035 0.3703
vt 0.9008 0.3733
vt 0.9065 0.3731
vt 0.9007 0.3733
vt 0.9008 0.3733
vt 0.9038 0.3760
vt 0.9064 0.3731
vt 0.9036 0.3704
vt 0.9004 0.3220
vt 0.8990 0.3021
vt 0.9017 0.3020
vt 0.9022 0.3216
vt 0.9773 0.3733
vt 0.9572 0.3730
vt 0.9574 0.3709
vt 0.9772 0.3705
vt 0.9571 0.3695
vt 0.9772 0.3687
vt 0.8548 0.3769
vt 0.8360 0.3776
vt 0.8360 0.3761
vt 0.8546 0.3757
vt 0.8359 0.3738
vt 0.8547 0.3739
vt 0.9054 0.4451
vt 0.9054 0.4256
vt 0.9071 0.4253
vt 0.9079 0.4451
vt 0.9033 0.3019
vt 0.9036 0.3217
vt 0.9036 0.4451
vt 0.9039 0.4255
vt 0.9557 0.3702
vt 0.9031 0.3232
vt 0.9023 0.3229
vt 0.8562 0.3763
vt 0.9044 0.4240
vt 0.9053 0.4243
vt 0.9064 0.4239
vt 0.9557 0.3723
vt 0.9011 0.3233
vt 0.8562 0.3745
vt 0.9561 0.3711
vt 0.8558 0.3755
vt 0.9065 0.3730
vt 0.9037 0.3703
vt 0.9036 0.3703
vt 0.9008 0.3734
vt 0.9038 0.3761
vt 0.9038 0.3762
vt 0.9039 0.3761
vt 0.9065 0.3732
vt 0.9035 0.3703
vt 0.9008 0.3733
vt 0.9065 0.3731
vt 0.9007 0.3733
vt 0.9008 0.3733
vt 0.9038 0.3760
vt 0.9064 0.3731
vt 0.9036 0.3704
vt 0.9004 0.3220
vt 0.8990 0.3021
vt 0.9017 0.3020
vt 0.9022 0.3216
vt 0.9773 0.3733
vt 0.9572 0.3730
vt 0.9574 0.3709
vt 0.9772 0.3705
vt 0.9571 0.3695
vt 0.9772 0.3687
vt 0.8548 0.3769
vt 0.8360 0.3776
vt 0.8360 0.3761
vt 0.8546 0.3757
vt 0.8359 0.3738
vt 0.8547 0.3739
vt 0.9054 0.4451
vt 0.9054 0.4256
vt 0.9071 0.4253
vt 0.9079 0.4451
vt 0.9033 0.3019
vt 0.9036 0.3217
vt 0.9036 0.4451
vt 0.9039 0.4255
vt 0.9557 0.3702
vt 0.9031 0.3232
vt 0.9023 0.3229
vt 0.8562 0.3763
vt 0.9044 0.4240
vt 0.9053 0.4243
vt 0.9064 0.4239
vt 0.9557 0.3723
vt 0.9011 0.3233
vt 0.8562 0.3745
vt 0.9561 0.3711
vt 0.8558 0.3755
vt 0.9065 0.3730
vt 0.9037 0.3703
vt 0.9036 0.3703
vt 0.9008 0.3734
vt 0.9038 0.3761
vt 0.9038 0.3762
vt 0.9039 0.3761
vt 0.9065 0.3732
vt 0.9035 0.3703
vt 0.9008 0.3733
vt 0.9065 0.3731
vt 0.9007 0.3733
vt 0.9008 0.3733
vt 0.9038 0.3760
vt 0.9064 0.3731
vt 0.9036 0.3704
vt 0.9004 0.3220
vt 0.8990 0.3021
vt 0.9017 0.3020
vt 0.9022 0.3216
vt 0.9773 0.3733
vt 0.9572 0.3730
vt 0.9574 0.3709
vt 0.9772 0.3705
vt 0.9571 0.3695
vt 0.9772 0.3687
vt 0.8548 0.3769
vt 0.8360 0.3776
vt 0.8360 0.3761
vt 0.8546 0.3757
vt 0.8359 0.3738
vt 0.8547 0.3739
vt 0.9054 0.4451
vt 0.9054 0.4256
vt 0.9071 0.4253
vt 0.9079 0.4451
vt 0.9033 0.3019
vt 0.9036 0.3217
vt 0.9036 0.4451
vt 0.9039 0.4255
vt 0.9557 0.3702
vt 0.9031 0.3232
vt 0.9023 0.3229
vt 0.8562 0.3763
vt 0.9044 0.4240
vt 0.9053 0.4243
vt 0.9064 0.4239
vt 0.9557 0.3723
vt 0.9011 0.3233
vt 0.8562 0.3745
vt 0.9561 0.3711
vt 0.8558 0.3755
vt 0.9065 0.3730
vt 0.9037 0.3703
vt 0.9036 0.3703
vt 0.9008 0.3734
vt 0.9038 0.3761
vt 0.9038 0.3762
vt 0.9039 0.3761
vt 0.9065 0.3732
vt 0.9035 0.3703
vt 0.9008 0.3733
vt 0.9065 0.3731
vt 0.9007 0.3733
vt 0.9008 0.3733
vt 0.9038 0.3760
vt 0.9064 0.3731
vt 0.9036 0.3704
vt 0.9004 0.3220
vt 0.8990 0.3021
vt 0.9017 0.3020
vt 0.9022 0.3216
vt 0.9773 0.3733
vt 0.9572 0.3730
vt 0.9574 0.3709
vt 0.9772 0.3705
vt 0.9571 0.3695
vt 0.9772 0.3687
vt 0.8548 0.3769
vt 0.8360 0.3776
vt 0.8360 0.3761
vt 0.8546 0.3757
vt 0.8359 0.3738
vt 0.8547 0.3739
vt 0.9054 0.4451
vt 0.9054 0.4256
vt 0.9071 0.4253
vt 0.9079 0.4451
vt 0.9033 0.3019
vt 0.9036 0.3217
vt 0.9036 0.4451
vt 0.9039 0.4255
vt 0.9557 0.3702
vt 0.9031 0.3232
vt 0.9023 0.3229
vt 0.8562 0.3763
vt 0.9044 0.4240
vt 0.9053 0.4243
vt 0.9064 0.4239
vt 0.9557 0.3723
vt 0.9011 0.3233
vt 0.8562 0.3745
vt 0.9561 0.3711
vt 0.8558 0.3755
vt 0.9065 0.3730
vt 0.9037 0.3703
vt 0.9036 0.3703
vt 0.9008 0.3734
vt 0.9038 0.3761
vt 0.9038 0.3762
vt 0.9039 0.3761
vt 0.9065 0.3732
vt 0.9035 0.3703
vt 0.9008 0.3733
vt 0.9065 0.3731
vt 0.9007 0.3733
vt 0.9008 0.3733
vt 0.9038 0.3760
vt 0.9064 0.3731
vt 0.9036 0.3704
f 9/1 12/2 2/3 1/4
f 14/5 16/6 4/7 3/8
f 24/9 19/10 3/8 4/7
f 22/11 17/12 6/13 5/14
f 5/14 6/13 11/15 10/16
f 10/16 11/15 12/2 9/1
f 7/17 8/18 15/19 13/20
f 13/20 15/19 16/6 14/5
f 1/4 2/3 20/21 23/22
f 23/22 20/21 19/10 24/9
f 8/18 7/17 18/23 21/24
f 21/24 18/23 17/12 22/11
f 23/22 24/9 36/25 35/26
f 1/4 23/22 35/26 25/27
f 21/24 22/11 34/28 33/29
f 8/18 21/24 33/29 28/30
f 16/6 15/19 31/31 32/32
f 15/19 8/18 28/30 31/31
f 10/16 9/1 29/33 30/34
f 9/1 1/4 25/27 29/33
f 24/9 4/7 26/35 36/25
f 22/11 5/14 27/36 34/28
f 4/7 16/6 32/32 26/35
f 5/14 10/16 30/34 27/36
f 35/26 36/25 48/37 47/38
f 25/27 35/26 47/38 37/39
f 33/29 34/28 46/40 45/41
f 28/30 33/29 45/41 40/42
f 32/32 31/31 43/43 44/44
f 31/31 28/30 40/42 43/43
f 30/34 29/33 41/45 42/46
f 29/33 25/27 37/39 41/45
f 36/25 26/35 38/47 48/37
f 34/28 27/36 39/48 46/40
f 26/35 32/32 44/44 38/47
f 27/36 30/34 42/46 39/48
f 42/46 49/49 46/40 39/48
f 43/43 40/42 45/41 50/50
f 44/44 52/51 48/37 38/47
f 41/45 37/39 47/38 51/52
f 41/45 51/52 49/49 42/46
f 46/40 49/49 50/50 45/41
f 44/44 43/43 50/50 52/51
f 47/38 48/37 52/51 51/52
f 49/49 51/52 52/51 50/50
f 84/53 54/54 53/55 76/56
f 84/53 76/56 75/57 83/58
f 80/59 79/60 86/61 87/62
f 81/63 80/59 87/62 88/64
f 82/65 81/63 88/64 89/66
f 83/67 82/65 89/66 90/68
f 84/53 83/58 90/68 91/69
f 54/54 254/70 246/71 53/55
f 87/62 86/61 93/72 94/73
f 88/64 87/62 94/73 95/74
f 89/66 88/64 95/74 96/75
f 90/68 89/66 96/75 97/76
f 91/69 90/68 97/76 98/77
f 98/77 57/78 60/79 91/69
f 105/80 55/81 57/78 98/77
f 94/73 93/72 100/82 101/83
f 95/74 94/73 101/83 102/84
f 96/75 95/74 102/84 103/85
f 97/76 96/75 103/85 104/86
f 98/77 97/76 104/86 105/80
f 59/87 280/88 275/89 55/90
f 102/84 101/83 106/91 107/92
f 103/85 102/84 107/92 108/93
f 104/86 103/85 108/93 109/94
f 105/80 104/86 109/94 110/95
f 108/93 107/92 111/96 112/97
f 109/94 108/93 112/97 113/98
f 110/95 109/94 113/98 114/99
f 110/95 114/99 58/100 59/101
f 79/60 92/102 85/103 86/61
f 114/99 113/98 116/104 117/105
f 117/105 56/106 58/100 114/99
f 134/107 133/108 61/109 62/110
f 133/108 134/107 124/111 119/112
f 119/112 124/111 125/113 120/114
f 120/114 125/113 127/115 122/116
f 122/116 127/115 126/117 121/118
f 121/118 126/117 123/119 118/120
f 77/121 85/103 92/102 78/122
f 134/107 62/110 63/123 135/124
f 125/113 124/111 128/125 129/126
f 135/124 63/123 64/127 136/128
f 129/126 128/125 130/129 131/130
f 153/131 150/132 65/133 137/134
f 71/135 78/122 92/102 79/60
f 124/111 134/107 135/124 128/125
f 128/125 135/124 136/128 130/129
f 152/136 153/131 137/134 132/137
f 138/138 66/139 67/140 139/141
f 138/138 139/141 143/142 142/143
f 80/59 72/144 71/135 79/60
f 81/63 73/145 72/144 80/59
f 82/65 74/146 73/145 81/63
f 83/58 75/57 74/146 82/65
f 85/103 77/121 99/147 115/148
f 139/141 67/140 70/149 147/150
f 139/141 147/150 146/151 143/142
f 137/134 138/138 142/143 132/137
f 138/138 137/134 65/133 66/139
f 140/152 141/153 145/154 144/155
f 141/153 140/152 68/156 69/157
f 141/153 117/105 116/104 145/154
f 117/105 141/153 69/157 56/106
f 140/158 147/150 70/149 68/159
f 147/150 140/158 144/160 146/151
f 125/113 129/126 149/161 148/162
f 125/113 148/162 126/117 127/115
f 136/128 64/127 150/132 153/131
f 129/126 131/130 151/163 149/161
f 130/129 136/128 153/131 152/136
f 131/130 130/129 152/136 151/163
f 113/98 112/97 111/96 116/104
f 133/108 119/112 156/164 160/165
f 121/118 118/120 155/166 158/167
f 119/112 120/114 157/168 156/164
f 120/114 122/116 159/169 157/168
f 122/116 121/118 158/167 159/169
f 61/109 133/108 160/165 154/170
f 151/163 152/136 182/171 181/172
f 148/162 149/161 180/173 179/174
f 111/96 107/92 167/175 168/176
f 149/161 151/163 181/172 180/173
f 132/137 142/143 174/177 173/178
f 146/151 144/160 176/179 178/180
f 152/136 132/137 173/178 182/171
f 126/117 148/162 179/174 172/181
f 106/91 101/83 165/182 166/183
f 107/92 106/91 166/183 167/175
f 116/104 111/96 168/176 170/184
f 93/72 86/61 162/185 163/186
f 123/119 126/117 172/181 171/187
f 144/155 145/154 177/188 176/189
f 86/61 85/103 161/190 162/185
f 142/143 143/142 175/191 174/177
f 143/142 146/151 178/180 175/191
f 145/154 116/104 170/184 177/188
f 100/82 93/72 163/186 164/192
f 101/83 100/82 164/192 165/182
f 85/103 115/148 169/193 161/190
f 76/56 53/55 183/194 189/195
f 99/147 77/121 190/196 192/197
f 77/121 78/122 191/198 190/196
f 73/145 74/146 187/199 186/200
f 78/122 71/135 184/201 191/198
f 74/146 75/57 188/202 187/199
f 72/144 73/145 186/200 185/203
f 75/57 76/56 189/195 188/202
f 71/135 72/144 185/203 184/201
f 118/204 123/205 194/206 193/207
f 233/208 234/209 236/210 235/211
f 195/212 196/213 198/214 200/215
f 196/213 194/206 123/205 198/214
f 198/214 123/205 171/216 199/217
f 193/207 195/212 200/215 118/204
f 118/204 200/215 201/218 155/219
f 201/218 200/215 203/220 204/221
f 200/215 198/214 197/222 203/220
f 198/214 199/217 202/223 197/222
f 204/221 203/220 207/224 208/225
f 203/220 197/222 205/226 207/224
f 197/222 202/223 206/227 205/226
f 99/228 192/229 212/230 209/231
f 169/232 115/233 210/234 211/235
f 210/234 115/233 218/236 220/237
f 209/231 212/230 216/238 213/239
f 211/235 210/234 214/240 215/241
f 210/234 209/231 213/239 214/240
f 99/228 209/231 219/242 217/243
f 209/231 210/234 220/237 219/242
f 115/233 99/228 217/243 218/236
f 238/244 237/245 239/246 240/247
f 213/239 216/238 224/248 221/249
f 215/241 214/240 222/250 223/251
f 214/240 213/239 221/249 222/250
f 208/225 207/224 227/252 228/253
f 207/224 205/226 225/254 227/252
f 205/226 206/227 226/255 225/254
f 228/253 227/252 231/256 232/257
f 227/252 225/254 229/258 231/256
f 225/254 226/255 230/259 229/258
f 224/248 232/257 231/256 221/249
f 222/250 229/258 230/259 223/251
f 221/249 231/256 229/258 222/250
f 234/209 233/208 193/207 194/206
f 235/211 236/210 196/213 195/212
f 233/208 235/211 195/212 193/207
f 236/210 234/209 194/206 196/213
f 237/245 238/244 218/236 217/243
f 240/247 239/246 219/242 220/237
f 239/246 237/245 217/243 219/242
f 238/244 240/247 220/237 218/236
f 84/53 91/69 60/79 54/54
f 254/70 253/260 245/261 246/71
f 250/262 257/263 256/264 249/265
f 251/266 258/267 257/263 250/262
f 252/268 259/269 258/267 251/266
f 253/270 260/271 259/269 252/268
f 254/70 261/272 260/271 253/260
f 261/272 254/70 54/54 60/79
f 257/263 264/273 263/274 256/264
f 258/267 265/275 264/273 257/263
f 259/269 266/276 265/275 258/267
f 260/271 267/277 266/276 259/269
f 261/272 268/278 267/277 260/271
f 261/272 60/79 57/78 268/278
f 268/278 57/78 55/81 275/89
f 264/273 271/279 270/280 263/274
f 265/275 272/281 271/279 264/273
f 266/276 273/282 272/281 265/275
f 267/277 274/283 273/282 266/276
f 268/278 275/89 274/283 267/277
f 59/87 55/90 105/80 110/95
f 272/281 277/284 276/285 271/279
f 273/282 278/286 277/284 272/281
f 274/283 279/287 278/286 273/282
f 275/89 280/88 279/287 274/283
f 278/286 282/288 281/289 277/284
f 279/287 283/290 282/288 278/286
f 280/88 284/291 283/290 279/287
f 280/88 59/87 58/100 284/291
f 249/265 256/264 255/292 262/293
f 284/291 287/294 286/295 283/290
f 284/291 58/100 56/106 287/294
f 304/296 62/110 61/109 303/297
f 303/297 289/298 294/299 304/296
f 289/298 290/300 295/301 294/299
f 290/300 292/302 297/303 295/301
f 292/302 291/304 296/305 297/303
f 291/304 288/306 293/307 296/305
f 247/308 248/309 262/293 255/292
f 304/296 305/310 63/123 62/110
f 295/301 299/311 298/312 294/299
f 305/310 306/313 64/127 63/123
f 299/311 301/314 300/315 298/312
f 322/316 307/317 65/133 150/132
f 241/318 249/265 262/293 248/309
f 294/299 298/312 305/310 304/296
f 298/312 300/315 306/313 305/310
f 321/319 302/320 307/317 322/316
f 308/321 309/322 67/140 66/139
f 308/321 312/323 313/324 309/322
f 250/262 249/265 241/318 242/325
f 251/266 250/262 242/325 243/326
f 252/268 251/266 243/326 244/327
f 253/260 252/268 244/327 245/261
f 255/292 285/328 269/329 247/308
f 309/322 317/330 70/149 67/140
f 309/322 313/324 316/331 317/330
f 307/317 302/320 312/323 308/321
f 308/321 66/139 65/133 307/317
f 310/332 314/333 315/334 311/335
f 311/335 69/157 68/156 310/332
f 311/335 315/334 286/295 287/294
f 69/157 311/335 287/294 56/106
f 310/336 68/159 70/149 317/330
f 317/330 316/331 314/337 310/336
f 295/301 318/338 319/339 299/311
f 295/301 297/303 296/305 318/338
f 306/313 322/316 150/132 64/127
f 299/311 319/339 320/340 301/314
f 300/315 321/319 322/316 306/313
f 301/314 320/340 321/319 300/315
f 283/290 286/295 281/289 282/288
f 303/297 328/341 324/342 289/298
f 291/304 326/343 323/344 288/306
f 289/298 324/342 325/345 290/300
f 290/300 325/345 327/346 292/302
f 292/302 327/346 326/343 291/304
f 320/340 349/347 350/348 321/319
f 318/338 347/349 348/350 319/339
f 281/289 336/351 335/352 277/284
f 319/339 348/350 349/347 320/340
f 302/320 341/353 342/354 312/323
f 316/331 346/355 344/356 314/337
f 321/319 350/348 341/353 302/320
f 296/305 340/357 347/349 318/338
f 276/285 334/358 333/359 271/279
f 277/284 335/352 334/358 276/285
f 286/295 338/360 336/351 281/289
f 263/274 331/361 330/362 256/264
f 293/307 339/363 340/357 296/305
f 314/333 344/364 345/365 315/334
f 256/264 330/362 329/366 255/292
f 312/323 342/354 343/367 313/324
f 313/324 343/367 346/355 316/331
f 315/334 345/365 338/360 286/295
f 270/280 332/368 331/361 263/274
f 271/279 333/359 332/368 270/280
f 255/292 329/366 337/369 285/328
f 269/329 359/370 357/371 247/308
f 247/308 357/371 358/372 248/309
f 243/326 353/373 354/374 244/327
f 248/309 358/372 351/375 241/318
f 244/327 354/374 355/376 245/261
f 242/325 352/377 353/373 243/326
f 245/261 355/376 356/378 246/71
f 241/318 351/375 352/377 242/325
f 288/379 360/380 361/381 293/382
f 400/383 402/384 403/385 401/386
f 362/387 367/388 365/389 363/390
f 363/390 365/389 293/382 361/381
f 365/389 366/391 339/392 293/382
f 360/380 288/379 367/388 362/387
f 288/379 323/393 368/394 367/388
f 368/394 371/395 370/396 367/388
f 367/388 370/396 364/397 365/389
f 365/389 364/397 369/398 366/391
f 371/395 375/399 374/400 370/396
f 370/396 374/400 372/401 364/397
f 364/397 372/401 373/402 369/398
f 269/403 376/404 379/405 359/406
f 337/407 378/408 377/409 285/410
f 377/409 387/411 385/412 285/410
f 376/404 380/413 383/414 379/405
f 378/408 382/415 381/416 377/409
f 377/409 381/416 380/413 376/404
f 269/403 384/417 386/418 376/404
f 376/404 386/418 387/411 377/409
f 285/410 385/412 384/417 269/403
f 405/419 407/420 406/421 404/422
f 380/413 388/423 391/424 383/414
f 382/415 390/425 389/426 381/416
f 381/416 389/426 388/423 380/413
f 375/399 395/427 394/428 374/400
f 374/400 394/428 392/429 372/401
f 372/401 392/429 393/430 373/402
f 395/427 399/431 398/432 394/428
f 394/428 398/432 396/433 392/429
f 392/429 396/433 397/434 393/430
f 391/424 388/423 398/432 399/431
f 389/426 390/425 397/434 396/433
f 388/423 389/426 396/433 398/432
f 401/386 361/381 360/380 400/383
f 402/384 362/387 363/390 403/385
f 400/383 360/380 362/387 402/384
f 403/385 363/390 361/381 401/386
f 404/422 384/417 385/412 405/419
f 407/420 387/411 386/418 406/421
f 406/421 386/418 384/417 404/422
f 405/419 385/412 387/411 407/420
f 246/71 356/378 183/194 53/55
f 61/109 154/170 328/341 303/297
f 416/435 419/436 409/437 408/438
f 421/439 423/440 411/441 410/442
f 431/443 426/444 410/442 411/441
f 429/445 424/446 413/447 412/448
f 412/448 413/447 418/449 417/450
f 417/450 418/449 419/436 416/435
f 414/451 415/452 422/453 420/454
f 420/454 422/453 423/440 421/439
f 408/438 409/437 427/455 430/456
f 430/456 427/455 426/444 431/443
f 415/452 414/451 425/457 428/458
f 428/458 425/457 424/446 429/445
f 430/456 431/443 443/459 442/460
f 408/438 430/456 442/460 432/461
f 428/458 429/445 441/462 440/463
f 415/452 428/458 440/463 435/464
f 423/440 422/453 438/465 439/466
f 422/453 415/452 435/464 438/465
f 417/450 416/435 436/467 437/468
f 416/435 408/438 432/461 436/467
f 431/443 411/441 433/469 443/459
f 429/445 412/448 434/470 441/462
f 411/441 423/440 439/466 433/469
f 412/448 417/450 437/468 434/470
f 442/460 443/459 455/471 454/472
f 432/461 442/460 454/472 444/473
f 440/463 441/462 453/474 452/475
f 435/464 440/463 452/475 447/476
f 439/466 438/465 450/477 451/478
f 438/465 435/464 447/476 450/477
f 437/468 436/467 448/479 449/480
f 436/467 432/461 444/473 448/479
f 443/459 433/469 445/481 455/471
f 441/462 434/470 446/482 453/474
f 433/469 439/466 451/478 445/481
f 434/470 437/468 449/480 446/482
f 449/480 456/483 453/474 446/482
f 450/477 447/476 452/475 457/484
f 451/478 459/485 455/471 445/481
f 448/479 444/473 454/472 458/486
f 448/479 458/486 456/483 449/480
f 453/474 456/483 457/484 452/475
f 451/478 450/477 457/484 459/485
f 454/472 455/471 459/485 458/486
f 456/483 458/486 459/485 457/484
f 468/487 471/488 461/489 460/490
f 473/491 475/492 463/493 462/494
f 483/495 478/496 462/494 463/493
f 481/497 476/498 465/499 464/500
f 464/500 465/499 470/501 469/502
f 469/502 470/501 471/488 468/487
f 466/503 467/504 474/505 472/506
f 472/506 474/505 475/492 473/491
f 460/490 461/489 479/507 482/508
f 482/508 479/507 478/496 483/495
f 467/504 466/503 477/509 480/510
f 480/510 477/509 476/498 481/497
f 482/508 483/495 495/511 494/512
f 460/490 482/508 494/512 484/513
f 480/510 481/497 493/514 492/515
f 467/504 480/510 492/515 487/516
f 475/492 474/505 490/517 491/518
f 474/505 467/504 487/516 490/517
f 469/502 468/487 488/519 489/520
f 468/487 460/490 484/513 488/519
f 483/495 463/493 485/521 495/511
f 481/497 464/500 486/522 493/514
f 463/493 475/492 491/518 485/521
f 464/500 469/502 489/520 486/522
f 494/512 495/511 507/523 506/524
f 484/513 494/512 506/524 496/525
f 492/515 493/514 505/526 504/527
f 487/516 492/515 504/527 499/528
f 491/518 490/517 502/529 503/530
f 490/517 487/516 499/528 502/529
f 489/520 488/519 500/531 501/532
f 488/519 484/513 496/525 500/531
f 495/511 485/521 497/533 507/523
f 493/514 486/522 498/534 505/526
f 485/521 491/518 503/530 497/533
f 486/522 489/520 501/532 498/534
f 501/532 508/535 505/526 498/534
f 502/529 499/528 504/527 509/536
f 503/530 511/537 507/523 497/533
f 500/531 496/525 506/524 510/538
f 500/531 510/538 508/535 501/532
f 505/526 508/535 509/536 504/527
f 503/530 502/529 509/536 511/537
f 506/524 507/523 511/537 510/538
f 508/535 510/538 511/537 509/536
f 520/539 523/540 513/541 512/542
f 525/543 527/544 515/545 514/546
f 535/547 530/548 514/546 515/545
f 533/549 528/550 517/551 516/552
f 516/552 517/551 522/553 521/554
f 521/554 522/553 523/540 520/539
f 518/555 519/556 526/557 524/558
f 524/558 526/557 527/544 525/543
f 512/542 513/541 531/559 534/560
f 534/560 531/559 530/548 535/547
f 519/556 518/555 529/561 532/562
f 532/562 529/561 528/550 533/549
f 534/560 535/547 547/563 546/564
f 512/542 534/560 546/564 536/565
f 532/562 533/549 545/566 544/567
f 519/556 532/562 544/567 539/568
f 527/544 526/557 542/569 543/570
f 526/557 519/556 539/568 542/569
f 521/554 520/539 540/571 541/572
f 520/539 512/542 536/565 540/571
f 535/547 515/545 537/573 547/563
f 533/549 516/552 538/574 545/566
f 515/545 527/544 543/570 537/573
f 516/552 521/554 541/572 538/574
f 546/564 547/563 559/575 558/576
f 536/565 546/564 558/576 548/577
f 544/567 545/566 557/578 556/579
f 539/568 544/567 556/579 551/580
f 543/570 542/569 554/581 555/582
f 542/569 539/568 551/580 554/581
f 541/572 540/571 552/583 553/584
f 540/571 536/565 548/577 552/583
f 547/563 537/573 549/585 559/575
f 545/566 538/574 550/586 557/578
f 537/573 543/570 555/582 549/585
f 538/574 541/572 553/584 550/586
f 553/584 560/587 557/578 550/586
f 554/581 551/580 556/579 561/588
f 555/582 563/589 559/575 549/585
f 552/583 548/577 558/576 562/590
f 552/583 562/590 560/587 553/584
f 557/578 560/587 561/588 556/579
f 555/582 554/581 561/588 563/589
f 558/576 559/575 563/589 562/590
f 560/587 562/590 563/589 561/588
f 572/591 575/592 565/593 564/594
f 577/595 579/596 567/597 566/598
f 587/599 582/600 566/598 567/597
f 585/601 580/602 569/603 568/604
f 568/604 569/603 574/605 573/606
f 573/606 574/605 575/592 572/591
f 570/607 571/608 578/609 576/610
f 576/610 578/609 579/596 577/595
f 564/594 565/593 583/611 586/612
f 586/612 583/611 582/600 587/599
f 571/608 570/607 581/613 584/614
f 584/614 581/613 580/602 585/601
f 586/612 587/599 599/615 598/616
f 564/594 586/612 598/616 588/617
f 584/614 585/601 597/618 596/619
f 571/608 584/614 596/619 591/620
f 579/596 578/609 594/621 595/622
f 578/609 571/608 591/620 594/621
f 573/606 572/591 592/623 593/624
f 572/591 564/594 588/617 592/623
f 587/599 567/597 589/625 599/615
f 585/601 568/604 590/626 597/618
f 567/597 579/596 595/622 589/625
f 568/604 573/606 593/624 590/626
f 598/616 599/615 611/627 610/628
f 588/617 598/616 610/628 600/629
f 596/619 597/618 609/630 608/631
f 591/620 596/619 608/631 603/632
f 595/622 594/621 606/633 607/634
f 594/621 591/620 603/632 606/633
f 593/624 592/623 604/635 605/636
f 592/623 588/617 600/629 604/635
f 599/615 589/625 601/637 611/627
f 597/618 590/626 602/638 609/630
f 589/625 595/622 607/634 601/637
f 590/626 593/624 605/636 602/638
f 605/636 612/639 609/630 602/638
f 606/633 603/632 608/631 613/640
f 607/634 615/641 611/627 601/637
f 604/635 600/629 610/628 614/642
f 604/635 614/642 612/639 605/636
f 609/630 612/639 613/640 608/631
f 607/634 606/633 613/640 615/641
f 610/628 611/627 615/641 614/642
f 612/639 614/642 615/641 613/640
f 624/643 627/644 617/645 616/646
f 629/647 631/648 619/649 618/650
f 639/651 634/652 618/650 619/649
f 637/653 632/654 621/655 620/656
f 620/656 621/655 626/657 625/658
f 625/658 626/657 627/644 624/643
f 622/659 623/660 630/661 628/662
f 628/662 630/661 631/648 629/647
f 616/646 617/645 635/663 638/664
f 638/664 635/663 634/652 639/651
f 623/660 622/659 633/665 636/666
f 636/666 633/665 632/654 637/653
f 638/664 639/651 651/667 650/668
f 616/646 638/664 650/668 640/669
f 636/666 637/653 649/670 648/671
f 623/660 636/666 648/671 643/672
f 631/648 630/661 646/673 647/674
f 630/661 623/660 643/672 646/673
f 625/658 624/643 644/675 645/676
f 624/643 616/646 640/669 644/675
f 639/651 619/649 641/677 651/667
f 637/653 620/656 642/678 649/670
f 619/649 631/648 647/674 641/677
f 620/656 625/658 645/676 642/678
f 650/668 651/667 663/679 662/680
f 640/669 650/668 662/680 652/681
f 648/671 649/670 661/682 660/683
f 643/672 648/671 660/683 655/684
f 647/674 646/673 658/685 659/686
f 646/673 643/672 655/684 658/685
f 645/676 644/675 656/687 657/688
f 644/675 640/669 652/681 656/687
f 651/667 641/677 653/689 663/679
f 649/670 642/678 654/690 661/682
f 641/677 647/674 659/686 653/689
f 642/678 645/676 657/688 654/690
f 657/688 664/691 661/682 654/690
f 658/685 655/684 660/683 665/692
f 659/686 667/693 663/679 653/689
f 656/687 652/681 662/680 666/694
f 656/687 666/694 664/691 657/688
f 661/682 664/691 665/692 660/683
f 659/686 658/685 665/692 667/693
f 662/680 663/679 667/693 666/694
f 664/691 666/694 667/693 665/692