# Exported from MakeClothes (TM)
# author punkduck
# license CC BY 3.0
# homepage http://www.makehuman.org/
v 1.5994 0.6480 0.7009
v 1.5782 0.6788 0.8021
v 1.5305 0.9515 0.7944
v 1.5450 0.9553 0.8143
v 1.5205 0.9582 0.8242
v 1.5065 1.1151 0.7141
v 1.4949 1.1111 0.6970
v 1.4311 1.2525 0.6983
v 1.4261 1.2509 0.6919
v 1.4829 1.1149 0.7207
v 1.4225 1.2524 0.7008
v 1.4545 1.1122 0.7746
v 1.4150 1.2559 0.7213
v 1.4683 1.1164 0.7906
v 1.4206 1.2574 0.7273
v 1.4420 1.1164 0.7983
v 1.4123 1.2574 0.7301
v 1.6154 0.6573 0.7134
v 1.5994 0.6534 0.7197
v 1.5886 0.6685 0.7672
v 1.6025 0.6808 0.7879
v 1.6069 0.8045 0.7370
v 1.5925 0.8007 0.7173
v 1.5828 0.8074 0.7446
v 1.5599 0.8231 0.8142
v 1.5748 0.8271 0.8348
v 1.5501 0.8302 0.8462
v 1.5761 0.9327 0.7277
v 1.5621 0.9291 0.7062
v 1.5521 0.9354 0.7361
v 1.3591 0.7967 1.0237
v 1.3635 0.8211 1.0323
v 1.3704 0.8060 1.0286
v 1.3746 0.9043 1.0352
v 1.4183 1.1498 0.9123
v 1.3165 1.0778 1.0150
v 1.3321 0.9235 1.0580
v 1.4415 1.0927 0.8348
v 1.3798 0.8923 1.0370
v 1.3612 0.8842 1.0313
v 1.4197 1.1440 0.8999
v 1.4277 1.1062 0.8638
v 1.4448 1.0995 0.8624
v 1.4121 1.1382 0.8971
v 1.3234 1.1412 1.0784
v 1.3025 0.8309 1.1110
v 1.3118 0.8413 1.1113
v 1.3015 0.8474 1.1062
v 1.3239 0.8972 1.0659
v 1.3334 0.9094 1.0680
v 1.3158 1.0836 1.0209
v 1.3143 1.1275 1.0632
v 1.3044 1.0841 1.0274
v 1.3252 1.1313 1.0727
v 1.4402 1.2510 0.7892
v 1.4608 1.2088 0.7459
v 1.4492 1.2508 0.7834
v 1.4431 1.2194 0.7589
v 1.4379 1.2449 0.7775
v 1.4292 1.2178 0.7471
v 1.4148 1.2819 0.7599
v 1.4247 1.2769 0.7603
v 1.4185 1.2704 0.7527
v 1.4186 1.2331 0.7477
v 1.4320 1.2280 0.7488
v 1.3162 0.9912 1.0618
v 1.2876 1.0051 1.1604
v 1.3142 0.9928 1.0705
v 1.2843 1.0014 1.1398
v 1.2978 0.9915 1.0699
v 1.2960 1.0046 1.1511
v 1.3866 0.9566 0.9805
v 1.3971 0.8893 0.9263
v 1.3925 0.9470 0.9744
v 1.4086 0.8992 0.9369
v 1.3956 0.9065 0.9416
v 1.3793 0.9432 0.9684
v 1.4039 1.1545 0.9200
v 1.3998 1.2275 0.9515
v 1.3887 1.1658 0.9240
v 1.4062 1.2185 0.9482
v 1.3949 1.2115 0.9443
v 1.4042 1.1627 0.9238
v 1.3038 0.9519 1.0772
v 1.3214 0.9561 1.0678
v 1.2844 0.9322 1.1600
v 1.3203 0.9535 1.0792
v 1.2830 0.9352 1.1446
v 1.2954 0.9346 1.1552
v 1.4856 1.3040 0.6097
v 1.3983 1.3103 0.6052
v 1.4906 1.2501 0.6017
v 1.4759 1.2266 0.6024
v 1.4305 1.2310 0.6006
v 1.4331 1.2932 0.7172
v 1.3628 1.2961 0.7082
v 1.4432 1.2226 0.7141
v 1.4380 1.2074 0.7078
v 1.3907 1.2128 0.6992
v 1.4063 1.2113 0.6466
v 1.4707 1.2029 0.6525
v 1.4781 1.2225 0.6540
v 1.4575 1.3048 0.6639
v 1.3753 1.3156 0.6583
v 1.3811 1.2285 0.7067
v 1.4305 1.2488 0.5982
v 1.5764 0.9663 0.2584
v 1.5148 0.9687 0.0747
v 1.5787 0.9835 0.2568
v 1.5828 0.9764 0.2537
v 1.5465 1.1509 0.1902
v 1.5376 1.0416 0.1602
v 1.5557 1.0559 0.2430
v 1.5076 1.2211 0.1202
v 1.5552 1.1633 0.1839
v 1.5345 1.1621 0.1746
v 1.5188 1.2142 0.1251
v 1.5165 1.1970 0.1303
v 1.5430 1.0274 0.1456
v 1.5644 1.0469 0.2441
v 1.5329 1.0083 0.1368
v 1.5213 0.9768 0.0938
v 1.5608 1.0336 0.2476
v 1.5253 0.9757 0.0848
v 1.6149 1.1255 0.4072
v 1.6201 1.1363 0.3958
v 1.6039 1.1395 0.3917
v 1.5215 1.1888 0.2855
v 1.4916 1.2848 0.2916
v 1.5283 1.2025 0.2904
v 1.4991 1.2631 0.2888
v 1.5079 1.2747 0.2902
v 1.5177 1.2086 0.2918
v 1.5466 1.2469 0.5117
v 1.5593 1.1954 0.3552
v 1.4661 1.2841 0.5584
v 1.5169 1.3014 0.5121
v 1.4806 1.2370 0.5887
v 1.4554 1.2680 0.4835
v 1.5369 1.2854 0.5077
v 1.5419 1.2596 0.5083
v 1.5102 1.2996 0.4773
v 1.5709 1.1747 0.3677
v 1.5747 1.1858 0.3623
v 1.4785 1.2469 0.5758
v 1.4662 1.2737 0.5637
v 1.4718 1.2740 0.5540
v 1.5452 1.1002 0.1607
v 1.5098 1.0916 0.0515
v 1.5555 1.0980 0.1472
v 1.5185 1.0895 0.0730
v 1.5367 1.0946 0.1374
v 1.5236 1.0904 0.0620
v 1.5401 1.0318 0.2020
v 1.5522 0.9488 0.1736
v 1.5494 1.0216 0.1974
v 1.5532 0.9625 0.1781
v 1.5442 1.0048 0.1934
v 1.5595 0.9591 0.1758
v 1.5969 0.6858 0.6122
v 1.6675 0.7339 0.4618
v 1.5050 1.1548 0.5715
v 1.4976 1.1787 0.5183
v 1.4429 1.2803 0.6120
v 1.5139 1.1866 0.5067
v 1.4542 1.2856 0.6044
v 1.4950 1.1889 0.4955
v 1.4434 1.2895 0.6012
v 1.5084 1.1445 0.5943
v 1.5243 1.1529 0.5817
v 1.4515 1.2447 0.6156
v 1.4594 1.2562 0.6167
v 1.4480 1.2598 0.6140
v 1.6107 0.6978 0.6019
v 1.5843 0.6942 0.5829
v 1.6278 0.7188 0.5079
v 1.6683 0.7346 0.4878
v 1.6327 0.8292 0.5759
v 1.6598 0.8396 0.5631
v 1.6464 0.8412 0.5443
v 1.6697 0.8691 0.4673
v 1.6912 0.8788 0.4572
v 1.6743 0.8813 0.4368
v 1.6022 0.9668 0.5765
v 1.6239 0.9772 0.5649
v 1.6071 0.9788 0.5465
v 1.6182 1.0069 0.4764
v 1.6396 1.0165 0.4665
v 1.6229 1.0189 0.4461
v -1.6049 0.6521 0.7333
v -1.5665 0.6788 0.8613
v -1.5085 0.9500 0.8220
v -1.5232 0.9544 0.8421
v -1.4980 0.9575 0.8541
v -1.4797 1.1120 0.7407
v -1.4661 1.1072 0.7227
v -1.3922 1.2509 0.7266
v -1.3872 1.2490 0.7198
v -1.4573 1.1119 0.7490
v -1.3833 1.2508 0.7296
v -1.4226 1.1109 0.8085
v -1.3722 1.2549 0.7525
v -1.4353 1.1157 0.8249
v -1.3769 1.2567 0.7588
v -1.4044 1.1159 0.8340
v -1.3674 1.2568 0.7623
v -1.6174 0.6644 0.7491
v -1.5958 0.6597 0.7653
v -1.5769 0.6681 0.8282
v -1.5909 0.6807 0.8471
v -1.5925 0.8019 0.7586
v -1.5779 0.7971 0.7370
v -1.5684 0.8048 0.7684
v -1.5450 0.8223 0.8416
v -1.5597 0.8269 0.8613
v -1.5346 0.8300 0.8730
v -1.5560 0.9291 0.7484
v -1.5418 0.9244 0.7261
v -1.5315 0.9319 0.7586
v -1.3357 0.7968 1.0449
v -1.3396 0.8213 1.0528
v -1.3471 0.8062 1.0500
v -1.3397 0.9043 1.0529
v -1.3758 1.1512 0.9486
v -1.2787 1.0748 1.0316
v -1.3050 0.9223 1.0727
v -1.4026 1.0928 0.8716
v -1.3447 0.8925 1.0556
v -1.3358 0.8844 1.0491
v -1.3761 1.1454 0.9364
v -1.3860 1.1070 0.9005
v -1.4071 1.1002 0.8994
v -1.3672 1.1395 0.9331
v -1.2804 1.1410 1.0960
v -1.2605 0.8256 1.1402
v -1.2715 0.8361 1.1396
v -1.2737 0.8469 1.1234
v -1.2976 0.8965 1.0797
v -1.3066 0.9087 1.0826
v -1.2774 1.0808 1.0373
v -1.2705 1.1266 1.0788
v -1.2636 1.0810 1.0411
v -1.2831 1.1309 1.0901
v -1.3801 1.2733 0.7984
v -1.4163 1.2351 0.7536
v -1.3899 1.2698 0.7964
v -1.3940 1.2455 0.7662
v -1.3812 1.2668 0.7862
v -1.4404 1.2391 0.7739
v -1.3799 1.2244 0.7809
v -1.3546 1.2894 0.7947
v -1.3656 1.2843 0.7981
v -1.3624 1.2777 0.7870
v -1.3667 1.2398 0.7820
v -1.3817 1.2347 0.7857
v -1.2828 0.9881 1.0735
v -1.2468 1.0045 1.1614
v -1.2806 0.9898 1.0812
v -1.2445 1.0000 1.1393
v -1.2629 0.9877 1.0767
v -1.2565 1.0038 1.1539
v -1.3610 0.9562 1.0039
v -1.3745 0.8898 0.9517
v -1.3674 0.9469 0.9981
v -1.3858 0.8997 0.9625
v -1.3720 0.9070 0.9660
v -1.3538 0.9428 0.9909
v -1.3597 1.1559 0.9554
v -1.3486 1.2287 0.9897
v -1.3405 1.1672 0.9588
v -1.3575 1.2197 0.9860
v -1.3433 1.2128 0.9817
v -1.3598 1.1642 0.9593
v -1.2735 0.9494 1.0859
v -1.2918 0.9540 1.0806
v -1.2499 0.9317 1.1664
v -1.2905 0.9516 1.0912
v -1.2495 0.9343 1.1498
v -1.2631 0.9342 1.1627
v -1.4469 1.3008 0.6265
v -1.3688 1.3066 0.6235
v -1.4412 1.2458 0.6185
v -1.4221 1.2218 0.6199
v -1.3799 1.2259 0.6188
v -1.3981 1.2928 0.7460
v -1.3306 1.2954 0.7383
v -1.4218 1.2210 0.7430
v -1.4175 1.2054 0.7364
v -1.3681 1.2104 0.7284
v -1.3637 1.2074 0.6705
v -1.4254 1.1994 0.6752
v -1.4352 1.2194 0.6764
v -1.4288 1.3119 0.6874
v -1.3609 1.3138 0.6822
v -1.3579 1.2266 0.7368
v -1.3814 1.2440 0.6161
v -1.5558 0.9330 0.2545
v -1.4730 0.9527 0.0813
v -1.5579 0.9504 0.2523
v -1.5623 0.9430 0.2495
v -1.5222 1.1254 0.1798
v -1.4975 1.0321 0.1577
v -1.5376 1.0282 0.2358
v -1.4843 1.1890 0.1068
v -1.5330 1.1361 0.1733
v -1.5099 1.1370 0.1637
v -1.4962 1.1828 0.1123
v -1.4930 1.1682 0.1180
v -1.5030 1.0187 0.1445
v -1.5482 1.0181 0.2372
v -1.4888 1.0013 0.1390
v -1.4769 0.9656 0.1000
v -1.5350 1.0042 0.2412
v -1.4833 0.9622 0.0903
v -1.4608 1.1287 0.4664
v -1.4653 1.1393 0.4591
v -1.5037 1.1335 0.4523
v -1.5136 1.1621 0.2911
v -1.4935 1.2627 0.2783
v -1.5279 1.1891 0.2771
v -1.4967 1.2397 0.2756
v -1.5063 1.2521 0.2772
v -1.5084 1.1900 0.2772
v -1.4360 1.2372 0.5832
v -1.4477 1.1956 0.4108
v -1.4016 1.2802 0.6106
v -1.4260 1.2952 0.5791
v -1.4056 1.2588 0.6777
v -1.4416 1.2429 0.5745
v -1.4305 1.2786 0.5828
v -1.4333 1.2524 0.5837
v -1.4325 1.2874 0.5690
v -1.4812 1.1589 0.4183
v -1.4693 1.1782 0.4147
v -1.4088 1.2498 0.6503
v -1.4347 1.2353 0.6326
v -1.4285 1.2538 0.6109
v -1.4101 1.2674 0.6034
v -1.5145 1.0845 0.1529
v -1.4770 1.0745 0.0485
v -1.5263 1.0820 0.1399
v -1.4843 1.0763 0.0696
v -1.5037 1.0825 0.1310
v -1.4913 1.0745 0.0584
v -1.5043 1.0135 0.1969
v -1.5243 0.9193 0.1731
v -1.5157 1.0023 0.1926
v -1.5238 0.9360 0.1766
v -1.5095 0.9855 0.1898
v -1.5316 0.9308 0.1746
v -1.6690 0.6779 0.5650
v -1.6741 0.7185 0.4353
v -1.4473 1.1471 0.5847
v -1.4416 1.1684 0.5255
v -1.3968 1.2765 0.6309
v -1.4499 1.1759 0.5122
v -1.3968 1.2817 0.6220
v -1.4320 1.1774 0.5000
v -1.3873 1.2854 0.6188
v -1.4539 1.1376 0.6099
v -1.4704 1.1457 0.5953
v -1.3984 1.2405 0.6350
v -1.4083 1.2523 0.6358
v -1.3979 1.2558 0.6332
v -1.6833 0.6895 0.5533
v -1.6619 0.6844 0.5303
v -1.6697 0.7054 0.4678
v -1.6897 0.7209 0.4557
v -1.6341 0.8190 0.5699
v -1.6555 0.8292 0.5576
v -1.6380 0.8293 0.5385
v -1.6484 0.8532 0.4656
v -1.6701 0.8629 0.4553
v -1.6533 0.8635 0.4345
v -1.5801 0.9561 0.5848
v -1.6018 0.9663 0.5716
v -1.5849 0.9664 0.5521
v -1.5966 0.9906 0.4762
v -1.6182 1.0003 0.4652
v -1.6015 1.0008 0.4438
v 1.3907 1.2128 0.6992
v 1.4053 1.3103 0.6052
v 1.4802 1.3040 0.6097
v 1.4846 1.2501 0.6017
v 1.3515 1.2961 0.7082
v 1.4719 1.2266 0.6024
v 1.4330 1.2310 0.6006
v -1.3681 1.2104 0.7284
v -1.3688 1.3066 0.6235
v -1.4469 1.3008 0.6265
v -1.4412 1.2458 0.6185
v -1.3306 1.2954 0.7383
v -1.4221 1.2218 0.6199
v -1.3799 1.2259 0.6188
v -0.0120 -0.3057 -0.7376
v -0.0183 -0.4640 -0.6204
v -0.0099 -0.0955 -0.8339
v -0.0096 0.1588 -0.8828
v -0.0199 -0.5188 -0.5759
v -0.0071 0.3857 -0.8759
v -0.0213 -0.6141 -0.5133
v -0.0126 -0.7064 -0.3698
v -0.0098 -0.3583 1.1374
v -0.0097 -0.4867 1.0748
v -0.0087 -0.5786 0.9866
v -0.0070 -0.6563 0.8878
v -0.0044 -0.7240 0.7825
v -0.0016 -0.7807 0.6715
v 0.0026 -0.8620 0.4325
v 0.0033 -0.8889 0.3062
v 0.0034 -0.9034 0.1836
v 0.0024 -0.8849 0.0952
v 0.0009 -0.8264 0.5549
v -0.0090 -0.1966 1.1835
v -0.0068 -0.0270 1.2233
v -0.0032 0.2211 1.2106
v -0.0046 -0.7544 -0.1737
v -0.0017 -0.8196 -0.0699
v 0.0008 -0.8567 0.0280
v 0.0001 0.6314 -0.7424
v -0.0040 0.5699 -0.7898
v -0.0043 0.1551 1.2391
v -0.0035 0.1765 1.2472
v -0.0033 0.2051 1.2439
v -0.0034 0.5915 -0.7954
v -0.0016 0.6236 -0.7795
v -0.1305 -0.4267 -0.6969
v -0.2291 -0.2849 -0.8136
v -0.1505 -0.0868 -0.8873
v -0.1551 0.1359 -0.9094
v -0.1044 -0.5472 -0.6018
v -0.1551 0.3545 -0.8888
v -0.2966 0.5738 -0.8102
v -0.3043 0.3433 -0.9030
v -0.8181 0.2260 -0.8670
v -0.9523 0.4696 -0.7548
v -0.7656 0.4704 -0.8230
v -0.5993 0.4718 -0.8519
v -0.6643 0.2682 -0.8966
v -0.5989 0.0574 -0.9288
v -0.4455 -0.3442 -0.8328
v -0.4591 -0.5229 -0.7294
v -0.4769 0.3425 -0.9030
v -0.4480 0.0932 -0.9387
v -0.4126 -0.1302 -0.9159
v -0.3989 -0.6026 -0.6678
v -0.2183 -0.5640 -0.6139
v -0.2696 -0.4597 -0.7093
v -0.3407 -0.3178 -0.8234
v -0.2848 -0.1092 -0.9051
v -0.3013 0.1169 -0.9278
v -0.1295 -0.6591 -0.4933
v -0.2315 -0.6751 -0.5039
v -0.3153 -0.7035 -0.5408
v -0.1130 -0.7465 -0.3484
v -0.1984 -0.7782 -0.3692
v -0.1751 -0.8431 -0.2083
v -0.2465 -0.7754 -0.3422
v -0.1028 -0.3540 1.1317
v -0.0820 -0.4832 1.0710
v -0.2064 -0.3426 1.1245
v -0.1634 -0.4734 1.0626
v -0.3044 -0.3393 1.1156
v -0.2415 -0.4623 1.0480
v -0.4383 -0.3383 1.1098
v -0.3558 -0.4625 1.0359
v -0.0683 -0.5760 0.9839
v -0.0569 -0.6541 0.8855
v -0.1321 -0.5683 0.9769
v -0.1933 -0.5591 0.9660
v -0.2836 -0.5582 0.9546
v -0.1557 -0.6402 0.8735
v -0.1077 -0.6475 0.8799
v -0.2308 -0.6335 0.8751
v -0.0390 -0.7779 0.6697
v -0.0469 -0.7218 0.7803
v -0.0886 -0.7157 0.7744
v -0.1269 -0.7096 0.7655
v -0.0756 -0.7709 0.6655
v -0.0301 -0.8577 0.4343
v -0.0297 -0.8839 0.3082
v -0.0271 -0.8991 0.1835
v -0.0286 -0.8853 0.0867
v -0.0960 -0.8740 0.2783
v -0.0890 -0.8862 0.1712
v -0.0331 -0.8229 0.5547
v -0.0658 -0.8150 0.5559
v -0.1272 -0.1918 1.1779
v -0.2613 -0.1685 1.1752
v -0.3902 -0.1899 1.1670
v -0.5428 -0.1885 1.1534
v -0.1316 -0.0226 1.2209
v -0.3441 -0.0425 1.2059
v -0.4666 -0.0156 1.2095
v -0.6292 -0.0442 1.1739
v -0.1741 0.1884 1.2395
v -0.4240 0.1544 1.2358
v -0.5681 0.1542 1.2361
v -0.2931 0.0841 1.2262
v -0.2242 -0.0371 1.2145
v -0.0982 -0.7978 -0.1875
v -0.1098 -0.8630 -0.0688
v -0.0842 -0.8467 -0.0666
v -0.0468 -0.8232 -0.0645
v -0.0349 -0.8601 0.0360
v -0.5726 0.6697 -0.7123
v -0.7573 0.6676 -0.7376
v -0.9167 0.6026 -0.7054
v -1.1128 0.6464 -0.5598
v -0.1849 -0.6926 0.7637
v -0.1668 -0.7619 0.6229
v -0.1467 -0.7539 0.6555
v -0.0942 -0.8066 0.5570
v -0.0841 -0.8372 0.4685
v -0.0618 -0.8485 0.4430
v -0.1148 -0.8470 0.3886
v -0.0967 -0.8449 0.4196
v -0.0905 -0.8782 0.0747
v -0.7588 0.3829 1.2007
v -0.8627 0.4339 1.1711
v -0.3562 0.2530 1.2439
v -0.1375 -0.7994 0.5253
v -0.1182 -0.8022 0.5406
v -0.0713 -0.8689 0.0334
v -0.0955 -0.8744 0.0315
v -0.3929 -0.6770 -0.5248
v -0.2138 -0.6807 0.7082
v -0.1815 -0.7398 0.5741
v -0.1490 -0.7639 0.4874
v -0.1259 -0.8113 0.3642
v -0.1117 -0.8240 0.2620
v -0.1091 -0.8290 0.1622
v -0.1100 -0.8287 0.0859
v -0.1402 -0.7981 -0.0697
v -0.1105 -0.8366 0.0467
v -0.1593 -0.7048 0.7552
v -0.1103 -0.7629 0.6587
v -0.0685 -0.8723 0.3202
v -0.0613 -0.8912 0.1826
v -0.0632 -0.8821 0.0848
v -0.7310 0.0273 -0.9112
v -0.6415 -0.1717 -0.9202
v -0.5381 -0.3732 -0.8533
v -1.2668 1.2907 0.7443
v -1.3393 1.1669 0.7537
v -1.2866 1.0911 0.8503
v -1.2175 1.2292 0.8512
v -1.3341 1.3356 0.6414
v -1.3953 1.2256 0.6461
v -0.6886 0.5141 1.2337
v -0.8115 0.5233 1.2023
v -1.0070 0.6806 1.1668
v -0.7695 0.6823 1.2173
v -1.4026 0.9408 -0.0571
v -0.8591 0.7722 -0.5842
v -1.3466 1.3564 0.5343
v -1.4607 1.2009 0.4106
v -1.4695 1.1482 0.2876
v -1.3796 1.3396 0.4325
v -1.4057 1.3185 0.3102
v -1.3949 1.2554 0.1580
v -1.4540 1.0591 0.1221
v -1.2436 1.0226 0.9252
v -1.3199 1.1344 -0.0339
v -0.6614 0.5599 1.2205
v -0.8526 0.7988 1.2088
v -1.2835 1.1476 0.8559
v -0.9054 0.6487 1.1940
v -0.9437 0.5665 1.1696
v -0.8907 0.8839 1.1912
v -0.9738 0.7461 1.1852
v -0.9591 0.9465 1.1725
v -1.0358 0.8306 1.1631
v -1.0717 0.7806 1.1276
v -1.0006 1.0143 1.1212
v -1.0972 0.9059 1.1103
v -1.1385 0.8545 1.0617
v -1.0569 1.0917 1.0619
v -1.1641 0.9909 1.0376
v -1.1930 0.9313 0.9972
v -1.1356 1.1806 0.9377
v -1.2279 1.0755 0.9520
v -1.4252 1.2155 0.5429
v -0.2660 -0.7771 -0.3077
v -0.1930 -0.7862 -0.1833
v -0.1537 -0.8194 -0.1958
v -0.7290 0.7168 -0.6605
v -0.4301 0.6396 -0.7401
v -0.2870 0.6327 -0.7448
v -0.1431 0.6345 -0.7447
v -0.3772 -0.4874 -0.7223
v -0.3199 -0.5838 -0.6346
v -0.5305 -0.1522 -0.9146
v -1.2198 1.0210 -0.1913
v -1.3327 0.8541 -0.2417
v -1.1084 0.9309 -0.3433
v -1.2485 0.7646 -0.3957
v -0.9761 0.8446 -0.4760
v -0.5485 -0.0404 1.1928
v -0.4754 -0.1886 1.1576
v -0.3797 -0.3393 1.1154
v -0.3050 -0.4562 1.0363
v -0.2448 -0.5549 0.9570
v -0.1976 -0.6359 0.8717
v -0.6828 0.2178 1.2143
v -1.3293 1.2153 0.7487
v -1.3855 1.2632 0.6531
v -1.4143 1.2597 0.5471
v -1.4438 1.2414 0.4214
v -1.4582 1.2016 0.2953
v -1.4544 1.1271 0.1314
v -1.3884 1.0208 -0.0488
v -1.3125 0.9224 -0.2242
v -1.2089 0.8275 -0.3901
v -1.0705 0.7182 -0.5507
v -1.2776 1.2034 0.8560
v -1.3239 1.2697 0.7456
v -1.3766 1.3056 0.6586
v -1.4052 1.3110 0.5521
v -1.4317 1.2975 0.4383
v -1.4577 1.2679 0.3013
v -1.4468 1.2063 0.1403
v -1.3730 1.0953 -0.0437
v -1.2865 0.9825 -0.2112
v -1.1662 0.8925 -0.3876
v -1.0270 0.7983 -0.5261
v -0.8922 0.7258 -0.6532
v -0.5754 0.6156 -0.7807
v -0.4332 0.5900 -0.7954
v -0.1515 0.5680 -0.8019
v -1.2103 1.1324 0.9711
v -1.1326 1.0570 1.0621
v -1.0564 0.9620 1.1348
v -0.9983 0.8961 1.1991
v -0.9361 0.8201 1.2146
v -0.8700 0.7286 1.2210
v -0.7914 0.6363 1.2283
v -0.4724 0.3402 1.2452
v -0.1282 0.2415 1.2235
v -0.3318 0.2951 1.2334
v -0.4498 0.3789 1.2152
v -0.8081 0.3409 1.1651
v -0.7168 0.4472 1.2203
v -0.5242 0.2571 1.2400
v -0.6173 0.3490 1.2330
v -0.7202 0.1638 1.1663
v -0.5793 0.4232 1.2476
v -0.5606 0.4643 1.2193
v -0.4746 -0.3028 1.0583
v -0.3912 -0.4256 0.9881
v -0.3210 -0.5245 0.9047
v -0.5772 -0.1568 1.1031
v -0.6669 -0.0132 1.1185
v -0.8476 0.3103 1.1262
v -0.7560 0.1333 1.1101
v -0.2776 -0.5929 0.8382
v -0.9013 0.4043 1.1370
v -0.9740 0.5521 1.1435
v -1.0426 0.6509 1.1262
v -1.1109 0.7457 1.0816
v -1.1599 0.8536 0.9804
v -1.2162 0.9247 0.9335
v -1.2601 1.0050 0.8576
v -1.3125 1.1501 0.7571
v -1.2775 1.0721 0.8303
v -1.3730 1.1990 0.6404
v -1.4339 1.1625 0.4028
v -1.3953 1.1781 0.5370
v -1.4495 1.1095 0.3099
v -1.4481 1.0067 0.1257
v -1.3980 0.8963 -0.0463
v -0.9969 0.4270 -0.7177
v -1.1165 0.6058 -0.5377
v -1.2502 0.7215 -0.3617
v -0.4978 -0.5358 -0.6973
v -0.4499 -0.6072 -0.6488
v -0.8645 0.2017 -0.8408
v -0.7751 0.0039 -0.8975
v -0.6838 -0.1947 -0.8753
v -0.5945 -0.3873 -0.8254
v -0.1539 0.2002 1.2516
v -0.1353 0.2267 1.2509
v -0.3381 0.2794 1.2626
v -0.3544 0.2578 1.2557
v -0.4565 0.3667 1.2662
v -0.4719 0.3469 1.2581
v -0.6905 0.5250 1.2465
v -0.6683 0.5478 1.2640
v -0.7746 0.6671 1.2558
v -0.7960 0.6435 1.2410
v -0.9174 0.8513 1.2284
v -0.9379 0.8289 1.2230
v -0.8676 0.7372 1.2367
v -0.8598 0.7616 1.2484
v -0.9779 0.9255 1.2061
v -1.0007 0.9050 1.2076
v -1.0365 0.9976 1.1488
v -1.0589 0.9739 1.1396
v -1.1113 1.0825 1.0684
v -1.1356 1.0656 1.0661
v -0.5663 0.4493 1.2717
v -0.5814 0.4285 1.2617
v -1.2678 1.2241 0.8568
v -1.1932 1.1604 0.9701
v -1.2865 1.2056 0.8580
v -1.2182 1.1380 0.9756
v -1.3319 1.2925 0.7473
v -1.3332 1.2740 0.7466
v -1.3720 1.3229 0.6619
v -1.3778 1.3086 0.6581
v -1.4083 1.3302 0.5552
v -1.4100 1.3156 0.5528
v -1.4300 1.3179 0.4437
v -1.4343 1.3017 0.4390
v -1.4646 1.2777 0.2980
v -1.4590 1.2977 0.3011
v -1.4550 1.2183 0.1359
v -1.4358 1.2349 0.1388
v -1.3587 1.1332 -0.0447
v -1.3821 1.1098 -0.0497
v -1.2897 0.9951 -0.2274
v -1.2556 1.0216 -0.2087
v -1.1694 0.9027 -0.3959
v -1.1458 0.9247 -0.3784
v -1.0292 0.8096 -0.5285
v -1.0166 0.8338 -0.5173
v -0.8935 0.7379 -0.6595
v -0.8847 0.7628 -0.6337
v -0.7579 0.6838 -0.7438
v -0.7460 0.7091 -0.7157
v -0.5717 0.6623 -0.7692
v -0.5740 0.6343 -0.7866
v -0.4314 0.6084 -0.8002
v -0.4297 0.6386 -0.7770
v -0.2882 0.6292 -0.7843
v -0.2928 0.5977 -0.8097
v -0.1483 0.5921 -0.8045
v -0.1443 0.6274 -0.7831
v -1.3363 0.8068 -0.2390
v -0.1957 -0.7270 0.7046
v -0.1864 -0.7131 0.7392
v -0.2412 -0.6412 0.8931
v -0.2692 -0.6434 0.8853
v -0.4489 -0.3447 1.1186
v -0.3623 -0.4708 1.0443
v -0.4796 -0.3579 1.1096
v -0.3942 -0.4827 1.0387
v -0.2914 -0.5697 0.9562
v -0.3238 -0.5821 0.9529
v -0.5505 -0.1976 1.1639
v -0.5779 -0.2137 1.1564
v -0.6224 -0.0481 1.1819
v -0.6683 -0.0663 1.1722
v -0.7282 0.1590 1.1734
v -0.7560 0.1371 1.1621
v -0.8162 0.3346 1.1769
v -0.8436 0.3142 1.1656
v -0.8797 0.4327 1.1792
v -0.9029 0.4117 1.1738
v -0.9533 0.5550 1.1791
v -0.9726 0.5482 1.1752
v -1.0199 0.6736 1.1702
v -1.0860 0.7754 1.1342
v -1.1125 0.7632 1.1341
v -1.0422 0.6570 1.1628
v -1.1478 0.8537 1.0698
v -1.1654 0.8379 1.0567
v -1.2052 0.9317 1.0020
v -1.2264 0.9154 0.9905
v -1.2564 1.0190 0.9297
v -1.2680 1.0032 0.9160
v -1.2996 1.0882 0.8547
v -1.3059 1.0711 0.8450
v -1.3534 1.1684 0.7581
v -1.3550 1.1505 0.7604
v -1.4043 1.2223 0.6509
v -1.4022 1.2048 0.6483
v -1.4786 1.1964 0.4092
v -1.4747 1.1717 0.4092
v -1.4383 1.1900 0.5404
v -1.4378 1.2119 0.5429
v -1.4832 1.1418 0.2839
v -1.4786 1.1185 0.2940
v -1.4686 1.0514 0.1149
v -1.4702 1.0201 0.1153
v -1.4168 0.9376 -0.0624
v -1.4202 0.9083 -0.0588
v -1.3467 0.8484 -0.2518
v -1.3547 0.8205 -0.2532
v -1.2595 0.7583 -0.4064
v -1.2725 0.7292 -0.3997
v -0.9693 0.4693 -0.7603
v -1.1271 0.6428 -0.5719
v -0.9945 0.4436 -0.7476
v -1.1330 0.6091 -0.5704
v -0.8295 0.2295 -0.8723
v -0.8587 0.2135 -0.8644
v -0.7408 0.0279 -0.9218
v -0.7685 0.0120 -0.9197
v -0.4683 -0.5298 -0.7440
v -0.4139 -0.6124 -0.6790
v -0.4274 -0.6304 -0.6647
v -0.4883 -0.5461 -0.7488
v -0.6493 -0.1735 -0.9312
v -0.6738 -0.1881 -0.9033
v -0.5426 -0.3769 -0.8655
v -0.5800 -0.3903 -0.8435
v -0.3335 -0.7104 -0.5482
v -0.3728 -0.7108 -0.5624
v -0.2532 -0.7985 -0.3399
v 0.0951 -0.4408 -0.6924
v 0.1121 -0.2444 -0.8302
v 0.1281 -0.0832 -0.8873
v 0.1318 0.1492 -0.9092
v 0.0620 -0.5600 -0.5971
v 0.1379 0.3685 -0.8889
v 0.2843 0.5911 -0.7995
v 0.2864 0.3667 -0.8959
v 0.8113 0.2588 -0.8675
v 0.9400 0.5198 -0.7434
v 0.7478 0.5068 -0.8083
v 0.5827 0.5116 -0.8265
v 0.6401 0.3010 -0.8960
v 0.4196 -0.3264 -0.8299
v 0.4099 -0.5043 -0.7274
v 0.4616 0.3761 -0.8856
v 0.4094 0.1196 -0.9285
v 0.3709 -0.1179 -0.9032
v 0.3610 -0.6001 -0.6281
v 0.1700 -0.5824 -0.6030
v 0.2239 -0.4704 -0.7011
v 0.1998 -0.2967 -0.8121
v 0.2512 -0.1020 -0.8946
v 0.2678 0.1381 -0.9207
v 0.0915 -0.6680 -0.4870
v 0.1981 -0.6758 -0.4749
v 0.2726 -0.6931 -0.4724
v 0.0948 -0.7404 -0.3229
v 0.1726 -0.7607 -0.3008
v 0.1544 -0.8164 -0.2083
v 0.1933 -0.7850 -0.3117
v 0.0832 -0.3541 1.1383
v 0.0626 -0.4829 1.0743
v 0.1861 -0.3425 1.1347
v 0.1440 -0.4722 1.0668
v 0.2834 -0.3389 1.1271
v 0.2222 -0.4587 1.0517
v 0.4210 -0.3378 1.0979
v 0.3368 -0.4569 1.0153
v 0.0509 -0.5750 0.9850
v 0.0431 -0.6526 0.8856
v 0.1148 -0.5658 0.9772
v 0.1757 -0.5541 0.9635
v 0.2647 -0.5521 0.9339
v 0.1415 -0.6344 0.8677
v 0.0939 -0.6441 0.8785
v 0.2149 -0.6273 0.8456
v 0.0358 -0.7776 0.6706
v 0.0381 -0.7204 0.7805
v 0.0799 -0.7123 0.7741
v 0.1180 -0.7032 0.7628
v 0.0720 -0.7698 0.6671
v 0.0350 -0.8604 0.4355
v 0.0362 -0.8881 0.3090
v 0.0337 -0.9037 0.1840
v 0.0336 -0.8906 0.0874
v 0.1016 -0.8854 0.2809
v 0.0939 -0.8890 0.1791
v 0.0348 -0.8241 0.5560
v 0.0672 -0.8170 0.5587
v 0.1086 -0.1917 1.1845
v 0.2378 -0.1671 1.1855
v 0.3590 -0.1882 1.1825
v 0.5161 -0.1871 1.1485
v 0.1170 -0.0209 1.2251
v 0.3121 -0.0380 1.2076
v 0.4337 -0.0119 1.2084
v 0.6029 -0.0402 1.1813
v 0.1626 0.1937 1.2485
v 0.3944 0.1580 1.2229
v 0.5478 0.1634 1.2082
v 0.2717 0.0965 1.2241
v 0.2074 -0.0294 1.2174
v 0.0923 -0.7944 -0.1918
v 0.1047 -0.8694 -0.0693
v 0.0798 -0.8520 -0.0671
v 0.0440 -0.8279 -0.0636
v 0.0370 -0.8659 0.0371
v 0.5462 0.7204 -0.6777
v 0.7395 0.7207 -0.6958
v 0.9073 0.6399 -0.6863
v 1.0764 0.6865 -0.5698
v 0.1727 -0.6900 0.7233
v 0.1592 -0.7447 0.6372
v 0.1338 -0.7541 0.6462
v 0.0952 -0.8090 0.5619
v 0.0884 -0.8429 0.4730
v 0.0664 -0.8535 0.4457
v 0.1194 -0.8589 0.3917
v 0.1017 -0.8535 0.4241
v 0.0932 -0.8826 0.0888
v 0.7378 0.3801 1.1797
v 0.8359 0.4308 1.1667
v 0.3374 0.2545 1.2463
v 0.1374 -0.8035 0.5346
v 0.1184 -0.8062 0.5472
v 0.0736 -0.8805 0.0357
v 0.0969 -0.8775 0.0462
v 0.3216 -0.7153 -0.4464
v 0.1979 -0.6820 0.6804
v 0.1665 -0.7220 0.5994
v 0.1451 -0.7617 0.5129
v 0.1287 -0.8171 0.3737
v 0.1163 -0.8269 0.2671
v 0.1131 -0.8298 0.1661
v 0.1117 -0.8318 0.0752
v 0.1199 -0.8129 -0.0175
v 0.1113 -0.8277 0.0368
v 0.1492 -0.6962 0.7449
v 0.1050 -0.7608 0.6602
v 0.0746 -0.8808 0.3224
v 0.0671 -0.8990 0.1855
v 0.0673 -0.8917 0.0880
v 0.7148 0.0536 -0.9115
v 0.6214 -0.1666 -0.9075
v 0.5260 -0.3412 -0.8477
v 1.2446 1.2715 0.7778
v 1.3278 1.1617 0.7971
v 1.2677 1.1022 0.8753
v 1.2059 1.2568 0.8398
v 1.2784 1.3148 0.6643
v 1.3917 1.2258 0.6663
v 0.6662 0.5125 1.2188
v 0.7897 0.5211 1.1933
v 1.0018 0.6798 1.1681
v 0.7526 0.6812 1.2246
v 1.3686 0.9580 -0.0868
v 0.8371 0.8247 -0.5477
v 1.3313 1.3277 0.5551
v 1.4897 1.1937 0.4486
v 1.4706 1.1495 0.2973
v 1.3867 1.3082 0.4326
v 1.4192 1.3040 0.3151
v 1.3791 1.2643 0.1740
v 1.4542 1.0760 0.1256
v 1.2067 1.0455 0.9506
v 1.3087 1.1721 -0.0165
v 0.6409 0.5589 1.2229
v 0.8329 0.7715 1.2127
v 1.2665 1.1725 0.8754
v 0.8866 0.6461 1.2041
v 0.9197 0.5646 1.1761
v 0.9099 0.8639 1.1887
v 0.9661 0.7453 1.1963
v 0.9625 0.9340 1.1459
v 1.0260 0.8279 1.1650
v 1.0571 0.7789 1.1369
v 1.0193 0.9954 1.1023
v 1.0766 0.9005 1.1318
v 1.0901 0.8457 1.0990
v 1.0290 1.0869 1.0965
v 1.1346 0.9884 1.0760
v 1.1404 0.9236 1.0553
v 1.1261 1.1944 0.9692
v 1.1998 1.0953 0.9731
v 1.4630 1.2129 0.5567
v 0.2352 -0.7651 -0.2536
v 0.1591 -0.7863 -0.1476
v 0.1207 -0.7967 -0.1985
v 0.7022 0.7686 -0.6193
v 0.4204 0.6831 -0.7234
v 0.2813 0.6460 -0.7375
v 0.1356 0.6360 -0.7381
v 0.3073 -0.3157 -0.8174
v 0.3292 -0.4832 -0.7202
v 0.2726 -0.5914 -0.6169
v 0.5643 0.0846 -0.9324
v 0.4994 -0.1366 -0.9125
v 1.2043 1.0819 -0.1698
v 1.3076 0.8927 -0.2444
v 1.0928 0.9961 -0.3024
v 1.2189 0.8031 -0.3972
v 0.5274 -0.0414 1.1982
v 0.4480 -0.1872 1.1670
v 0.3614 -0.3394 1.1141
v 0.2860 -0.4501 1.0310
v 0.2264 -0.5479 0.9470
v 0.1825 -0.6284 0.8562
v 0.6668 0.2153 1.1926
v 1.3348 1.2451 0.7874
v 1.3759 1.3016 0.6678
v 1.4416 1.2567 0.5560
v 1.4640 1.2444 0.4489
v 1.4597 1.2112 0.3032
v 1.4754 1.1432 0.1328
v 1.3781 1.0537 -0.0627
v 1.2863 0.9646 -0.2248
v 1.1824 0.8723 -0.3793
v 1.0460 0.7621 -0.5420
v 1.2679 1.2311 0.8704
v 1.3248 1.2706 0.7820
v 1.3659 1.3247 0.6713
v 1.4216 1.3069 0.5551
v 1.4499 1.3015 0.4487
v 1.4520 1.2739 0.3102
v 1.4379 1.2292 0.1620
v 1.3719 1.1325 -0.0488
v 1.2562 1.0413 -0.2038
v 1.1490 0.9529 -0.3541
v 0.8700 0.7758 -0.6162
v 0.5572 0.6647 -0.7464
v 0.4206 0.6318 -0.7736
v 0.1371 0.5770 -0.7916
v 1.1959 1.1617 0.9879
v 1.1299 1.0546 1.1052
v 1.0581 0.9573 1.1646
v 0.9972 0.8915 1.1858
v 0.9366 0.8192 1.2129
v 0.8540 0.7165 1.2254
v 0.7736 0.6348 1.2239
v 0.4552 0.3405 1.2357
v 0.1184 0.2415 1.2207
v 0.3124 0.2956 1.2345
v 0.4302 0.3794 1.2202
v 0.7874 0.3378 1.1601
v 0.6946 0.4451 1.1910
v 0.5022 0.2597 1.2120
v 0.5984 0.3478 1.2012
v 0.7058 0.1652 1.1688
v 0.5589 0.4222 1.2224
v 0.5394 0.4639 1.2264
v 0.4576 -0.3527 1.0418
v 0.3724 -0.4505 0.9742
v 0.3017 -0.5486 0.8936
v 0.5543 -0.2064 1.0963
v 0.6430 -0.0593 1.1287
v 0.8269 0.3141 1.1350
v 0.7463 0.1413 1.1258
v 0.2510 -0.6084 0.8126
v 0.8739 0.4075 1.1355
v 0.9514 0.5442 1.1386
v 1.0270 0.6558 1.1278
v 1.0909 0.7636 1.0804
v 1.1447 0.8447 1.0349
v 1.1365 0.9155 1.0103
v 1.2041 1.0268 0.9270
v 1.2990 1.1412 0.7989
v 1.2409 1.0870 0.8562
v 1.3730 1.1980 0.6687
v 1.4346 1.1565 0.4650
v 1.4467 1.1755 0.5576
v 1.4564 1.1108 0.3257
v 1.4512 1.0276 0.1265
v 1.3723 0.9272 -0.0799
v 0.9819 0.4765 -0.7124
v 1.0862 0.6449 -0.5557
v 1.2246 0.7592 -0.3764
v 0.4529 -0.5267 -0.6990
v 0.3893 -0.6101 -0.6164
v 0.8482 0.2299 -0.8304
v 0.7552 0.0193 -0.8770
v 0.6647 -0.1936 -0.8723
v 0.5700 -0.3659 -0.8296
v 0.1435 0.2007 1.2690
v 0.1254 0.2271 1.2700
v 0.3187 0.2803 1.2723
v 0.3355 0.2590 1.2597
v 0.4373 0.3665 1.2658
v 0.4542 0.3468 1.2507
v 0.6685 0.5233 1.2358
v 0.6475 0.5464 1.2616
v 0.7575 0.6660 1.2525
v 0.7785 0.6420 1.2382
v 0.9184 0.8462 1.2198
v 0.9339 0.8263 1.2182
v 0.8537 0.7321 1.2367
v 0.8362 0.7503 1.2450
v 0.9834 0.9216 1.1931
v 0.9998 0.9021 1.1931
v 1.0492 0.9929 1.1673
v 1.0639 0.9752 1.1664
v 1.1159 1.0902 1.1095
v 1.1265 1.0721 1.1039
v 0.5452 0.4482 1.2549
v 0.5608 0.4274 1.2381
v 1.2607 1.2547 0.8754
v 1.1884 1.1859 0.9950
v 1.2696 1.2379 0.8790
v 1.2012 1.1664 0.9940
v 1.3166 1.2955 0.7838
v 1.3272 1.2847 0.7826
v 1.3618 1.3325 0.6736
v 1.4195 1.3347 0.5556
v 1.4232 1.3203 0.5548
v 1.4458 1.3316 0.4476
v 1.4494 1.3152 0.4473
v 1.4588 1.2834 0.3071
v 1.4536 1.3022 0.3102
v 1.4462 1.2410 0.1580
v 1.4392 1.2630 0.1656
v 1.3610 1.1671 -0.0357
v 1.3808 1.1458 -0.0544
v 1.2615 1.0500 -0.2109
v 1.2459 1.0735 -0.1978
v 1.1524 0.9630 -0.3619
v 1.1325 0.9872 -0.3451
v 0.8709 0.7877 -0.6220
v 0.8632 0.8159 -0.5940
v 0.7397 0.7369 -0.7019
v 0.7253 0.7612 -0.6700
v 0.5539 0.7147 -0.7363
v 0.5559 0.6868 -0.7528
v 0.4193 0.6498 -0.7791
v 0.4192 0.6809 -0.7583
v 0.2800 0.6412 -0.7778
v 0.2816 0.6126 -0.8013
v 0.1350 0.5991 -0.7957
v 0.1339 0.6306 -0.7764
v 1.2971 0.8442 -0.2308
v 0.1835 -0.7079 0.7062
v 0.1806 -0.6922 0.7213
v 0.2246 -0.6357 0.8577
v 0.2510 -0.6393 0.8435
v 0.4315 -0.3442 1.1062
v 0.3433 -0.4653 1.0217
v 0.4625 -0.3574 1.0914
v 0.3754 -0.4797 1.0074
v 0.2721 -0.5637 0.9354
v 0.3044 -0.5783 0.9255
v 0.5243 -0.1960 1.1581
v 0.5548 -0.2127 1.1472
v 0.6120 -0.0458 1.1906
v 0.6440 -0.0621 1.1796
v 0.7162 0.1579 1.1798
v 0.7468 0.1376 1.1771
v 0.7961 0.3313 1.1734
v 0.8243 0.3111 1.1714
v 0.8485 0.4288 1.1805
v 0.8756 0.4087 1.1781
v 0.9333 0.5595 1.1824
v 0.9519 0.5475 1.1852
v 1.0104 0.6742 1.1726
v 1.0710 0.7736 1.1428
v 1.0939 0.7629 1.1275
v 1.0269 0.6561 1.1645
v 1.1173 0.8490 1.1048
v 1.1400 0.8372 1.0848
v 1.1599 0.9292 1.0508
v 1.1724 0.9146 1.0354
v 1.2163 1.0336 0.9557
v 1.2249 1.0267 0.9389
v 1.2786 1.0993 0.8805
v 1.2817 1.0823 0.8732
v 1.3386 1.1625 0.8019
v 1.3363 1.1449 0.8045
v 1.4011 1.2228 0.6700
v 1.4008 1.2048 0.6709
v 1.5029 1.1885 0.4438
v 1.5093 1.1651 0.4493
v 1.4767 1.1869 0.5564
v 1.4757 1.2090 0.5561
v 1.4870 1.1434 0.2935
v 1.4947 1.1202 0.3027
v 1.4654 1.0708 0.1213
v 1.4709 1.0384 0.1177
v 1.3906 0.9688 -0.0894
v 1.3941 0.9395 -0.0907
v 1.3129 0.8866 -0.2510
v 1.3219 0.8578 -0.2535
v 1.2299 0.7961 -0.4100
v 1.2428 0.7661 -0.4078
v 0.9569 0.5188 -0.7508
v 1.0916 0.6771 -0.5827
v 0.9806 0.4927 -0.7420
v 1.1058 0.6492 -0.5869
v 0.8261 0.2599 -0.8825
v 0.8557 0.2421 -0.8613
v 0.7208 0.0446 -0.9229
v 0.7485 0.0274 -0.9146
v 0.4233 -0.5073 -0.7409
v 0.3603 -0.6099 -0.6397
v 0.3782 -0.6267 -0.6301
v 0.4430 -0.5232 -0.7278
v 0.6292 -0.1687 -0.9174
v 0.6538 -0.1841 -0.9105
v 0.5303 -0.3449 -0.8595
v 0.5551 -0.3616 -0.8524
v 0.2769 -0.7097 -0.4817
v 0.3017 -0.7347 -0.4647
v 0.2054 -0.7847 -0.2798
v -1.5958 0.6524 0.7493
v -1.6416 0.6811 0.5476
v -1.6657 0.7028 0.4487
v 1.6477 0.7104 0.4813
v 1.5834 0.6637 0.7815
v 1.0022 0.8649 -0.5019
v 1.0010 0.8673 -0.4853
v 1.0017 0.8985 -0.4813
v 1.6017 0.6401 0.7110
v 1.5914 0.6747 0.5967
v 0.9688 0.9076 -0.4401
v -0.7131 0.3758 1.2181
v -0.6462 0.2744 1.2325
v 0.6912 0.3727 1.1851
v 0.6289 0.2756 1.1975
v -0.6171 0.0949 1.2166
v -0.8960 0.3532 -0.8246
v -0.9266 0.3189 -0.7923
v -0.9227 0.3329 -0.8174
v -0.8817 0.3517 -0.8192
v 0.9168 0.3532 -0.7842
v 0.8820 0.3893 -0.8097
v 0.9167 0.3674 -0.8113
v 0.8903 0.3894 -0.8266
v -0.1349 -0.2345 -0.8217
v -1.5674 0.6663 0.8447
v 1.4232 1.2799 0.6561
v 1.4068 1.2928 0.6558
v 1.4835 1.2367 0.5725
v 1.4363 1.2936 0.6379
v 1.4429 1.2802 0.6463
v 1.4078 1.2799 0.6810
v 1.4094 1.2613 0.6785
v 1.4389 1.2723 0.6903
v 1.4350 1.2826 0.6996
v 1.4518 1.2141 0.7524
v -1.3991 1.2748 0.6537
v -1.3978 1.2879 0.6533
v -1.3843 1.2792 0.7082
v -1.3775 1.2925 0.6990
v -1.3905 1.3028 0.7006
v -1.3956 1.2922 0.6907
v -1.3651 1.2853 0.7087
v -1.3674 1.2664 0.7063
v 1.3703 1.3114 0.6709
v -0.7121 0.0356 1.1758
v -0.6743 0.0543 1.1869
v -0.6652 0.0591 1.1790
v -0.7114 0.0890 1.1217
v 0.5995 0.0912 1.2028
v 0.6954 0.0379 1.1782
v 0.6641 0.0560 1.1852
v 0.6544 0.0623 1.1752
v 0.6947 0.0412 1.1271
vt 0.8629 0.0937
vt 0.8613 0.0934
vt 0.8669 0.0670
vt 0.8686 0.0672
vt 0.8175 0.3736
vt 0.8256 0.3398
vt 0.8293 0.3414
vt 0.8202 0.3759
vt 0.9418 0.4572
vt 0.9461 0.4817
vt 0.9441 0.4820
vt 0.9399 0.4573
vt 0.8174 0.4157
vt 0.8199 0.4181
vt 0.8182 0.4377
vt 0.8144 0.4385
vt 0.8708 0.0680
vt 0.8652 0.0934
vt 0.7696 0.0823
vt 0.7616 0.0878
vt 0.7572 0.0835
vt 0.7645 0.0782
vt 0.9452 0.2660
vt 0.9393 0.2334
vt 0.9416 0.2331
vt 0.9469 0.2710
vt 0.8720 0.5112
vt 0.8830 0.4853
vt 0.8898 0.4881
vt 0.8765 0.5142
vt 0.8174 0.2128
vt 0.8160 0.2417
vt 0.8057 0.2398
vt 0.8069 0.2090
vt 0.9293 0.1877
vt 0.9218 0.1781
vt 0.9228 0.1763
vt 0.9311 0.1868
vt 0.8105 0.4182
vt 0.8037 0.4410
vt 0.8980 0.4430
vt 0.8992 0.4446
vt 0.8948 0.4558
vt 0.8931 0.4548
vt 0.8228 0.1713
vt 0.8243 0.1919
vt 0.8200 0.1916
vt 0.8196 0.1683
vt 0.8214 0.2125
vt 0.8252 0.2147
vt 0.8237 0.2443
vt 0.8193 0.2416
vt 0.9167 0.1973
vt 0.9115 0.1904
vt 0.9137 0.1883
vt 0.9185 0.1963
vt 0.8968 0.3468
vt 0.8988 0.3475
vt 0.8876 0.3849
vt 0.8865 0.3862
vt 0.8946 0.1867
vt 0.8880 0.1948
vt 0.8810 0.1894
vt 0.8909 0.1772
vt 0.8178 0.4584
vt 0.8219 0.4590
vt 0.8189 0.4903
vt 0.8156 0.4896
vt 0.8614 0.1226
vt 0.8628 0.1219
vt 0.9258 0.2318
vt 0.9209 0.1945
vt 0.9287 0.1889
vt 0.9330 0.2314
vt 0.8917 0.4318
vt 0.8842 0.4502
vt 0.8818 0.4493
vt 0.8896 0.4303
vt 0.9313 0.4834
vt 0.9342 0.4820
vt 0.9358 0.5084
vt 0.9340 0.5070
vt 0.8128 0.6281
vt 0.7961 0.6159
vt 0.7969 0.6152
vt 0.8133 0.6279
vt 0.8642 0.1234
vt 0.8705 0.1226
vt 0.8688 0.1371
vt 0.8655 0.1375
vt 0.9077 0.1697
vt 0.8901 0.1755
vt 0.8889 0.1733
vt 0.9078 0.1671
vt 0.8088 0.1879
vt 0.8200 0.1916
vt 0.7448 0.1392
vt 0.7442 0.1344
vt 0.7527 0.1325
vt 0.7532 0.1384
vt 0.8791 0.0464
vt 0.8801 0.0479
vt 0.9206 0.1790
vt 0.9077 0.1718
vt 0.9077 0.1697
vt 0.9218 0.1781
vt 0.8119 0.0326
vt 0.8214 0.0308
vt 0.8200 0.0525
vt 0.8086 0.0540
vt 0.9304 0.1256
vt 0.9356 0.1229
vt 0.9437 0.1374
vt 0.9413 0.1385
vt 0.9375 0.1224
vt 0.9289 0.0969
vt 0.9335 0.0973
vt 0.9396 0.1220
vt 0.8225 0.4147
vt 0.8225 0.4374
vt 0.9165 0.0462
vt 0.9185 0.0450
vt 0.9257 0.0636
vt 0.9233 0.0642
vt 0.8761 0.0949
vt 0.8741 0.1220
vt 0.8725 0.1212
vt 0.8748 0.0948
vt 0.5155 0.1310
vt 0.5021 0.1099
vt 0.5070 0.1090
vt 0.5213 0.1304
vt 0.9462 0.3441
vt 0.9433 0.3432
vt 0.9436 0.3163
vt 0.9458 0.3159
vt 0.8037 0.4618
vt 0.7999 0.4611
vt 0.7994 0.4407
vt 0.8037 0.4410
vt 0.9289 0.0969
vt 0.9261 0.0980
vt 0.7531 0.0878
vt 0.7499 0.0863
vt 0.7553 0.0819
vt 0.7572 0.0835
vt 0.7615 0.0612
vt 0.7534 0.0667
vt 0.7474 0.0623
vt 0.7543 0.0547
vt 0.7987 0.2072
vt 0.8006 0.1858
vt 0.8050 0.1863
vt 0.8031 0.2072
vt 0.9272 0.1257
vt 0.9156 0.1019
vt 0.9178 0.1017
vt 0.9283 0.1248
vt 0.8818 0.4493
vt 0.8792 0.4839
vt 0.8741 0.4839
vt 0.8791 0.4477
vt 0.8695 0.9581
vt 0.8966 0.9625
vt 0.8955 0.9656
vt 0.8688 0.9612
vt 0.9163 0.4493
vt 0.9117 0.4458
vt 0.9123 0.4442
vt 0.9171 0.4483
vt 0.9024 0.0410
vt 0.9032 0.0392
vt 0.8201 0.1135
vt 0.8104 0.1155
vt 0.8066 0.0764
vt 0.8194 0.0757
vt 0.9147 0.2899
vt 0.9152 0.2873
vt 0.9337 0.2960
vt 0.9318 0.2981
vt 0.8233 0.0748
vt 0.8277 0.0753
vt 0.8274 0.1121
vt 0.8236 0.1115
vt 0.8939 0.3108
vt 0.8886 0.3436
vt 0.8861 0.3428
vt 0.8931 0.3094
vt 0.9137 0.1883
vt 0.9053 0.1837
vt 0.9071 0.1803
vt 0.9150 0.1857
vt 0.9306 0.2995
vt 0.9143 0.2915
vt 0.7537 0.1411
vt 0.7625 0.1430
vt 0.7625 0.1521
vt 0.7537 0.1532
vt 0.9052 0.1871
vt 0.8066 0.4204
vt 0.7992 0.4900
vt 0.8061 0.5142
vt 0.8049 0.5146
vt 0.7951 0.4916
vt 0.9005 0.0565
vt 0.8951 0.0581
vt 0.8946 0.0564
vt 0.9016 0.0538
vt 0.8897 0.0599
vt 0.8795 0.0714
vt 0.8786 0.0697
vt 0.8880 0.0580
vt 0.9143 0.4421
vt 0.9193 0.4466
vt 0.9228 0.2345
vt 0.9258 0.2318
vt 0.9375 0.2642
vt 0.9345 0.2664
vt 0.9057 0.4406
vt 0.9054 0.4381
vt 0.9264 0.4394
vt 0.9193 0.4327
vt 0.9207 0.4303
vt 0.9289 0.4374
vt 0.9085 0.0592
vt 0.9096 0.0579
vt 0.8057 0.2398
vt 0.8048 0.2650
vt 0.8034 0.2644
vt 0.8023 0.2383
vt 0.8728 0.0938
vt 0.8652 0.0934
vt 0.9006 0.3164
vt 0.8968 0.3468
vt 0.8979 0.1921
vt 0.8963 0.1899
vt 0.9414 0.5095
vt 0.9417 0.4816
vt 0.9441 0.4820
vt 0.9427 0.5079
vt 0.7627 0.0759
vt 0.7553 0.0819
vt 0.7467 0.0744
vt 0.7534 0.0667
vt 0.8045 0.0541
vt 0.8027 0.0757
vt 0.7401 0.0791
vt 0.9173 0.0674
vt 0.9190 0.1007
vt 0.8894 0.0443
vt 0.8884 0.0420
vt 0.7951 0.4414
vt 0.8028 0.4182
vt 0.9326 0.5079
vt 0.9298 0.4834
vt 0.8838 0.2139
vt 0.8764 0.2152
vt 0.8980 0.4430
vt 0.8967 0.4409
vt 0.8058 0.1673
vt 0.8033 0.1644
vt 0.8883 0.4282
vt 0.4920 0.1584
vt 0.5075 0.1558
vt 0.5349 0.1913
vt 0.5130 0.1848
vt 0.8830 0.4853
vt 0.8740 0.2156
vt 0.8786 0.1893
vt 0.9417 0.2634
vt 0.8883 0.3867
vt 0.9018 0.3486
vt 0.7987 0.2388
vt 0.8023 0.2383
vt 0.9039 0.0372
vt 0.9198 0.0431
vt 0.8869 0.2139
vt 0.8910 0.1976
vt 0.8309 0.3192
vt 0.8268 0.3185
vt 0.9041 0.3191
vt 0.9022 0.3179
vt 0.9069 0.3094
vt 0.9083 0.3116
vt 0.7401 0.0699
vt 0.7993 0.3871
vt 0.7975 0.3858
vt 0.7993 0.3676
vt 0.8029 0.3677
vt 0.9209 0.1945
vt 0.8904 0.4538
vt 0.9009 0.2968
vt 0.9016 0.2986
vt 0.8931 0.3094
vt 0.8914 0.3082
vt 0.8044 0.3939
vt 0.8034 0.3924
vt 0.8780 0.3968
vt 0.8819 0.3840
vt 0.8865 0.3862
vt 0.8805 0.3975
vt 0.7034 0.7923
vt 0.7236 0.8179
vt 0.7192 0.8374
vt 0.6981 0.8179
vt 0.8075 0.1157
vt 0.8218 0.1372
vt 0.8208 0.1386
vt 0.8046 0.1177
vt 0.4943 0.1895
vt 0.5095 0.2142
vt 0.4934 0.2152
vt 0.4787 0.2121
vt 0.8058 0.3696
vt 0.8101 0.3364
vt 0.8216 0.3397
vt 0.8141 0.3731
vt 0.8119 0.4905
vt 0.8109 0.5139
vt 0.8074 0.5142
vt 0.8026 0.4903
vt 0.8013 0.3918
vt 0.8005 0.3884
vt 0.8786 0.0697
vt 0.7531 0.1600
vt 0.7439 0.1595
vt 0.7446 0.1527
vt 0.7537 0.1532
vt 0.9287 0.1889
vt 0.7678 0.0677
vt 0.9408 0.3159
vt 0.9411 0.3425
vt 0.8716 0.2161
vt 0.8765 0.1883
vt 0.8240 0.0522
vt 0.8257 0.0336
vt 0.8284 0.0311
vt 0.8284 0.0519
vt 0.8119 0.4905
vt 0.8139 0.4597
vt 0.9304 0.1256
vt 0.9190 0.1007
vt 0.8963 0.1899
vt 0.9147 0.3038
vt 0.9145 0.3076
vt 0.7960 0.4626
vt 0.9022 0.0514
vt 0.9110 0.0548
vt 0.9339 0.3760
vt 0.9288 0.3755
vt 0.9335 0.3402
vt 0.9411 0.3425
vt 0.9065 0.4434
vt 0.8088 0.2661
vt 0.7398 0.1387
vt 0.7448 0.1392
vt 0.7447 0.1418
vt 0.7388 0.1417
vt 0.8075 0.1157
vt 0.8934 0.1982
vt 0.8246 0.1335
vt 0.8234 0.1367
vt 0.8106 0.3137
vt 0.8101 0.3364
vt 0.8066 0.3351
vt 0.8068 0.3138
vt 0.9258 0.4607
vt 0.9271 0.4603
vt 0.7568 0.1824
vt 0.7567 0.1867
vt 0.7539 0.1871
vt 0.7530 0.1812
vt 0.8904 0.0610
vt 0.8807 0.0719
vt 0.8066 0.3351
vt 0.8021 0.3346
vt 0.9057 0.3065
vt 0.9133 0.3001
vt 0.9252 0.3091
vt 0.9133 0.3001
vt 0.8931 0.0542
vt 0.9218 0.4285
vt 0.9301 0.4360
vt 0.7537 0.1411
vt 0.8222 0.2977
vt 0.8263 0.2968
vt 0.8738 0.2616
vt 0.8727 0.2634
vt 0.8134 0.5139
vt 0.8122 0.5136
vt 0.8835 0.3428
vt 0.8231 0.3176
vt 0.9024 0.2996
vt 0.9057 0.3065
vt 0.9066 0.4259
vt 0.9193 0.2373
vt 0.9228 0.2345
vt 0.9132 0.0695
vt 0.9148 0.0685
vt 0.7975 0.2902
vt 0.7997 0.2924
vt 0.8068 0.3138
vt 0.8023 0.3124
vt 0.7612 0.1390
vt 0.8916 0.2158
vt 0.9393 0.2334
vt 0.8082 0.0352
vt 0.9235 0.3120
vt 0.9218 0.3143
vt 0.8915 0.4893
vt 0.7645 0.0782
vt 0.7701 0.0715
vt 0.7616 0.1341
vt 0.8797 0.5150
vt 0.8789 0.5133
vt 0.8915 0.4893
vt 0.8936 0.4895
vt 0.9268 0.3223
vt 0.9292 0.3218
vt 0.9318 0.3395
vt 0.9294 0.3389
vt 0.9323 0.3198
vt 0.8595 0.5259
vt 0.8570 0.5240
vt 0.8156 0.2941
vt 0.8231 0.3176
vt 0.7489 0.2194
vt 0.7497 0.2129
vt 0.7584 0.2129
vt 0.7586 0.2214
vt 0.9283 0.0620
vt 0.8748 0.0948
vt 0.8101 0.2661
vt 0.9068 0.4204
vt 0.9071 0.4228
vt 0.9285 0.4586
vt 0.9373 0.4580
vt 0.8100 0.1658
vt 0.9317 0.3541
vt 0.9318 0.3395
vt 0.8285 0.1934
vt 0.8270 0.1696
vt 0.8878 0.0404
vt 0.8909 0.1772
vt 0.9441 0.5091
vt 0.9173 0.0674
vt 0.9285 0.4586
vt 0.8004 0.0542
vt 0.7987 0.0767
vt 0.8037 0.4618
vt 0.8880 0.0580
vt 0.8818 0.0494
vt 0.8894 0.0443
vt 0.8931 0.0542
vt 0.9323 0.3198
vt 0.9417 0.2634
vt 0.9504 0.2771
vt 0.7446 0.1822
vt 0.7446 0.1904
vt 0.8021 0.2647
vt 0.8754 0.2636
vt 0.8764 0.2755
vt 0.8794 0.2633
vt 0.8809 0.2614
vt 0.8819 0.2629
vt 0.9341 0.2693
vt 0.8047 0.0329
vt 0.8744 0.2756
vt 0.8754 0.2636
vt 0.8115 0.2670
vt 0.8707 0.5033
vt 0.7377 0.1529
vt 0.8236 0.1115
vt 0.8259 0.1322
vt 0.7740 0.0743
vt 0.9480 0.2791
vt 0.8280 0.1311
vt 0.8668 0.5065
vt 0.9071 0.4228
vt 0.7619 0.1608
vt 0.9383 0.5217
vt 0.9356 0.5211
vt 0.8034 0.2893
vt 0.9387 0.3778
vt 0.9394 0.3717
vt 0.7461 0.2193
vt 0.7458 0.2147
vt 0.8200 0.4124
vt 0.8215 0.2927
vt 0.8076 0.4164
vt 0.8071 0.1635
vt 0.8241 0.0264
vt 0.2265 0.9096
vt 0.2245 0.9069
vt 0.2441 0.8909
vt 0.2463 0.8932
vt 0.5535 0.4264
vt 0.5756 0.4303
vt 0.5751 0.4355
vt 0.5530 0.4321
vt 0.5909 0.2987
vt 0.5785 0.2651
vt 0.5805 0.2651
vt 0.5929 0.2984
vt 0.7823 0.6024
vt 0.7816 0.6028
vt 0.7134 0.4907
vt 0.7100 0.5012
vt 0.6870 0.4777
vt 0.6930 0.4678
vt 0.3944 0.8003
vt 0.4187 0.7863
vt 0.4193 0.7891
vt 0.3950 0.8032
vt 0.5544 0.4175
vt 0.5565 0.3696
vt 0.5788 0.3975
vt 0.5765 0.4222
vt 0.7801 0.8769
vt 0.7821 0.8746
vt 0.7977 0.8892
vt 0.7956 0.8918
vt 0.2026 0.5590
vt 0.2010 0.5568
vt 0.2182 0.5308
vt 0.2194 0.5335
vt 0.4434 0.4153
vt 0.4437 0.4187
vt 0.4224 0.4244
vt 0.4220 0.4215
vt 0.7049 0.5103
vt 0.7252 0.5392
vt 0.7237 0.5415
vt 0.7023 0.5106
vt 0.5010 0.5143
vt 0.5027 0.4924
vt 0.5106 0.4928
vt 0.5099 0.5147
vt 0.7874 0.8679
vt 0.8021 0.8833
vt 0.2438 0.5036
vt 0.2636 0.4808
vt 0.2655 0.4850
vt 0.2456 0.5078
vt 0.4220 0.4215
vt 0.4008 0.4268
vt 0.4006 0.4023
vt 0.4179 0.3723
vt 0.4308 0.2116
vt 0.4285 0.2111
vt 0.4412 0.1828
vt 0.4448 0.1832
vt 0.4221 0.4300
vt 0.4224 0.4354
vt 0.4016 0.4404
vt 0.4014 0.4353
vt 0.2066 0.9225
vt 0.2043 0.9174
vt 0.2211 0.9014
vt 0.2245 0.9069
vt 0.7723 0.8906
vt 0.7670 0.9032
vt 0.7510 0.8893
vt 0.7563 0.8750
vt 0.4583 0.2119
vt 0.4746 0.1854
vt 0.6679 0.7145
vt 0.6656 0.7154
vt 0.6528 0.6968
vt 0.6550 0.6956
vt 0.5539 0.4204
vt 0.5759 0.4251
vt 0.5362 0.4912
vt 0.5402 0.5121
vt 0.5335 0.5137
vt 0.5305 0.4919
vt 0.8699 0.9493
vt 0.8428 0.9354
vt 0.8398 0.9224
vt 0.8681 0.9320
vt 0.5387 0.3015
vt 0.5367 0.3415
vt 0.5129 0.3429
vt 0.5151 0.3025
vt 0.5657 0.5611
vt 0.5636 0.5614
vt 0.5556 0.5327
vt 0.5576 0.5324
vt 0.5313 0.5398
vt 0.5384 0.5384
vt 0.5436 0.5659
vt 0.5325 0.5669
vt 0.5129 0.2359
vt 0.5095 0.2142
vt 0.5320 0.2192
vt 0.5355 0.2358
vt 0.5765 0.4222
vt 0.6047 0.4321
vt 0.6040 0.4347
vt 0.5759 0.4251
vt 0.5746 0.6122
vt 0.5630 0.5869
vt 0.5725 0.5831
vt 0.5867 0.6095
vt 0.2284 0.5646
vt 0.2113 0.5796
vt 0.2102 0.5768
vt 0.2275 0.5611
vt 0.5128 0.3760
vt 0.4888 0.3777
vt 0.4904 0.3443
vt 0.5129 0.3429
vt 0.3816 0.7216
vt 0.3796 0.7201
vt 0.3918 0.7012
vt 0.3927 0.7034
vt 0.4872 0.4282
vt 0.4876 0.4224
vt 0.5096 0.4229
vt 0.5091 0.4289
vt 0.5010 0.5143
vt 0.5064 0.5393
vt 0.4980 0.5381
vt 0.4941 0.5131
vt 0.3153 0.8880
vt 0.3012 0.9038
vt 0.2993 0.8995
vt 0.3134 0.8839
vt 0.5108 0.4129
vt 0.5103 0.4166
vt 0.4879 0.4168
vt 0.4880 0.4134
vt 0.4439 0.4244
vt 0.4441 0.4307
vt 0.5961 0.6048
vt 0.5980 0.6036
vt 0.6153 0.6345
vt 0.6136 0.6362
vt 0.2262 0.5593
vt 0.2089 0.5754
vt 0.3285 0.8656
vt 0.3271 0.8598
vt 0.3444 0.8422
vt 0.3485 0.8482
vt 0.2114 0.9549
vt 0.2111 0.9510
vt 0.2343 0.9386
vt 0.2367 0.9436
vt 0.1867 0.9567
vt 0.2104 0.9491
vt 0.2111 0.9510
vt 0.1865 0.9587
vt 0.7483 0.5657
vt 0.7468 0.5675
vt 0.4807 0.6426
vt 0.5016 0.6409
vt 0.4944 0.6752
vt 0.4674 0.6747
vt 0.2981 0.4894
vt 0.2746 0.5108
vt 0.2699 0.4982
vt 0.2922 0.4769
vt 0.6443 0.8011
vt 0.6452 0.7979
vt 0.6699 0.8145
vt 0.6693 0.8186
vt 0.5130 0.1848
vt 0.6195 0.7873
vt 0.6443 0.8011
vt 0.6411 0.8074
vt 0.6162 0.7926
vt 0.3939 0.7310
vt 0.4107 0.7055
vt 0.4731 0.5911
vt 0.4807 0.5664
vt 0.4910 0.5678
vt 0.4835 0.5939
vt 0.4508 0.6140
vt 0.4329 0.6414
vt 0.4304 0.6405
vt 0.4490 0.6130
vt 0.8945 0.9718
vt 0.8662 0.9666
vt 0.4665 0.0082
vt 0.4694 0.0304
vt 0.4657 0.0363
vt 0.4617 0.0093
vt 0.5523 0.7622
vt 0.5534 0.7592
vt 0.5941 0.7697
vt 0.5931 0.7722
vt 0.4702 0.0866
vt 0.4669 0.0866
vt 0.4653 0.0717
vt 0.4691 0.0711
vt 0.3108 0.4310
vt 0.3056 0.4283
vt 0.3298 0.3970
vt 0.3346 0.3989
vt 0.5099 0.5669
vt 0.5172 0.5667
vt 0.5175 0.5918
vt 0.5091 0.5924
vt 0.3091 0.8756
vt 0.3026 0.8591
vt 0.3196 0.8398
vt 0.3251 0.8567
vt 0.4937 0.2272
vt 0.4731 0.2316
vt 0.2746 0.5108
vt 0.2758 0.5124
vt 0.2527 0.5353
vt 0.2515 0.5331
vt 0.3739 0.3954
vt 0.3722 0.4368
vt 0.7134 0.8521
vt 0.6951 0.8368
vt 0.7879 0.9197
vt 0.7872 0.9221
vt 0.7670 0.9061
vt 0.7670 0.9032
vt 0.1712 0.5853
vt 0.1720 0.5869
vt 0.1584 0.5975
vt 0.1574 0.5964
vt 0.3728 0.4394
vt 0.3508 0.4509
vt 0.3499 0.4490
vt 0.3722 0.4368
vt 0.1800 0.5991
vt 0.1653 0.6092
vt 0.1649 0.6074
vt 0.1757 0.5927
vt 0.7918 0.8641
vt 0.7874 0.8679
vt 0.7700 0.8537
vt 0.7741 0.8500
vt 0.6273 0.4455
vt 0.6263 0.4475
vt 0.4560 0.2651
vt 0.4689 0.2762
vt 0.4674 0.3024
vt 0.4450 0.3018
vt 0.5332 0.4139
vt 0.5360 0.3734
vt 0.4157 0.2315
vt 0.4126 0.2276
vt 0.4201 0.2069
vt 0.4250 0.2097
vt 0.4807 0.5664
vt 0.4709 0.5649
vt 0.4779 0.5430
vt 0.4904 0.5358
vt 0.6597 0.4504
vt 0.6668 0.4403
vt 0.6207 0.7843
vt 0.6195 0.7873
vt 0.4375 0.1807
vt 0.4250 0.2097
vt 0.3400 0.8204
vt 0.3438 0.8391
vt 0.2413 0.5002
vt 0.2608 0.4779
vt 0.5023 0.0929
vt 0.4982 0.0932
vt 0.4963 0.0855
vt 0.5006 0.0859
vt 0.7268 0.8172
vt 0.7309 0.8132
vt 0.7499 0.8332
vt 0.7448 0.8390
vt 0.3975 0.8087
vt 0.4219 0.7943
vt 0.6693 0.8186
vt 0.6947 0.8402
vt 0.6908 0.8465
vt 0.6650 0.8254
vt 0.5424 0.6750
vt 0.5693 0.6749
vt 0.5590 0.7078
vt 0.5454 0.7107
vt 0.7422 0.8407
vt 0.7376 0.8567
vt 0.7912 0.9063
vt 0.6162 0.7926
vt 0.6144 0.7974
vt 0.5883 0.7830
vt 0.5898 0.7778
vt 0.7533 0.5542
vt 0.7311 0.5266
vt 0.5539 0.2339
vt 0.5489 0.2165
vt 0.5594 0.2172
vt 0.5672 0.2341
vt 0.5815 0.7481
vt 0.6053 0.7471
vt 0.1820 0.9194
vt 0.2017 0.9106
vt 0.2043 0.9174
vt 0.1822 0.9282
vt 0.3328 0.7674
vt 0.3565 0.7340
vt 0.3591 0.7347
vt 0.3373 0.7694
vt 0.7802 0.6052
vt 0.7629 0.5891
vt 0.7642 0.5861
vt 0.7816 0.6028
vt 0.8155 0.9207
vt 0.8143 0.9331
vt 0.4941 0.5131
vt 0.4878 0.5122
vt 0.4902 0.4907
vt 0.4966 0.4920
vt 0.4826 0.0330
vt 0.4823 0.0076
vt 0.4873 0.0077
vt 0.4877 0.0335
vt 0.6823 0.7860
vt 0.6717 0.7833
vt 0.6553 0.7638
vt 0.6601 0.7487
vt 0.4877 0.1124
vt 0.4862 0.0944
vt 0.4920 0.0938
vt 0.4952 0.1115
vt 0.8007 0.5802
vt 0.8144 0.5948
vt 0.8096 0.5977
vt 0.7948 0.5829
vt 0.6248 0.3820
vt 0.6363 0.4026
vt 0.6296 0.4252
vt 0.6070 0.3967
vt 0.5816 0.5790
vt 0.5961 0.6048
vt 0.5886 0.6087
vt 0.5745 0.5823
vt 0.3399 0.3749
vt 0.3445 0.3772
vt 0.7171 0.4843
vt 0.7149 0.4883
vt 0.6942 0.4656
vt 0.6977 0.4619
vt 0.7933 0.6207
vt 0.7948 0.6179
vt 0.8116 0.6306
vt 0.8104 0.6339
vt 0.6066 0.6401
vt 0.4723 0.0540
vt 0.4732 0.0348
vt 0.4782 0.0334
vt 0.4787 0.0532
vt 0.6207 0.7843
vt 0.6284 0.7643
vt 0.6513 0.7789
vt 0.6452 0.7979
vt 0.4766 0.5368
vt 0.4878 0.5122
vt 0.4839 0.0687
vt 0.4795 0.0691
vt 0.4787 0.0532
vt 0.4831 0.0528
vt 0.6330 0.6668
vt 0.6265 0.6706
vt 0.5898 0.7778
vt 0.5490 0.7681
vt 0.2472 0.5096
vt 0.2486 0.5216
vt 0.2219 0.5458
vt 0.2194 0.5335
vt 0.7699 0.5754
vt 0.7656 0.5848
vt 0.5232 0.5397
vt 0.5245 0.5669
vt 0.4877 0.0529
vt 0.4884 0.0687
vt 0.8687 0.9169
vt 0.8688 0.9248
vt 0.8427 0.9148
vt 0.8445 0.9080
vt 0.4575 0.0107
vt 0.4623 0.0386
vt 0.1720 0.5869
vt 0.1851 0.5768
vt 0.1884 0.5822
vt 0.1757 0.5927
vt 0.2350 0.8814
vt 0.2520 0.8666
vt 0.2559 0.8701
vt 0.2390 0.8847
vt 0.3721 0.7158
vt 0.3696 0.7151
vt 0.7622 0.8613
vt 0.7563 0.8750
vt 0.2137 0.5237
vt 0.2164 0.5262
vt 0.1979 0.5542
vt 0.1934 0.5524
vt 0.6047 0.3293
vt 0.5929 0.2984
vt 0.5972 0.2962
vt 0.6091 0.3271
vt 0.4912 0.3032
vt 0.4588 0.7409
vt 0.4872 0.7599
vt 0.4450 0.7715
vt 0.4302 0.7486
vt 0.5349 0.1913
vt 0.5473 0.1900
vt 0.5246 0.1605
vt 0.5051 0.1314
vt 0.5155 0.1310
vt 0.5321 0.1559
vt 0.4731 0.1113
vt 0.4682 0.1108
vt 0.4696 0.0935
vt 0.4737 0.0936
vt 0.6951 0.8368
vt 0.3144 0.8205
vt 0.3326 0.7947
vt 0.5632 0.2642
vt 0.5449 0.2663
vt 0.5355 0.2358
vt 0.5539 0.2339
vt 0.4687 0.5648
vt 0.5174 0.5149
vt 0.5174 0.5396
vt 0.5115 0.5396
vt 0.5099 0.5147
vt 0.5785 0.2651
vt 0.6570 0.7213
vt 0.6699 0.7403
vt 0.6601 0.7487
vt 0.6436 0.7262
vt 0.5294 0.2704
vt 0.4916 0.2636
vt 0.4912 0.3032
vt 0.5007 0.0543
vt 0.4998 0.0700
vt 0.4946 0.0690
vt 0.4945 0.0532
vt 0.2560 0.5420
vt 0.2539 0.5394
vt 0.2773 0.5165
vt 0.2789 0.5208
vt 0.3253 0.4712
vt 0.3258 0.4680
vt 0.5700 0.2342
vt 0.4013 0.4302
vt 0.7329 0.8728
vt 0.5205 0.7680
vt 0.4938 0.7738
vt 0.4921 0.7687
vt 0.5207 0.7621
vt 0.7875 0.5944
vt 0.7911 0.5883
vt 0.8063 0.6027
vt 0.8019 0.6088
vt 0.1833 0.6044
vt 0.1817 0.6017
vt 0.1948 0.5922
vt 0.1964 0.5949
vt 0.2183 0.8967
vt 0.5565 0.1944
vt 0.5508 0.1903
vt 0.5321 0.1559
vt 0.5354 0.1539
vt 0.2597 0.9250
vt 0.2619 0.9294
vt 0.5036 0.0702
vt 0.5041 0.0858
vt 0.5006 0.0859
vt 0.4998 0.0700
vt 0.5825 0.7044
vt 0.5693 0.6749
vt 0.5922 0.6754
vt 0.6079 0.7040
vt 0.5742 0.5569
vt 0.5721 0.5578
vt 0.5579 0.5290
vt 0.5613 0.5289
vt 0.5182 0.6406
vt 0.5185 0.6746
vt 0.7100 0.5012
vt 0.4679 0.3452
vt 0.4485 0.3428
vt 0.3096 0.8782
vt 0.3134 0.8839
vt 0.4401 0.6087
vt 0.4537 0.5836
vt 0.4553 0.5846
vt 0.4419 0.6097
vt 0.4774 0.0076
vt 0.4782 0.0334
vt 0.1479 0.9344
vt 0.1472 0.9408
vt 0.6318 0.3791
vt 0.6439 0.3987
vt 0.6389 0.4018
vt 0.6272 0.3818
vt 0.4910 0.5678
vt 0.5019 0.5675
vt 0.7454 0.5714
vt 0.7468 0.5675
vt 0.8986 0.9580
vt 0.9006 0.9419
vt 0.6786 0.4867
vt 0.4946 0.0690
vt 0.4963 0.0855
vt 0.4900 0.0854
vt 0.4884 0.0687
vt 0.6773 0.4883
vt 0.7023 0.5106
vt 0.6952 0.5127
vt 0.6745 0.4921
vt 0.6012 0.2939
vt 0.6125 0.3254
vt 0.7875 0.5944
vt 0.7823 0.6024
vt 0.4682 0.1350
vt 0.4616 0.1353
vt 0.2096 0.9384
vt 0.2083 0.9251
vt 0.2265 0.9096
vt 0.2303 0.9232
vt 0.7448 0.8390
vt 0.7650 0.8592
vt 0.3691 0.8200
vt 0.3736 0.8263
vt 0.4888 0.3777
vt 0.4880 0.4134
vt 0.4662 0.4141
vt 0.4663 0.3771
vt 0.4237 0.6748
vt 0.4113 0.6744
vt 0.6991 0.7672
vt 0.7030 0.7656
vt 0.7152 0.7837
vt 0.7121 0.7865
vt 0.1844 0.5746
vt 0.1816 0.5719
vt 0.1979 0.5542
vt 0.2010 0.5568
vt 0.6786 0.4867
vt 0.6773 0.4883
vt 0.6520 0.4661
vt 0.6525 0.4644
vt 0.8215 0.6164
vt 0.8177 0.6219
vt 0.1935 0.5901
vt 0.1930 0.5896
vt 0.3803 0.7517
vt 0.3849 0.7665
vt 0.3672 0.7865
vt 0.3558 0.7887
vt 0.3400 0.8204
vt 0.3632 0.8003
vt 0.5042 0.0551
vt 0.4789 0.7085
vt 0.4588 0.7409
vt 0.4511 0.7054
vt 0.4674 0.6747
vt 0.2303 0.9232
vt 0.2538 0.9086
vt 0.2592 0.9226
vt 0.2337 0.9363
vt 0.8691 0.9298
vt 0.9012 0.9399
vt 0.4805 0.1122
vt 0.4740 0.1335
vt 0.3649 0.7397
vt 0.3431 0.7740
vt 0.3529 0.3819
vt 0.3496 0.3796
vt 0.3589 0.3590
vt 0.3633 0.3621
vt 0.8193 0.9053
vt 0.8409 0.9198
vt 0.8398 0.9224
vt 0.8177 0.9078
vt 0.3531 0.3568
vt 0.3488 0.3539
vt 0.3651 0.3212
vt 0.3704 0.3240
vt 0.6620 0.8306
vt 0.6391 0.8131
vt 0.5529 0.5089
vt 0.5579 0.5290
vt 0.1674 0.6134
vt 0.1708 0.6167
vt 0.5360 0.3734
vt 0.8431 0.9567
vt 0.8449 0.9526
vt 0.4219 0.6352
vt 0.4235 0.6368
vt 0.5050 0.0920
vt 0.2441 0.8909
vt 0.2608 0.8763
vt 0.4113 0.6744
vt 0.4091 0.6727
vt 0.4665 0.4233
vt 0.4665 0.4292
vt 0.1806 0.5998
vt 0.1664 0.6111
vt 0.4237 0.6748
vt 0.4459 0.6428
vt 0.4619 0.6434
vt 0.4409 0.6748
vt 0.5607 0.3022
vt 0.5584 0.3372
vt 0.7872 0.9221
vt 0.8138 0.9354
vt 0.8120 0.9406
vt 0.7853 0.9265
vt 0.4743 0.0860
vt 0.4737 0.0698
vt 0.5456 0.6149
vt 0.5617 0.6147
vt 0.5747 0.6432
vt 0.5554 0.6427
vt 0.5008 0.0359
vt 0.5045 0.0370
vt 0.4952 0.1115
vt 0.7729 0.5677
vt 0.7748 0.5654
vt 0.7920 0.5855
vt 0.7911 0.5883
vt 0.2993 0.4911
vt 0.8251 0.8948
vt 0.8228 0.8998
vt 0.8021 0.8833
vt 0.8069 0.8792
vt 0.4987 0.0085
vt 0.4958 0.0290
vt 0.4927 0.0347
vt 0.4937 0.0081
vt 0.4037 0.6694
vt 0.4013 0.6683
vt 0.5741 0.3007
vt 0.2262 0.5593
vt 0.2515 0.5331
vt 0.5617 0.6147
vt 0.5520 0.5911
vt 0.5260 0.5923
vt 0.5385 0.5924
vt 0.5456 0.6149
vt 0.5282 0.6149
vt 0.4052 0.2666
vt 0.4032 0.2663
vt 0.4190 0.2342
vt 0.4220 0.2335
vt 0.2946 0.8918
vt 0.3091 0.8756
vt 0.3096 0.8782
vt 0.2950 0.8942
vt 0.3764 0.8318
vt 0.3504 0.8534
vt 0.2807 0.9056
vt 0.2810 0.9085
vt 0.5245 0.5669
vt 0.5260 0.5923
vt 0.4641 0.5882
vt 0.4731 0.5911
vt 0.4623 0.6156
vt 0.4508 0.6140
vt 0.3456 0.7759
vt 0.7782 0.5629
vt 0.7605 0.5371
vt 0.7640 0.5344
vt 0.7834 0.5606
vt 0.3748 0.3266
vt 0.3776 0.3283
vt 0.5870 0.2609
vt 0.5845 0.2629
vt 0.5740 0.2326
vt 0.5768 0.2297
vt 0.6243 0.4565
vt 0.6035 0.4450
vt 0.6038 0.4397
vt 0.6257 0.4521
vt 0.2873 0.9173
vt 0.2646 0.9333
vt 0.2619 0.9294
vt 0.2856 0.9131
vt 0.7075 0.8601
vt 0.7124 0.8561
vt 0.7073 0.8683
vt 0.7075 0.8601
vt 0.7294 0.8810
vt 0.7279 0.8860
vt 0.2836 0.4588
vt 0.2865 0.4628
vt 0.3239 0.7891
vt 0.3063 0.8152
vt 0.3024 0.8135
vt 0.3208 0.7865
vt 0.2052 0.5666
vt 0.6358 0.3771
vt 0.6487 0.3965
vt 0.7510 0.8918
vt 0.1553 0.5940
vt 0.1693 0.5826
vt 0.1528 0.9645
vt 0.1525 0.9651
vt 0.6101 0.6743
vt 0.6279 0.7038
vt 0.3153 0.4382
vt 0.3134 0.4354
vt 0.3392 0.4022
vt 0.3418 0.4034
vt 0.6689 0.4380
vt 0.6713 0.4330
vt 0.8072 0.6008
vt 0.7920 0.5855
vt 0.4439 0.3754
vt 0.3819 0.2898
vt 0.3856 0.2926
vt 0.6937 0.7717
vt 0.7070 0.7910
vt 0.7453 0.9018
vt 0.7472 0.8969
vt 0.7631 0.9108
vt 0.7611 0.9154
vt 0.6025 0.3296
vt 0.7700 0.8537
vt 0.8445 0.9485
vt 0.4712 0.0079
vt 0.2993 0.8995
vt 0.2856 0.9131
vt 0.1516 0.5909
vt 0.1655 0.5795
vt 0.2597 0.9250
vt 0.2592 0.9226
vt 0.4243 0.7993
vt 0.3995 0.8143
vt 0.4623 0.6156
vt 0.4744 0.6165
vt 0.5345 0.6412
vt 0.5424 0.6750
vt 0.7220 0.5459
vt 0.4664 0.4175
vt 0.4662 0.4141
vt 0.4762 0.5326
vt 0.4813 0.5111
vt 0.4931 0.7112
vt 0.4255 0.7054
vt 0.7610 0.5919
vt 0.7437 0.5738
vt 0.7782 0.5629
vt 0.2738 0.8929
vt 0.2865 0.8769
vt 0.5207 0.7555
vt 0.5205 0.7519
vt 0.5867 0.6095
vt 0.6040 0.6409
vt 0.5316 0.4238
vt 0.5311 0.4299
vt 0.2133 0.9591
vt 0.1892 0.9658
vt 0.1871 0.9623
vt 0.2114 0.9549
vt 0.5194 0.7117
vt 0.5205 0.7519
vt 0.5913 0.6422
vt 0.8228 0.8998
vt 0.8427 0.9148
vt 0.5074 0.6146
vt 0.5178 0.6140
vt 0.1564 0.9718
vt 0.1537 0.9681
vt 0.5249 0.5145
vt 0.5335 0.5137
vt 0.5472 0.7730
vt 0.7567 0.5440
vt 0.7582 0.5415
vt 0.7402 0.5095
vt 0.7605 0.5371
vt 0.7582 0.5415
vt 0.7376 0.5134
vt 0.7784 0.6083
vt 0.5234 0.1273
vt 0.5103 0.1083
vt 0.4409 0.6748
vt 0.3687 0.8165
vt 0.5168 0.4928
vt 0.7542 0.8300
vt 0.4982 0.0932
vt 0.7337 0.8105
vt 0.7309 0.8132
vt 0.4663 0.3771
vt 0.4439 0.3754
vt 0.1827 0.9332
vt 0.8451 0.9466
vt 0.8445 0.9485
vt 0.8138 0.9354
vt 0.8143 0.9331
vt 0.4842 0.4890
vt 0.3721 0.7158
vt 0.3827 0.6970
vt 0.8177 0.9078
vt 0.7956 0.8918
vt 0.5229 0.4926
vt 0.5636 0.5614
vt 0.5544 0.5634
vt 0.3992 0.2636
vt 0.4032 0.2663
vt 0.3895 0.2950
vt 0.3856 0.2926
vt 0.3293 0.7936
vt 0.3431 0.7740
vt 0.2706 0.8555
vt 0.2760 0.8612
vt 0.3513 0.4558
vt 0.3260 0.4754
vt 0.4052 0.2666
vt 0.4202 0.2669
vt 0.4085 0.2979
vt 0.3914 0.2953
vt 0.6593 0.7195
vt 0.6656 0.7154
vt 0.6782 0.7342
vt 0.6724 0.7384
vt 0.3992 0.2636
vt 0.3966 0.2612
vt 0.4650 0.1104
vt 0.4594 0.1327
vt 0.5473 0.1900
vt 0.6356 0.6657
vt 0.1948 0.5922
vt 0.6911 0.7738
vt 0.2129 0.5823
vt 0.3119 0.8170
vt 0.1484 0.9472
vt 0.1475 0.9451
vt 0.1827 0.9332
vt 0.1843 0.9359
vt 0.5379 0.1494
vt 0.5354 0.1539
vt 0.5625 0.1925
vt 0.7567 0.5440
vt 0.7358 0.5151
vt 0.5846 0.3327
vt 0.5741 0.3007
vt 0.5436 0.5659
vt 0.5345 0.6412
vt 0.6885 0.8523
vt 0.8120 0.9406
vt 0.8089 0.9447
vt 0.4801 0.0941
vt 0.1768 0.5689
vt 0.1816 0.5719
vt 0.5178 0.6140
vt 0.4554 0.2315
vt 0.8072 0.6008
vt 0.8229 0.6152
vt 0.4696 0.0935
vt 0.4667 0.0927
vt 0.2773 0.5165
vt 0.3011 0.4958
vt 0.4516 0.1864
vt 0.4435 0.2130
vt 0.3728 0.4454
vt 0.3730 0.4508
vt 0.3531 0.4604
vt 0.3513 0.4558
vt 0.4967 0.5936
vt 0.4901 0.6156
vt 0.5132 0.2763
vt 0.5294 0.2704
vt 0.4622 0.5619
vt 0.4641 0.5626
vt 0.3290 0.4789
vt 0.5325 0.4176
vt 0.5115 0.0131
vt 0.5069 0.0397
vt 0.5045 0.0370
vt 0.5085 0.0108
vt 0.3687 0.8165
vt 0.4544 0.1520
vt 0.4516 0.1501
vt 0.4851 0.0854
vt 0.4803 0.0856
vt 0.2456 0.5078
vt 0.5194 0.7117
vt 0.5325 0.4176
vt 0.5103 0.4166
vt 0.2096 0.9384
vt 0.1857 0.9459
vt 0.2669 0.4874
vt 0.4507 0.7846
vt 0.4489 0.7793
vt 0.2629 0.8784
vt 0.2790 0.8634
vt 0.7195 0.5483
vt 0.7220 0.5459
vt 0.4851 0.0854
vt 0.4900 0.0854
vt 0.5091 0.5924
vt 0.5074 0.6146
vt 0.2298 0.5670
vt 0.5469 0.4874
vt 0.5504 0.4845
vt 0.5558 0.5065
vt 0.5529 0.5089
vt 0.3667 0.7411
vt 0.6369 0.7472
vt 0.6284 0.7643
vt 0.6053 0.7471
vt 0.6079 0.7040
vt 0.4036 0.7457
vt 0.4102 0.7664
vt 0.3893 0.7816
vt 0.3849 0.7665
vt 0.4916 0.2636
vt 0.3728 0.4454
vt 0.4014 0.4353
vt 0.3739 0.3954
vt 0.3450 0.4241
vt 0.3418 0.4034
vt 0.3529 0.3819
vt 0.1930 0.5896
vt 0.4743 0.0860
vt 0.4803 0.0856
vt 0.4187 0.7863
vt 0.4102 0.7664
vt 0.3200 0.4496
vt 0.4723 0.0540
vt 0.4669 0.0554
vt 0.4340 0.1789
vt 0.4499 0.1491
vt 0.6505 0.4696
vt 0.2786 0.4563
vt 0.2877 0.4653
vt 0.3748 0.3266
vt 0.2970 0.8428
vt 0.2945 0.8412
vt 0.7200 0.4813
vt 0.7435 0.5065
vt 0.7402 0.5095
vt 0.7171 0.4843
vt 0.4384 0.2662
vt 0.4202 0.2669
vt 0.4369 0.2332
vt 0.4554 0.2315
vt 0.5419 0.4895
vt 0.5463 0.5107
vt 0.2889 0.8354
vt 0.3063 0.8152
vt 0.3119 0.8170
vt 0.2945 0.8412
vt 0.6261 0.3573
vt 0.6222 0.3592
vt 0.6782 0.7342
vt 0.6806 0.7334
vt 0.5718 0.2143
vt 0.5659 0.2155
vt 0.5627 0.2171
vt 0.6967 0.5201
vt 0.7996 0.2878
vt 0.4731 0.2316
vt 0.2668 0.8521
vt 0.4927 0.0347
vt 0.4621 0.5876
vt 0.6754 0.7975
vt 0.4458 0.7740
vt 0.5207 0.7555
vt 0.4885 0.7627
vt 0.3316 0.8695
vt 0.5099 0.5669
vt 0.6689 0.4380
vt 0.6668 0.4403
vt 0.4743 0.5331
vt 0.4762 0.5326
vt 0.2402 0.9474
vt 0.6480 0.4718
vt 0.3893 0.7816
vt 0.6241 0.6724
vt 0.6441 0.7020
vt 0.5627 0.2171
vt 0.5460 0.5364
vt 0.4876 0.4224
vt 0.6463 0.7006
vt 0.5460 0.5364
vt 0.1506 0.9553
vt 0.1857 0.9459
vt 0.4276 0.3393
vt 0.4021 0.3355
vt 0.4085 0.2979
vt 0.4298 0.2999
vt 0.8688 0.9248
vt 0.9011 0.9357
vt 0.7070 0.7910
vt 0.7268 0.8172
vt 0.4308 0.2116
vt 0.4220 0.2335
vt 0.5833 0.5779
vt 0.4179 0.3723
vt 0.3940 0.3664
vt 0.3026 0.4999
vt 0.7328 0.8753
vt 0.4687 0.5648
vt 0.4621 0.5876
vt 0.8250 0.6128
vt 0.9006 0.9292
vt 0.6153 0.3610
vt 0.6173 0.3612
vt 0.4635 0.0566
vt 0.4669 0.0554
vt 0.8699 0.9547
vt 0.1806 0.5998
vt 0.4728 0.1533
vt 0.4897 0.1322
vt 0.4599 0.0408
vt 0.4547 0.0131
vt 0.4773 0.5088
vt 0.4802 0.4865
vt 0.6727 0.4961
vt 0.4737 0.0698
vt 0.7027 0.4594
vt 0.4897 0.1322
vt 0.7328 0.8753
vt 0.3805 0.6959
vt 0.3827 0.6970
vt 0.8289 0.6095
vt 0.5907 0.3653
vt 0.5846 0.3327
vt 0.5907 0.3653
vt 0.7827 0.9308
vt 0.6767 0.4308
vt 0.2858 0.8332
vt 0.5038 0.0095
vt 0.3200 0.4496
vt 0.4605 0.1534
vt 0.9241 0.3767
vt 0.8235 0.1668
vt 0.8085 0.0301
vt 0.9439 0.4163
vt 0.9394 0.4153
vt 0.8811 0.3824
vt 0.8792 0.3843
vt 0.8973 0.9599
f 81/1 79/2 45/3 54/4
f 165/5 188/6 189/7 167/8
f 234/9 269/10 271/11 243/12
f 19/13 18/14 22/15 24/16
f 54/4 52/17 82/18 81/1
f 290/19 289/20 288/21 291/22
f 335/23 316/24 315/25 328/26
f 247/27 231/28 233/29 248/30
f 192/31 201/32 199/33 219/34
f 300/35 350/36 346/37 297/38
f 20/39 19/13 24/16 25/40
f 228/41 223/42 262/43 264/44
f 210/45 215/46 214/47 209/48
f 193/49 194/50 205/51 203/52
f 303/53 345/54 347/55 310/56
f 143/57 144/58 147/59 146/60
f 343/61 306/62 308/63 342/64
f 28/65 29/66 7/67 6/68
f 61/69 79/2 81/1 62/70
f 333/71 313/72 299/73 317/74
f 221/75 266/76 265/77 222/78
f 273/79 270/80 254/81 255/82
f 710/83 712/84 619/85 618/86
f 63/87 64/88 1223/89 1222/90
f 314/91 344/92 340/93 298/94
f 192/31 219/34 213/95 214/96
f 98/97 99/98 100/99 101/100
f 67/101 71/102 54/4 45/3
f 348/103 312/104 314/105 350/106
f 367/107 366/108 371/109 372/110
f 59/111 58/112 1224/113 1225/114
f 1226/115 43/116 38/117 56/118
f 18/14 1/119 23/120 22/15
f 32/121 33/122 75/123 76/124
f 78/125 60/126 65/127 83/128
f 586/129 503/130 502/131 457/132
f 129/133 132/134 117/135 114/136
f 3/137 4/138 26/139 25/140
f 76/124 75/123 43/141 42/142
f 388/143 295/144 287/145 288/146
f 280/147 293/148 294/149 281/150
f 218/151 212/152 211/153 217/154
f 62/70 63/87 1222/90 61/69
f 55/155 35/156 41/157 57/158
f 58/112 1226/115 56/118 1224/113
f 265/159 232/160 227/161 263/162
f 1091/163 1002/164 1092/165 1090/166
f 256/167 275/168 277/169 258/170
f 32/121 48/171 47/172 33/122
f 353/173 354/174 378/175 377/176
f 350/36 314/105 298/94 346/37
f 201/32 192/31 193/49 203/52
f 124/177 108/178 149/179 153/180
f 376/181 375/182 360/183 361/184
f 109/185 127/186 126/187 110/188
f 347/189 309/190 311/191 349/192
f 153/180 151/193 122/194 124/177
f 378/175 372/110 371/109 377/176
f 102/195 92/196 90/197 103/198
f 345/54 302/199 309/190 347/55
f 21/200 20/39 25/40 26/139
f 14/201 15/202 17/203 16/204
f 37/205 85/206 87/207 50/208
f 68/209 51/210 53/211 70/212
f 277/169 274/213 260/214 258/170
f 334/215 333/216 337/217 338/218
f 277/169 239/219 238/220 274/213
f 259/221 278/222 279/223 261/224
f 34/225 37/205 50/208 39/226
f 199/227 200/228 197/229 195/230
f 80/231 64/88 63/87 82/232
f 109/185 123/233 143/234 127/186
f 302/199 339/235 341/236 309/190
f 253/237 272/238 271/239 252/240
f 292/241 287/242 285/243 293/244
f 373/245 372/110 378/175 379/246
f 285/243 287/242 295/144 392/247
f 77/248 76/124 42/142 44/249
f 88/250 89/251 47/172 48/171
f 21/200 26/139 27/252 2/253
f 255/82 250/254 268/255 273/79
f 308/63 306/62 323/256 321/257
f 228/258 229/259 238/220 239/219
f 207/260 211/153 212/152 190/261
f 220/262 222/78 265/77 263/162
f 402/263 455/264 453/265 452/266
f 232/160 265/159 266/76 231/267
f 308/63 321/257 322/268 307/269
f 336/270 337/217 333/216 317/74
f 136/271 147/59 144/58 135/272
f 153/180 149/179 114/136 117/135
f 196/273 218/151 217/154 195/274
f 33/122 47/172 46/275 31/276
f 320/277 323/256 306/62 305/278
f 183/279 189/7 188/6 182/280
f 113/281 120/282 156/283 154/284
f 285/243 286/285 294/149 293/244
f 172/286 171/287 169/288 170/289
f 310/56 347/55 349/192 313/290
f 253/237 254/81 270/80 272/238
f 229/259 228/258 264/44 267/291
f 155/292 159/293 110/294 107/295
f 81/1 82/18 63/87 62/70
f 165/5 167/8 168/296 166/297
f 1221/298 145/299 146/300 1220/301
f 903/302 952/303 951/304 934/305
f 356/306 357/307 359/308 358/309
f 401/310 431/311 399/312 815/313
f 162/314 186/315 187/316 163/317
f 229/259 267/291 266/76 221/75
f 10/318 11/319 13/320 12/321
f 162/314 163/317 164/322 173/323
f 53/324 80/231 82/232 52/17
f 104/325 96/326 95/327 103/328
f 348/103 350/106 300/35 299/329
f 280/147 282/330 292/241 293/148
f 118/331 117/135 132/134 131/332
f 307/269 322/268 319/333 304/334
f 370/335 365/336 351/337 369/338
f 6/68 10/339 30/340 28/65
f 59/341 57/158 41/157 44/342
f 267/291 233/29 231/28 266/76
f 341/343 305/278 306/62 343/61
f 119/344 112/345 154/284 156/283
f 28/65 30/340 24/16 22/15
f 27/252 26/139 4/138 5/346
f 49/347 40/348 39/226 50/208
f 165/5 166/297 164/322 163/317
f 140/349 141/350 133/351 131/352
f 277/169 275/168 226/353 239/219
f 202/354 200/228 199/227 201/32
f 381/355 98/356 97/357 105/358
f 379/246 378/175 354/174 356/359
f 339/235 301/360 305/278 341/236
f 353/173 364/361 355/362 354/174
f 180/363 186/364 185/365 179/366
f 225/367 256/167 258/170 240/368
f 386/369 387/370 106/371 384/372
f 68/209 66/373 36/374 51/210
f 185/375 170/289 169/288 184/376
f 156/283 158/377 121/378 119/344
f 151/193 152/379 121/380 122/194
f 365/336 370/335 371/109 366/108
f 344/92 307/269 304/334 340/93
f 87/207 84/381 49/347 50/208
f 261/224 279/223 276/382 257/383
f 217/154 211/153 213/95 219/34
f 97/357 98/356 101/100 102/384
f 355/362 357/307 356/306 354/174
f 183/279 182/280 177/385 161/386
f 29/66 28/65 22/15 23/120
f 322/268 332/387 327/388 319/333
f 260/214 274/213 278/222 259/221
f 7/67 9/389 8/390 6/68
f 110/188 126/187 125/391 107/295
f 180/363 181/392 187/316 186/364
f 157/393 158/394 123/233 109/185
f 274/213 238/220 237/395 278/222
f 325/396 303/53 310/56 334/397
f 72/398 34/225 39/226 74/399
f 273/79 268/255 225/367 240/368
f 160/400 174/401 179/402 178/403
f 92/196 102/195 101/100 93/404
f 120/282 123/233 158/394 156/283
f 301/360 318/405 320/277 305/278
f 316/406 317/74 299/73 300/35
f 122/194 121/380 158/377 157/393
f 373/245 368/407 367/107 372/110
f 150/408 148/409 112/345 119/344
f 233/29 267/291 264/44 230/410
f 291/411 292/241 282/330 283/412
f 100/99 94/413 93/404 101/100
f 244/414 246/415 230/416 224/417
f 16/204 5/346 4/138 14/201
f 111/418 115/419 130/420 128/421
f 133/351 116/422 118/331 131/352
f 248/30 1231/423 1232/424 247/27
f 224/417 230/416 264/44 262/43
f 334/215 310/56 313/290 333/216
f 176/425 177/385 182/280 181/426
f 296/427 391/428 390/429 389/430
f 95/327 97/357 102/384 103/328
f 370/335 369/338 375/182 376/181
f 12/321 13/320 15/202 14/201
f 38/117 43/116 75/123 73/431
f 83/432 80/231 53/324 51/210
f 204/433 202/354 201/32 203/52
f 235/434 236/435 222/78 220/262
f 108/178 124/177 159/293 155/292
f 272/238 270/80 242/436 241/437
f 213/95 208/438 209/48 214/96
f 123/233 120/282 144/58 143/234
f 150/408 119/344 121/378 152/379
f 148/409 150/408 115/419 111/418
f 141/350 139/439 130/440 133/351
f 216/441 215/46 210/45 191/442
f 89/251 86/443 46/275 47/172
f 312/104 342/444 344/92 314/105
f 230/410 246/415 248/30 233/29
f 251/445 252/240 271/239 269/10
f 74/399 39/226 40/348 77/446
f 258/170 260/214 242/447 240/368
f 374/448 373/245 379/246 380/449
f 193/49 215/46 216/441 194/50
f 179/366 185/365 184/376 178/403
f 182/280 188/6 187/316 181/426
f 3/450 30/340 10/339 12/321
f 238/220 229/259 221/75 237/395
f 70/451 69/452 88/453 84/454
f 150/408 152/379 116/455 115/419
f 336/456 335/23 328/26 1229/457
f 272/238 241/437 243/12 271/239
f 349/192 311/191 312/104 348/103
f 75/123 33/122 31/276 73/431
f 70/212 84/454 87/207 68/209
f 383/458 384/372 106/371 382/459
f 197/229 198/460 196/273 195/230
f 8/390 11/319 10/318 6/68
f 35/156 72/398 74/399 41/157
f 332/387 322/268 321/257 330/461
f 188/6 165/5 163/317 187/316
f 1227/462 331/463 329/464 324/465
f 325/396 334/397 338/218 326/466
f 120/282 113/281 135/272 144/58
f 342/444 308/63 307/269 344/92
f 368/407 373/245 374/448 352/467
f 331/463 1227/462 1228/468 330/469
f 206/470 204/433 203/52 205/51
f 71/102 67/101 86/443 89/251
f 231/28 247/27 249/471 232/160
f 95/327 385/472 105/358 97/357
f 211/153 207/260 208/438 213/95
f 24/16 30/340 3/450 25/40
f 361/473 363/474 364/361 353/173
f 291/22 288/21 287/145 292/241
f 239/219 226/353 223/42 228/258
f 74/399 77/446 44/249 41/157
f 283/412 284/475 290/19 291/411
f 380/449 379/246 356/359 358/309
f 157/393 159/293 124/177 122/194
f 89/251 88/250 69/452 71/102
f 143/57 146/60 145/299 127/186
f 58/112 59/111 44/342 42/142
f 1230/476 337/217 336/270 1229/457
f 336/270 317/74 316/406 335/23
f 146/60 147/59 136/271 1220/301
f 52/17 54/4 71/102 69/452
f 360/183 362/477 363/474 361/184
f 32/121 40/348 49/347 48/171
f 4/138 3/137 12/321 14/201
f 245/478 227/161 232/160 249/471
f 278/222 237/395 236/479 279/223
f 170/289 162/314 173/323 172/286
f 377/176 376/181 361/184 353/173
f 118/331 116/422 152/379 151/193
f 313/72 349/192 348/103 299/73
f 376/181 377/176 371/109 370/335
f 110/294 159/293 157/393 109/185
f 170/289 185/375 186/364 162/314
f 261/224 243/12 241/437 259/221
f 48/171 49/347 84/381 88/250
f 104/325 103/328 90/197 91/480
f 36/374 78/125 83/128 51/210
f 64/88 80/231 83/432 65/127
f 253/237 1233/481 1234/482 254/81
f 87/207 85/206 66/373 68/209
f 242/436 260/214 259/221 241/437
f 311/191 343/61 342/64 312/104
f 180/363 175/483 176/425 181/392
f 180/363 179/366 174/401 175/483
f 279/223 236/479 235/434 276/382
f 130/440 115/419 116/455 133/351
f 330/461 321/257 323/256 331/463
f 192/31 214/96 215/46 193/49
f 219/34 199/33 195/230 217/154
f 137/484 142/485 132/134 129/133
f 76/124 77/248 40/348 32/121
f 315/25 316/24 300/35 297/38
f 53/211 52/17 69/452 70/212
f 296/427 394/486 393/487 391/428
f 18/14 19/13 1199/488 1/119
f 177/385 176/425 1194/489 161/386
f 21/200 2/253 1195/490 20/39
f 207/260 190/261 1191/491 208/438
f 1233/481 253/237 252/240 251/445
f 365/336 366/108 1192/492 351/337
f 563/493 770/494 768/495 580/496
f 734/497 731/498 506/499 588/500
f 542/501 543/502 806/503 804/504
f 620/505 619/85 712/84 714/506
f 595/507 613/508 614/509 597/510
f 647/511 638/512 686/513 702/514
f 629/515 443/516 438/517 628/518
f 960/519 1146/520 1148/521 963/522
f 941/523 1162/524 1164/525 945/526
f 817/527 1116/528 1113/529 1012/530
f 624/531 623/532 720/533 721/534
f 479/535 487/536 486/537 475/538
f 1147/539 1149/540 1148/521 1146/520
f 1167/541 1169/542 1168/543 1166/544
f 1012/545 1011/546 822/547 826/548
f 829/549 1181/550 1188/551 837/552
f 1114/553 971/554 889/555 1111/556
f 772/557 773/558 771/559 770/560
f 959/561 1016/562 1017/563 956/564
f 815/313 830/565 835/566 401/310
f 1244/567 1241/568 1133/569 1036/570
f 734/497 733/571 732/572 731/498
f 896/573 920/574 862/575 870/576
f 990/577 950/578 929/579 928/580
f 450/581 451/582 430/583 429/584
f 1122/585 857/586 893/587 1121/588
f 860/589 861/590 855/591 856/592
f 427/593 431/594 447/595 448/596
f 628/597 507/598 729/599 732/600
f 986/601 987/602 854/603 849/604
f 1100/605 1098/606 1097/607 1099/608
f 432/609 400/610 398/611 430/612
f 1238/613 1237/614 752/615 495/616
f 420/617 426/618 738/619 590/620
f 479/621 477/622 478/623 537/624
f 570/625 572/626 695/627 691/628
f 630/629 737/630 425/631 421/632
f 1114/553 1115/633 972/634 971/554
f 1127/635 1033/636 1032/637 1126/638
f 1006/639 1099/608 1097/607 1005/640
f 694/641 693/642 690/643 689/644
f 703/645 705/646 706/647 704/648
f 617/649 616/650 705/651 708/652
f 623/532 622/653 717/654 720/533
f 461/655 459/656 488/657 489/658
f 1009/659 1008/660 997/661 998/662
f 1085/663 1030/664 933/665 1070/666
f 401/310 452/667 447/595 431/311
f 1069/668 1085/669 1084/670 1068/671
f 1206/672 1238/613 495/616 599/673
f 603/674 604/675 472/676 470/677
f 466/678 465/679 744/680 745/681
f 1092/165 931/682 927/683 1090/166
f 896/684 897/685 900/686 906/687
f 1064/688 879/689 904/690 1067/691
f 901/692 916/693 915/694 868/695
f 1175/696 1056/697 1055/698 1174/699
f 468/700 406/701 405/702 467/703
f 635/704 571/705 568/706 636/707
f 815/313 399/312 396/708 811/709
f 1008/710 1103/711 1102/712 1007/713
f 821/714 822/547 1011/546 890/715
f 934/305 951/304 1019/716 1020/717
f 1015/718 1083/719 1081/720 1016/721
f 1161/722 966/723 932/724 1156/725
f 1109/726 1107/727 1010/728 890/729
f 1003/730 1235/731 991/732 992/733
f 1044/734 1147/735 1144/736 1043/737
f 627/738 727/739 729/599 507/598
f 832/740 812/741 813/742 833/743
f 433/744 434/745 443/516 629/515
f 1183/746 1058/747 1059/748 1182/749
f 604/750 474/751 510/752 536/753
f 597/510 614/509 615/754 509/755
f 1067/691 904/690 1021/756 1069/757
f 1189/758 1188/551 1181/550 1182/759
f 636/707 568/706 551/760 637/761
f 1167/541 1054/762 1119/763 1169/542
f 525/764 524/765 540/766 518/767
f 1140/768 1141/769 1145/770 1142/771
f 701/772 702/514 686/513 685/773
f 1070/774 1073/775 1072/776 1071/777
f 871/778 872/779 883/780 875/781
f 935/782 954/783 951/304 952/303
f 1016/562 959/561 962/784 1015/718
f 1068/785 1024/786 1023/787 1066/788
f 611/789 622/653 623/532 612/790
f 591/791 592/792 446/793 442/794
f 904/690 879/689 882/795 880/796
f 664/797 665/798 773/799 775/800
f 654/801 655/802 755/803 757/804
f 713/805 716/806 715/807 714/808
f 1015/718 962/784 965/809 1014/810
f 537/811 512/812 523/813 513/814
f 409/815 413/816 486/817 480/818
f 902/819 1204/820 1205/821 989/822
f 418/823 419/824 505/825 504/826
f 667/827 668/828 780/829 779/830
f 1070/774 1071/777 1084/670 1085/663
f 1210/831 436/832 508/833 437/834
f 1129/835 1127/836 1125/837 1128/838
f 1174/699 1055/698 1211/839 1213/840
f 789/841 788/842 790/843 791/844
f 556/845 711/846 709/847 548/848
f 1125/837 1127/836 1126/638 1124/849
f 921/850 898/851 863/852 864/853
f 1021/854 1027/855 1028/856 1030/857
f 510/752 741/858 512/859 536/753
f 411/860 865/861 864/862 410/863
f 1124/849 1126/638 1131/864 1130/865
f 1066/866 1065/867 1064/688 1067/691
f 937/868 996/869 995/870 945/871
f 610/872 621/873 622/653 611/789
f 859/874 860/589 856/592 851/875
f 481/876 482/877 411/860 410/863
f 1047/878 1155/879 1153/880 1048/881
f 905/882 906/687 900/686 899/883
f 966/884 940/885 993/886 992/887
f 662/888 661/889 767/890 769/891
f 1236/892 755/803 655/802 1239/893
f 957/894 956/895 954/783 935/782
f 1053/896 1165/897 1163/898 1052/899
f 798/900 804/901 805/902 799/903
f 430/612 398/611 397/904 429/584
f 499/905 496/906 521/907 497/908
f 592/792 453/909 454/910 446/793
f 456/911 501/912 586/913 458/914
f 886/915 885/916 908/917 907/918
f 1070/666 933/665 1020/919 1073/775
f 568/706 569/920 520/921 551/760
f 441/922 449/923 448/924 591/925
f 510/752 474/751 742/926 741/858
f 408/927 407/928 476/929 475/930
f 508/833 627/738 507/598 437/834
f 441/922 591/925 442/794 543/931
f 1243/932 1029/933 989/934 1240/935
f 449/923 428/936 427/593 448/924
f 812/741 395/937 397/938 813/742
f 484/939 485/940 539/941 538/942
f 595/507 597/510 790/843 788/842
f 947/943 1101/944 1104/945 979/946
f 1010/728 1107/727 1197/947 1196/948
f 800/949 806/503 543/502 442/794
f 1113/529 1112/950 1011/546 1012/530
f 954/783 956/895 1017/563 1018/951
f 416/952 639/953 682/954 424/955
f 609/956 557/957 583/958 608/959
f 939/960 1093/961 1095/962 942/963
f 663/964 771/559 773/558 665/798
f 809/965 808/966 458/967 810/968
f 704/648 706/647 700/969 699/970
f 532/971 533/972 518/973 485/974
f 876/975 872/976 873/977 877/978
f 1039/979 1123/980 1120/981 910/982
f 459/656 403/983 414/984 488/657
f 613/985 612/790 623/532 624/531
f 833/743 813/742 814/986 834/987
f 692/988 693/642 694/641 691/989
f 650/990 651/991 749/992 747/993
f 869/994 413/816 409/815 863/995
f 666/996 664/797 775/800 777/997
f 1209/998 794/999 792/1000 1207/1001
f 472/1002 478/623 477/622 473/1003
f 718/1004 717/1005 715/807 716/806
f 991/1006 990/577 928/580 932/1007
f 1165/897 1053/896 1054/762 1167/541
f 613/985 624/531 625/1008 614/509
f 539/1009 540/1010 483/1011 482/1012
f 723/1013 721/1014 722/1015 724/1016
f 679/1017 678/1018 799/903 805/902
f 609/1019 620/1020 621/873 610/872
f 886/915 969/1021 840/1022 885/916
f 567/1023 546/1024 563/1025 582/1026
f 935/782 1142/1027 1143/1028 957/894
f 687/1029 688/1030 689/644 690/643
f 400/1031 421/1032 1013/1033 816/1034
f 600/1035 599/673 495/616 491/1036
f 1137/1037 1037/1038 1040/1039 1139/1040
f 485/940 518/973 540/766 539/941
f 1158/1041 1159/1042 1163/1043 1162/1044
f 537/811 478/623 536/753 512/812
f 625/1045 723/1046 725/1047 626/1048
f 549/1049 607/1050 608/959 583/958
f 1097/607 1096/1051 1004/1052 1005/640
f 605/1053 1203/1054 1202/1055 519/1056
f 551/1057 519/1056 1202/1055 643/1058
f 531/1059 532/971 485/974 484/939
f 500/1060 499/1061 493/1062 489/1063
f 582/1064 579/1065 632/1066 631/1067
f 1154/1068 1156/1069 932/1007 928/580
f 969/1021 886/915 887/1070 884/1071
f 757/804 755/803 754/1072 756/1073
f 1212/1074 1214/1075 1176/1076 819/1077
f 1150/1078 1152/1079 929/1080 946/1081
f 1177/1082 1060/1083 1061/1084 1179/1085
f 1071/777 948/1086 1031/1087 1084/670
f 894/1088 1120/1089 1121/588 893/587
f 1092/1090 1093/961 939/960 931/1091
f 1122/585 1121/588 1120/1089 1123/980
f 592/792 447/595 452/667 453/909
f 432/609 430/612 451/582 434/1092
f 701/772 688/1030 687/1029 702/514
f 1090/166 927/683 930/1093 1086/1094
f 649/1095 650/990 747/993 746/1096
f 525/764 518/767 533/972 535/1097
f 768/1098 769/891 767/890 766/1099
f 491/1100 750/1101 744/680 465/679
f 1115/633 1118/1102 973/1103 972/634
f 1094/1104 1002/1105 1235/731 1003/730
f 600/1106 601/1107 463/1108 490/1109
f 445/1110 444/1111 451/582 450/581
f 1083/1112 1089/1113 1087/1114 1082/1115
f 923/1116 901/692 868/695 922/1117
f 845/1118 847/1119 846/1120 844/1121
f 484/939 538/942 517/1122 516/1123
f 586/913 501/912 504/1124 503/130
f 558/1125 782/1126 778/1127 557/1128
f 1009/659 1105/1129 1103/711 1008/660
f 600/1106 491/1036 465/679 601/1107
f 1046/1130 1151/1131 1149/1132 1045/1133
f 513/1134 514/1135 515/1136 487/1137
f 746/1096 751/1138 652/1139 649/1095
f 441/922 543/931 542/501 593/1140
f 1006/1141 995/870 996/869 1007/1142
f 986/601 847/1143 853/1144 987/602
f 850/1145 852/1146 845/1147 843/1148
f 926/1149 1186/1150 1180/1151 825/1152
f 243/12 261/224 257/383 234/9
f 634/1153 635/1154 692/1155 696/1156
f 689/644 688/1030 565/1157 553/1158
f 633/1159 634/1153 696/1156 698/1160
f 405/702 406/701 851/1161 850/1162
f 273/79 240/368 242/447 270/80
f 471/1163 603/1164 602/1165 466/1166
f 520/921 642/1167 519/1056 551/760
f 770/560 771/559 769/891 768/495
f 1045/1133 1149/1132 1147/539 1044/734
f 783/1168 785/1169 670/1170 669/1171
f 1178/1172 924/1173 819/1077 1176/1076
f 680/1174 807/1175 803/1176 675/1177
f 555/1178 587/1179 730/1180 728/1181
f 491/1100 495/616 752/615 750/1101
f 575/1182 578/1183 699/1184 697/1185
f 1077/1186 1072/776 1073/775 1076/1187
f 949/1188 1077/1189 1074/1190 953/1191
f 1169/542 1171/1192 1170/1193 1168/543
f 759/1194 761/1195 658/1196 657/1197
f 945/526 995/870 994/1198 941/523
f 1208/1199 672/1200 794/999 1209/998
f 1079/1201 1017/563 1016/562 1081/720
f 1156/725 1157/1202 1160/1203 1161/722
f 618/1204 617/649 708/652 710/1205
f 877/978 873/977 984/1206 983/1207
f 892/1208 1173/1209 1172/1210 820/1211
f 790/843 793/1212 795/1213 791/844
f 603/674 471/1163 474/751 604/675
f 680/1174 679/1017 805/902 807/1175
f 875/781 883/780 882/795 879/689
f 779/830 780/829 781/1214 778/1215
f 1012/545 826/548 818/1216 817/527
f 1179/1085 1061/1084 1062/1217 1185/1218
f 1136/1219 1137/1037 1139/1040 1138/1220
f 955/1221 1078/1222 1080/1223 958/1224
f 541/1225 542/501 804/504 798/900
f 1145/770 1144/1226 1143/1028 1142/771
f 1090/166 1086/1094 1088/1227 1091/163
f 1143/1028 1146/520 960/519 957/894
f 480/818 481/876 410/863 409/815
f 863/852 898/851 870/1228 869/994
f 1099/608 1006/639 1007/1142 1102/712
f 696/1156 695/1229 697/1230 698/1160
f 1157/1202 1049/1231 1051/1232 1160/1203
f 698/1160 700/1233 632/1234 633/1159
f 701/772 685/773 641/1235 648/1236
f 601/1107 602/1237 464/1238 463/1108
f 414/984 403/983 842/1239 871/1240
f 721/1014 720/533 719/1241 722/1015
f 1011/546 1112/950 1109/726 890/715
f 1117/1242 1116/528 817/527 1013/1243
f 741/858 740/1244 511/1245 512/859
f 992/887 991/732 932/724 966/884
f 499/1061 500/1060 492/1246 496/906
f 497/908 494/1247 493/1062 499/905
f 560/1248 561/1249 718/1004 716/806
f 1006/1141 1005/640 994/1198 995/870
f 783/1250 779/830 778/1215 782/1126
f 634/1153 633/1159 576/1251 573/1252
f 879/689 1064/688 423/1253 422/1254
f 849/1255 1125/837 1124/849 848/1256
f 590/620 738/619 735/1257 589/1258
f 547/1259 544/1260 707/1261 703/1262
f 415/1263 422/1264 496/906 492/1246
f 986/601 849/604 848/1256 985/1265
f 1151/1266 1153/1267 1152/1079 1150/1078
f 460/1268 404/1269 403/983 459/656
f 544/1260 548/1270 709/1271 707/1261
f 860/589 859/874 858/1272 862/1273
f 1065/867 1066/866 1023/787 1022/1274
f 1173/1209 1175/696 1174/699 1172/1210
f 620/505 714/506 715/807 621/873
f 558/1125 562/1275 784/1276 782/1126
f 787/1277 785/1278 784/1279 786/1280
f 628/597 732/600 733/571 629/515
f 559/1281 560/1248 716/806 713/805
f 585/1282 457/132 502/131 534/1283
f 490/1284 489/1063 493/1062 494/1247
f 630/629 421/632 400/1031 432/609
f 551/1057 643/1058 550/1285 637/761
f 486/537 413/1286 408/927 475/538
f 1043/737 1144/736 1145/770 1042/1287
f 503/130 504/1124 505/825 524/1288
f 1041/1289 1141/1290 1139/1040 1040/1039
f 619/85 620/505 609/1019 608/959
f 1080/1223 1078/1222 1079/1201 1081/720
f 834/987 814/986 816/1291 818/1292
f 774/1293 775/800 773/799 772/557
f 1000/1294 1088/1295 1089/1296 1014/1297
f 1171/1192 1175/696 1173/1209 1170/1193
f 522/1298 523/813 512/812 511/1245
f 1236/1299 753/1300 752/615 1237/614
f 946/1301 965/809 962/784 963/1302
f 869/1303 870/576 862/575 858/1272
f 857/1304 854/603 987/602 988/1305
f 470/677 464/1238 602/1237 603/674
f 1187/1306 1186/1307 1184/1308 1185/1309
f 642/1167 520/921 758/1310 756/1311
f 766/1099 767/890 764/1312 763/1313
f 311/191 309/190 341/236 343/61
f 1107/727 1108/1314 1198/1315 1197/947
f 926/1316 824/1317 978/1318 925/1319
f 602/1237 601/1107 465/679 466/1166
f 1242/1320 1241/1321 1135/1322 1134/1323
f 1183/746 1187/1324 1063/1325 1058/747
f 917/1326 885/916 840/1022 968/1327
f 456/911 458/914 808/966 454/1328
f 1118/1102 1115/633 1116/528 1117/1242
f 1035/1329 1131/864 1126/638 1032/637
f 804/901 806/503 807/1175 805/902
f 1097/607 1098/606 1095/1330 1096/1051
f 1025/1331 902/819 989/822 1029/933
f 1098/606 943/1332 942/963 1095/1330
f 569/920 760/1333 758/1310 520/921
f 549/1334 776/1335 774/1336 545/1337
f 585/1282 584/1338 810/1339 457/132
f 584/1338 526/1340 809/965 810/1339
f 562/1341 611/789 612/790 554/1342
f 440/1343 444/1111 445/1110 593/1344
f 959/561 956/564 957/894 960/519
f 855/1345 988/1305 987/602 853/1144
f 842/1346 843/1148 845/1147 844/1121
f 1077/1189 949/1188 936/1347 1072/776
f 1087/1348 1086/1094 930/1093 964/1349
f 887/1070 886/915 907/918 888/1350
f 1160/1203 1051/1232 1050/1351 1159/1352
f 657/1197 654/801 757/804 759/1194
f 404/1353 405/702 850/1162 843/1148
f 693/642 692/988 635/1154 636/707
f 811/709 831/1354 830/565 815/313
f 556/845 559/1281 713/805 711/846
f 1089/1296 1088/1295 1086/1094 1087/1114
f 549/1049 583/958 781/1355 776/1356
f 627/738 626/1048 725/1047 727/739
f 546/1024 772/557 770/560 563/1025
f 908/1357 918/1358 916/693 901/692
f 1104/1359 1103/711 1105/1129 1106/1360
f 851/1161 856/592 852/1146 850/1162
f 631/1067 632/1066 700/1233 706/647
f 852/1146 853/1144 847/1143 845/1147
f 836/1361 835/566 830/565 976/1362
f 1110/1363 970/1364 938/1365 1108/1366
f 464/1238 470/677 469/1367 462/1368
f 450/581 429/584 1215/1369 428/1370
f 651/991 656/1371 743/1372 749/992
f 1108/1314 938/1365 1201/1373 1198/1315
f 433/744 629/515 733/571 736/1374
f 529/1375 530/1376 516/1377 522/1378
f 550/1379 647/511 702/514 687/1029
f 583/958 557/957 778/1127 781/1355
f 841/1380 1188/551 1189/758 1190/1381
f 412/1382 866/1383 865/861 411/860
f 945/871 1164/525 1166/1384 937/868
f 751/1138 746/1096 744/680 750/1101
f 415/1385 414/984 871/1240 875/781
f 736/1386 735/1257 738/619 737/1387
f 479/535 475/538 476/929 477/622
f 567/1388 616/650 617/649 606/1389
f 1168/543 980/1390 937/868 1166/544
f 640/1391 641/1235 685/773 683/1392
f 425/631 1117/1242 1013/1243 421/632
f 577/1393 766/1099 763/1313 574/1394
f 622/653 621/873 715/807 717/654
f 951/304 954/783 1018/951 1019/716
f 579/1065 582/1064 563/1025 580/496
f 415/1263 875/781 879/689 422/1264
f 561/1249 564/1395 719/1396 718/1004
f 412/1397 483/1398 505/825 419/824
f 648/1236 565/1157 688/1030 701/772
f 462/1368 469/1367 467/1399 460/1400
f 1100/605 944/1401 943/1332 1098/606
f 905/1402 912/1403 911/1404 894/1405
f 888/1350 419/824 418/823 887/1070
f 479/621 537/624 513/814 487/536
f 642/1167 646/1406 605/1053 519/1056
f 881/1407 1027/1408 880/1409 877/1410
f 1113/529 1116/528 1115/633 1114/553
f 663/964 662/888 769/891 771/559
f 498/1411 644/1412 645/1413 1203/1414
f 530/1376 531/1059 484/939 516/1377
f 1027/855 1021/854 904/690 880/1409
f 642/1167 756/1311 754/1072 646/1406
f 428/936 1215/1369 395/1415 427/593
f 1110/1416 1109/726 1112/950 1111/1417
f 821/1418 891/1419 820/1420 1212/1421
f 1003/730 992/733 993/886 1004/1422
f 470/677 472/676 473/1003 469/1367
f 538/942 539/941 482/1012 481/876
f 1148/521 1150/1078 946/1081 963/522
f 728/1181 730/1180 729/599 727/739
f 923/1423 866/1424 888/1350 907/918
f 497/908 521/907 638/1425 644/1426
f 1131/864 1035/1329 1036/570 1133/569
f 859/874 407/928 408/927 858/1272
f 720/533 717/654 718/1004 719/1241
f 412/1397 419/824 888/1350 866/1383
f 894/1405 911/1404 910/982 1120/1089
f 488/657 414/984 415/1385 492/1246
f 759/1194 757/804 756/1073 758/1310
f 1065/867 1022/1274 416/952 424/955
f 891/1419 999/1427 892/1208 820/1420
f 900/686 921/1428 867/1429 899/883
f 1189/758 909/1430 967/1431 1190/1381
f 546/1024 545/1337 774/1336 772/557
f 880/796 882/795 876/975 877/1410
f 1042/1287 1145/770 1141/769 1041/1289
f 142/485 140/349 131/352 132/134
f 816/1291 1013/1033 817/527 818/1292
f 862/1273 920/574 861/590 860/589
f 724/1016 726/1432 725/1047 723/1013
f 1161/722 1160/1203 1159/1352 1158/1041
f 1056/697 1175/696 1171/1192 1057/1433
f 980/1390 1168/543 1170/1193 982/1434
f 1185/1309 1184/1308 1178/1435 1179/1085
f 782/1126 784/1276 785/1278 783/1250
f 1024/786 1068/785 1084/670 1031/1087
f 844/1121 846/1120 873/977 872/976
f 998/662 997/661 980/1390 982/1434
f 552/1436 574/1394 763/1313 762/1437
f 490/1109 463/1108 461/655 489/1063
f 739/1438 671/1439 787/1440 789/1441
f 406/701 407/928 859/874 851/1161
f 498/1411 494/1247 497/908 644/1412
f 637/761 550/1285 687/1029 690/643
f 558/1125 610/872 611/789 562/1275
f 974/1442 824/1443 975/1444 831/1445
f 856/592 855/591 853/1144 852/1146
f 1185/1309 1062/1217 1063/1325 1187/1306
f 906/1446 895/1447 920/574 896/573
f 765/1448 761/1449 760/1450 762/1451
f 1007/713 996/869 997/661 1008/710
f 869/1303 858/1272 408/927 413/1286
f 1242/1320 1134/1323 1029/933 1243/932
f 707/1261 708/652 705/651 703/1262
f 941/523 994/1198 993/886 940/885
f 1109/726 1110/1416 1108/1366 1107/727
f 921/1428 900/686 897/685 898/851
f 557/957 609/956 610/872 558/1125
f 1069/757 1021/756 1030/857 1085/669
f 1158/1041 940/885 966/884 1161/722
f 1068/785 1066/788 1067/691 1069/668
f 640/1391 683/1392 682/954 639/953
f 1186/1150 926/1149 925/1319 1184/1308
f 732/600 729/599 730/1180 731/498
f 678/1018 677/1452 797/1453 799/903
f 1135/1454 1038/1455 1037/1038 1137/1037
f 1153/880 1151/1266 1046/1130 1048/881
f 462/1368 460/1400 459/656 461/655
f 337/217 1230/476 326/466 338/218
f 676/1456 675/1177 803/1176 802/1457
f 442/794 446/793 801/1458 800/949
f 467/703 405/702 404/1353 460/1400
f 786/1280 784/1279 562/1275 554/1342
f 564/1395 594/1459 722/1015 719/1396
f 174/401 160/400 1200/1460 175/483
f 574/1394 573/1252 576/1251 577/1393
f 812/741 832/740 811/1461 395/937
f 661/889 660/1462 764/1312 767/890
f 1005/640 1004/1052 993/886 994/1198
f 526/1340 676/1456 802/1457 809/965
f 1207/1001 792/1000 436/832 1210/831
f 538/942 481/876 480/818 515/1463
f 997/661 996/869 937/868 980/1390
f 471/1163 466/1166 745/681 748/1464
f 746/1096 747/993 745/681 744/680
f 933/665 1026/1465 934/305 1020/919
f 514/1135 517/1122 538/942 515/1136
f 685/773 686/513 684/1466 683/1392
f 423/1467 424/955 682/954 681/1468
f 691/989 694/641 566/1469 570/625
f 831/1354 975/1444 976/1362 830/565
f 1213/840 1211/839 1060/1083 1177/1082
f 1009/659 1196/948 1197/947 1105/1129
f 903/302 934/305 902/819 1025/1331
f 890/715 1010/728 891/1419 821/714
f 473/1003 477/622 476/929 468/1470
f 895/1447 906/1446 905/1402 894/1405
f 792/1000 793/1471 509/1472 436/832
f 463/1108 464/1238 462/1368 461/655
f 525/764 502/131 503/130 524/765
f 1083/1112 1015/718 1014/810 1089/1113
f 656/1371 527/1473 740/1474 743/1372
f 403/983 404/1269 843/1148 842/1239
f 577/1393 576/1251 579/1065 580/496
f 638/1425 521/907 684/1466 686/513
f 547/1259 703/1262 704/648 581/1475
f 761/1449 759/1194 758/1310 760/1450
f 726/1432 728/1181 727/739 725/1047
f 929/1080 950/578 965/809 946/1081
f 598/1476 555/1178 728/1181 726/1432
f 397/904 398/611 814/986 813/742
f 985/1265 846/1120 847/1119 986/601
f 476/929 407/928 406/701 468/1470
f 587/1179 506/499 731/498 730/1180
f 643/1058 645/1477 647/511 550/1285
f 984/1206 874/1478 878/1479 983/1207
f 607/1050 618/86 619/85 608/959
f 801/1480 808/966 809/965 802/1457
f 918/1358 908/1357 885/916 917/1326
f 934/305 1026/1465 1204/820 902/819
f 861/590 919/1481 988/1305 855/591
f 426/1482 1118/1102 1117/1242 425/631
f 1111/1417 889/555 970/1364 1110/1416
f 794/999 795/1213 793/1212 792/1000
f 1133/569 1132/1483 1130/865 1131/864
f 919/1484 895/1447 894/1405 893/587
f 607/1485 549/1334 545/1337 606/1486
f 901/692 923/1116 907/918 908/1357
f 699/1184 700/969 698/1160 697/1185
f 577/1393 580/496 768/495 766/1099
f 827/1487 977/1488 978/1489 828/1490
f 669/1171 667/827 779/830 783/1168
f 398/611 400/610 816/1034 814/986
f 683/1392 684/1466 681/1468 682/954
f 604/675 536/753 478/623 472/676
f 554/1342 595/507 788/842 786/1280
f 1159/1352 1050/1351 1052/899 1163/1043
f 509/755 615/754 508/833 436/832
f 898/851 897/685 896/684 870/1228
f 1155/1491 1157/1492 1156/1069 1154/1068
f 1138/1493 1140/1494 952/303 903/302
f 829/1495 976/1362 975/1444 825/1496
f 960/519 963/522 962/784 959/561
f 456/911 454/1328 453/909 455/264
f 1153/1267 1155/879 1154/1068 1152/1079
f 1033/636 1127/635 1129/835 1034/1497
f 977/1488 827/1487 826/1498 823/1499
f 695/627 696/1156 692/1155 691/628
f 948/1086 1071/777 1072/776 936/1347
f 1149/1132 1151/1131 1150/1078 1148/521
f 592/792 591/791 448/924 447/595
f 1179/1085 1178/1435 1176/1076 1177/1082
f 1164/525 1165/897 1167/541 1166/1384
f 469/1367 473/1003 468/1470 467/1399
f 1138/1493 1139/1040 1141/1290 1140/1494
f 606/1486 617/649 618/1204 607/1485
f 1106/1360 981/1500 979/946 1104/1359
f 395/937 1215/1369 429/584 397/938
f 1075/1501 1018/951 1017/563 1079/1201
f 742/1502 748/1503 749/992 743/1372
f 952/303 1140/1494 1142/771 935/782
f 1073/775 1020/919 1019/716 1076/1187
f 714/808 712/84 711/846 713/805
f 579/1065 576/1251 633/1159 632/1066
f 780/829 777/1504 776/1356 781/1214
f 1155/879 1047/878 1049/1505 1157/1492
f 745/681 747/993 749/992 748/1464
f 1158/1041 1162/1044 941/523 940/885
f 1154/1068 928/580 929/579 1152/1079
f 435/1506 541/1225 798/900 796/1507
f 553/1158 566/1469 694/641 689/644
f 871/1240 842/1239 844/1121 872/779
f 874/1478 1130/865 1132/1483 878/1479
f 818/1292 826/548 827/1487 834/987
f 868/695 915/694 914/1508 867/1509
f 1088/1295 1000/1294 1001/1510 1091/163
f 802/1457 803/1176 800/949 801/1480
f 1093/961 1094/1511 1096/1051 1095/962
f 625/1008 624/531 721/534 723/1046
f 521/907 496/906 681/1468 684/1466
f 883/780 872/779 876/975 882/795
f 402/263 838/1512 417/1513 455/264
f 502/131 525/764 535/1097 534/1283
f 444/1111 443/516 434/745 451/582
f 913/1514 899/883 867/1429 914/1508
f 912/1515 905/882 899/883 913/1514
f 712/84 710/83 709/847 711/846
f 423/1467 681/1468 496/906 422/1254
f 1101/944 1102/712 1103/711 1104/945
f 589/1258 735/1257 734/497 588/500
f 522/1298 511/1245 528/1516 529/1517
f 1025/1331 1136/1219 1138/1220 903/302
f 594/1459 596/1518 724/1016 722/1015
f 433/744 630/629 432/609 434/745
f 737/630 738/619 426/618 425/631
f 433/744 736/1374 737/1387 630/629
f 1100/605 1099/608 1102/712 1101/944
f 846/1120 985/1265 984/1206 873/977
f 796/1507 798/900 799/903 797/1453
f 865/861 922/1519 921/850 864/862
f 674/1520 739/1438 789/1441 791/844
f 706/647 705/646 616/650 631/1067
f 494/1247 599/673 600/1035 490/1284
f 578/1183 581/1475 704/648 699/1184
f 418/823 417/1521 884/1071 887/1070
f 922/1519 868/695 867/1509 921/850
f 1169/542 1119/763 1057/1433 1171/1192
f 1002/1105 1094/1104 1093/961 1092/1090
f 1214/1075 1213/840 1177/1082 1176/1076
f 893/587 857/586 988/1305 919/1484
f 919/1484 861/590 920/574 895/1447
f 829/1495 837/552 836/1361 976/1362
f 1078/1222 955/1221 953/1191 1074/1190
f 1077/1186 1076/1187 1075/1522 1074/1190
f 1165/897 1164/525 1162/524 1163/898
f 410/863 864/862 863/852 409/815
f 567/1388 582/1026 631/1067 616/650
f 653/1523 652/1139 751/1138 753/1524
f 628/597 438/517 437/834 507/598
f 806/503 800/949 803/1176 807/1175
f 668/828 666/1525 777/1504 780/829
f 638/512 647/511 645/1477 644/1426
f 1081/720 1083/719 1082/1115 1080/1223
f 439/1526 440/1527 541/1225 435/1506
f 634/1153 573/1252 571/705 635/1154
f 776/1335 777/997 775/800 774/1336
f 854/603 1128/838 1125/837 849/604
f 1144/1226 1147/735 1146/520 1143/1028
f 1186/1150 1187/1306 1183/746 1180/1151
f 848/1256 874/1478 984/1206 985/1265
f 606/1486 545/1337 546/1024 567/1388
f 1184/1308 925/1319 924/1173 1178/1435
f 571/705 573/1252 574/1394 552/1436
f 501/912 417/1521 418/823 504/1124
f 596/1518 598/1476 726/1432 724/1016
f 1134/1323 1135/1322 1137/1037 1136/1219
f 396/708 399/312 431/311 427/593
f 438/517 443/516 439/1528 437/834
f 1128/838 854/603 857/1304 1122/585
f 1122/585 1123/980 1129/835 1128/838
f 474/751 471/1163 748/1464 742/926
f 1065/867 424/955 423/1467 1064/688
f 961/1529 1082/1115 1087/1114 964/1349
f 1124/849 1130/865 874/1478 848/1256
f 735/1257 736/1386 733/571 734/497
f 1094/1104 1003/730 1004/1422 1096/1051
f 1134/1323 1136/1219 1025/1331 1029/933
f 1114/553 1111/556 1112/950 1113/529
f 412/1397 411/860 482/877 483/1398
f 834/987 827/1487 828/1490 833/743
f 822/547 821/714 823/1499 826/548
f 1101/944 947/943 944/1401 1100/605
f 595/507 554/1342 612/790 613/508
f 709/1271 710/1205 708/652 707/1261
f 753/1524 751/1138 750/1101 752/615
f 866/1424 923/1423 922/1117 865/861
f 572/626 575/1182 697/1185 695/627
f 1001/1510 1000/1294 950/578 990/577
f 672/1200 673/1530 795/1213 794/999
f 568/706 571/705 552/1436 569/920
f 659/1531 658/1196 761/1195 765/1448
f 1078/1222 1074/1190 1075/1522 1079/1201
f 763/1313 764/1312 765/1448 762/1437
f 1034/1497 1129/835 1123/980 1039/979
f 671/1439 670/1170 785/1169 787/1440
f 331/463 323/256 320/277 329/464
f 505/825 483/1398 540/1010 524/1288
f 500/1060 489/1063 488/657 492/1246
f 958/1224 1080/1223 1082/1115 961/1529
f 517/1122 523/1532 522/1378 516/1123
f 660/1462 659/1531 765/1448 764/1312
f 1118/1102 426/1482 420/617 973/1103
f 1026/1465 933/665 1030/664 1028/856
f 1182/749 1059/748 909/1430 1189/758
f 511/1245 740/1244 527/1473 528/1516
f 446/793 454/910 808/966 801/1458
f 787/1440 786/1280 788/842 789/1441
f 236/435 237/395 221/75 222/78
f 599/673 494/1247 498/1411 1206/672
f 605/1053 1206/672 498/1411 1203/1054
f 1014/810 965/809 950/578 1000/1294
f 1203/1414 645/1413 643/1058 1202/1055
f 1026/1465 1028/856 1205/821 1204/820
f 1009/659 998/662 999/1533 1196/948
f 1106/1360 1198/1315 1201/1373 981/1500
f 1197/947 1198/1315 1106/1360 1105/1129
f 1173/1209 892/1208 982/1434 1170/1193
f 998/662 982/1434 892/1208 999/1533
f 1010/728 1196/948 999/1533 891/1419
f 924/1173 925/1319 978/1318 977/1488
f 821/714 1212/1421 819/1077 823/1499
f 825/1496 975/1444 824/1443 926/1149
f 828/1490 978/1489 824/1317 974/1442
f 832/740 833/743 828/1490 974/1442
f 832/740 974/1442 831/1445 811/1461
f 396/708 427/593 395/1415 811/709
f 924/1173 977/1488 823/1499 819/1077
f 440/1343 439/1526 443/516 444/1111
f 593/1140 542/501 541/1225 440/1343
f 797/1453 1209/998 1207/1001 796/1507
f 677/1452 1208/1199 1209/998 797/1453
f 796/1507 1207/1001 1210/831 435/1506
f 820/1420 1172/1210 1214/1075 1212/1421
f 439/1528 435/1506 1210/831 437/834
f 1172/1210 1174/699 1213/840 1214/1075
f 445/1110 449/923 441/922 593/1344
f 1181/550 829/549 825/1496 1180/1151
f 450/581 428/1370 449/923 445/1110
f 1182/759 1181/550 1180/1151 1183/746
f 1190/1381 967/1431 968/1327 840/1022
f 401/310 835/566 402/263 452/667
f 835/566 836/1361 838/1512 402/263
f 456/911 455/264 417/1513 501/912
f 841/1380 839/1534 837/552 1188/551
f 839/1534 838/1512 836/1361 837/552
f 969/1021 884/1071 839/1534 841/1380
f 841/1380 1190/1381 840/1022 969/1021
f 457/132 810/1339 458/967 586/129
f 884/1071 417/1521 838/1512 839/1534
f 741/858 742/926 743/1372 740/1244
f 517/1122 514/1135 513/1134 523/1532
f 480/818 486/817 487/1137 515/1463
f 569/920 552/1436 762/1437 760/1333
f 636/707 637/761 690/643 693/642
f 139/439 134/1535 128/421 130/440
f 614/509 625/1008 626/1048 615/754
f 615/754 626/1048 627/738 508/833
f 793/1471 790/843 597/510 509/1472
f 791/844 795/1213 673/1530 674/1520
f 210/45 209/48 1216/1536 191/442
f 368/407 352/467 1193/1537 367/107
f 245/478 249/471 247/27 1232/424
f 1076/1187 1019/716 1018/951 1075/1522
f 141/350 140/349 1218/1538 1217/1539
f 142/485 137/484 1218/1538 140/349
f 141/350 1217/1539 134/1535 139/439
f 125/391 126/187 1219/1540 138/1541
f 1219/1540 126/187 127/186 145/299
f 1223/89 64/88 65/127 60/126
f 57/158 59/341 1225/114 55/155
f 58/112 42/142 43/141 1226/115
f 329/464 320/277 318/405 324/465
f 327/388 332/387 330/461 1228/468
f 1231/423 248/30 246/415 244/414
f 255/82 254/81 1234/482 250/254
f 118/331 151/193 153/180 117/135
f 1235/1542 1001/1510 990/577 991/1006
f 1002/164 1091/163 1001/1510 1235/1542
f 646/1406 754/1072 1237/614 1238/613
f 753/1524 1236/1299 1239/893 653/1523
f 755/803 1236/892 1237/614 754/1072
f 605/1053 646/1406 1238/613 1206/672
f 1038/1455 1135/1454 1241/1321 1244/567
f 878/1479 1243/932 1240/935 983/1207
f 1132/1483 1133/569 1241/568 1242/1320
f 1132/1483 1242/1320 1243/932 878/1479
f 1028/856 1027/855 881/1407 1205/821
f 877/1410 983/1207 1240/935 881/1407
f 881/1407 1240/935 989/934 1205/821
f 1219/1540 145/299 1221/298 138/1541